{
    "asset" : {
        "generator" : "Khronos glTF Blender I/O v1.6.16",
        "version" : "2.0"
    },
    "scene" : 0,
    "scenes" : [
        {
            "name" : "Scene",
            "nodes" : [
                0,
                2,
                23
            ]
        }
    ],
    "nodes" : [
        {
            "mesh" : 0,
            "name" : "Zhigga_standing",
            "rotation" : [
                0,
                0,
                -0.7071067094802856,
                0.7071068286895752
            ],
            "scale" : [
                1.9711500406265259,
                1.9711500406265259,
                1.9711500406265259
            ],
            "translation" : [
                0,
                37.11474609375,
                0
            ]
        },
        {
            "camera" : 0,
            "name" : "Camera_Orientation",
            "rotation" : [
                -0.7071067690849304,
                0,
                0,
                0.7071067690849304
            ]
        },
        {
            "children" : [
                1
            ],
            "name" : "Camera",
            "rotation" : [
                0,
                0.7552818059921265,
                -0.6554002165794373,
                -3.3014416089827137e-08
            ],
            "scale" : [
                3.683180093765259,
                3.6831843852996826,
                3.6831839084625244
            ],
            "translation" : [
                0,
                30,
                0
            ]
        },
        {
            "name" : "hand.r",
            "rotation" : [
                -0.08957858383655548,
                -0.009539786726236343,
                -0.10546600073575974,
                0.9903340935707092
            ],
            "scale" : [
                0.9999998211860657,
                0.9999998211860657,
                0.9999998807907104
            ],
            "translation" : [
                -9.492649155617983e-07,
                6.452953815460205,
                1.3783574104309082e-07
            ]
        },
        {
            "children" : [
                3
            ],
            "name" : "lower_arm.r",
            "rotation" : [
                0.10298284888267517,
                0.0009187762043438852,
                0.01187219750136137,
                0.9946118593215942
            ],
            "scale" : [
                1,
                0.9999999403953552,
                1
            ],
            "translation" : [
                -8.666969506521127e-07,
                6.075873851776123,
                3.725290298461914e-08
            ]
        },
        {
            "children" : [
                4
            ],
            "name" : "upper_arm.r",
            "rotation" : [
                0.09463460743427277,
                -0.05983817204833031,
                0.4495922029018402,
                0.8861887454986572
            ],
            "scale" : [
                0.9999999403953552,
                0.9999998211860657,
                1
            ],
            "translation" : [
                -1.5587629604851827e-06,
                4.230919361114502,
                3.481626720258646e-07
            ]
        },
        {
            "children" : [
                5
            ],
            "name" : "shoulder.r",
            "rotation" : [
                -0.08282434195280075,
                -0.0855410173535347,
                0.7133123278617859,
                0.6906579732894897
            ],
            "scale" : [
                1,
                1,
                0.9999999403953552
            ],
            "translation" : [
                0,
                5.663726806640625,
                0
            ]
        },
        {
            "name" : "head",
            "translation" : [
                0,
                1.8286476135253906,
                0
            ]
        },
        {
            "children" : [
                7
            ],
            "name" : "Bone.006",
            "translation" : [
                0,
                5.663726806640625,
                0
            ]
        },
        {
            "name" : "hand.l",
            "rotation" : [
                -0.08957858383655548,
                0.009539786726236343,
                0.10546600073575974,
                0.9903340935707092
            ],
            "scale" : [
                0.9999998211860657,
                0.9999998211860657,
                0.9999998807907104
            ],
            "translation" : [
                9.492649155617983e-07,
                6.452953815460205,
                1.3783574104309082e-07
            ]
        },
        {
            "children" : [
                9
            ],
            "name" : "lower_arm.l",
            "rotation" : [
                0.10298284888267517,
                -0.0009187762043438852,
                -0.01187219750136137,
                0.9946118593215942
            ],
            "scale" : [
                1,
                0.9999999403953552,
                1
            ],
            "translation" : [
                8.666969506521127e-07,
                6.075873851776123,
                3.725290298461914e-08
            ]
        },
        {
            "children" : [
                10
            ],
            "name" : "upper_arm.l",
            "rotation" : [
                0.09463460743427277,
                0.05983817204833031,
                -0.4495922029018402,
                0.8861887454986572
            ],
            "scale" : [
                0.9999999403953552,
                0.9999998211860657,
                1
            ],
            "translation" : [
                1.5587629604851827e-06,
                4.230919361114502,
                3.481626720258646e-07
            ]
        },
        {
            "children" : [
                11
            ],
            "name" : "shoulder.l",
            "rotation" : [
                -0.08282434195280075,
                0.0855410173535347,
                -0.7133123278617859,
                0.6906579732894897
            ],
            "scale" : [
                1,
                1,
                0.9999999403953552
            ],
            "translation" : [
                0,
                5.663726806640625,
                0
            ]
        },
        {
            "children" : [
                6,
                8,
                12
            ],
            "name" : "torso",
            "translation" : [
                0,
                5.51258659362793,
                0
            ]
        },
        {
            "children" : [
                13
            ],
            "name" : "abdomen",
            "translation" : [
                0,
                20.650373458862305,
                0.05918300151824951
            ]
        },
        {
            "name" : "foot.r",
            "rotation" : [
                -0.0003399420529603958,
                -0.00032981866388581693,
                0.6224464178085327,
                0.7826622724533081
            ],
            "scale" : [
                1,
                1,
                1.0000001192092896
            ],
            "translation" : [
                -1.1940883837269212e-08,
                8.758371353149414,
                3.190679365161486e-08
            ]
        },
        {
            "children" : [
                15
            ],
            "name" : "lower_leg.r",
            "rotation" : [
                0.018104827031493187,
                0.00015796303341630846,
                0.13445794582366943,
                0.9907540082931519
            ],
            "scale" : [
                1,
                0.9999999403953552,
                0.9999998807907104
            ],
            "translation" : [
                2.496638558113773e-07,
                9.700080871582031,
                -6.2845202819517e-08
            ]
        },
        {
            "children" : [
                16
            ],
            "name" : "upper_leg.r",
            "rotation" : [
                -0.5803296566009521,
                -0.04218359664082527,
                -0.058961816132068634,
                0.8111483454704285
            ],
            "scale" : [
                1.0000001192092896,
                1,
                1.0000001192092896
            ],
            "translation" : [
                -4.464975233986479e-08,
                2.687243938446045,
                1.98474094759149e-06
            ]
        },
        {
            "children" : [
                17
            ],
            "name" : "hip.r",
            "rotation" : [
                -0.5804755687713623,
                0.4037923216819763,
                0.5804753303527832,
                0.40379229187965393
            ],
            "scale" : [
                1,
                0.9999999403953552,
                0.9999998807907104
            ],
            "translation" : [
                4.470663270694786e-07,
                20.650373458862305,
                0.05918300524353981
            ]
        },
        {
            "name" : "foot.l",
            "rotation" : [
                -0.0003399420529603958,
                0.00032981866388581693,
                -0.6224464178085327,
                0.7826622724533081
            ],
            "scale" : [
                1,
                1,
                1.0000001192092896
            ],
            "translation" : [
                1.1940883837269212e-08,
                8.758371353149414,
                3.190679365161486e-08
            ]
        },
        {
            "children" : [
                19
            ],
            "name" : "lower_leg.l",
            "rotation" : [
                0.018104827031493187,
                -0.00015796303341630846,
                -0.13445794582366943,
                0.9907540082931519
            ],
            "scale" : [
                1,
                0.9999999403953552,
                0.9999998807907104
            ],
            "translation" : [
                -2.496638558113773e-07,
                9.700080871582031,
                -6.2845202819517e-08
            ]
        },
        {
            "children" : [
                20
            ],
            "name" : "upper_leg.l",
            "rotation" : [
                -0.5803296566009521,
                0.04218359664082527,
                0.058961816132068634,
                0.8111483454704285
            ],
            "scale" : [
                1.0000001192092896,
                1,
                1.0000001192092896
            ],
            "translation" : [
                4.464975233986479e-08,
                2.687243938446045,
                1.98474094759149e-06
            ]
        },
        {
            "children" : [
                21
            ],
            "name" : "hip.l",
            "rotation" : [
                -0.5804755687713623,
                -0.4037923216819763,
                -0.5804753303527832,
                0.40379229187965393
            ],
            "scale" : [
                1,
                0.9999999403953552,
                0.9999998807907104
            ],
            "translation" : [
                -4.470663270694786e-07,
                20.650373458862305,
                0.05918300524353981
            ]
        },
        {
            "children" : [
                14,
                18,
                22
            ],
            "name" : "Armature"
        }
    ],
    "cameras" : [
        {
            "name" : "Camera",
            "perspective" : {
                "aspectRatio" : 1.7777777777777777,
                "yfov" : 0.39959652046304894,
                "zfar" : 1000,
                "znear" : 0.10000000149011612
            },
            "type" : "perspective"
        }
    ],
    "materials" : [
        {
            "doubleSided" : true,
            "name" : "Material.001",
            "pbrMetallicRoughness" : {
                "baseColorTexture" : {
                    "index" : 0
                },
                "metallicFactor" : 0,
                "roughnessFactor" : 0.5
            }
        }
    ],
    "meshes" : [
        {
            "name" : "Sphere",
            "primitives" : [
                {
                    "attributes" : {
                        "POSITION" : 0,
                        "NORMAL" : 1,
                        "TEXCOORD_0" : 2
                    },
                    "indices" : 3,
                    "material" : 0
                }
            ]
        }
    ],
    "textures" : [
        {
            "sampler" : 0,
            "source" : 0
        }
    ],
    "images" : [
        {
            "mimeType" : "image/png",
            "name" : "Material",
            "uri" : "Material.png"
        }
    ],
    "accessors" : [
        {
            "bufferView" : 0,
            "componentType" : 5126,
            "count" : 2346,
            "max" : [
                18.5123291015625,
                6.514418125152588,
                2.0803775787353516
            ],
            "min" : [
                -0.9511261582374573,
                -6.514418125152588,
                -1.4073117971420288
            ],
            "type" : "VEC3"
        },
        {
            "bufferView" : 1,
            "componentType" : 5126,
            "count" : 2346,
            "type" : "VEC3"
        },
        {
            "bufferView" : 2,
            "componentType" : 5126,
            "count" : 2346,
            "type" : "VEC2"
        },
        {
            "bufferView" : 3,
            "componentType" : 5123,
            "count" : 3810,
            "type" : "SCALAR"
        }
    ],
    "bufferViews" : [
        {
            "buffer" : 0,
            "byteLength" : 28152,
            "byteOffset" : 0
        },
        {
            "buffer" : 0,
            "byteLength" : 28152,
            "byteOffset" : 28152
        },
        {
            "buffer" : 0,
            "byteLength" : 18768,
            "byteOffset" : 56304
        },
        {
            "buffer" : 0,
            "byteLength" : 7620,
            "byteOffset" : 75072
        }
    ],
    "samplers" : [
        {
            "magFilter" : 9729,
            "minFilter" : 9987
        }
    ],
    "buffers" : [
        {
            "byteLength" : 82692,
            "uri" : "zhigga_basic_standing.bin"
        }
    ]
}
