{
	"asset":{
		"generator":"Khronos glTF Blender I/O v4.0.43",
		"version":"2.0"
	},
	"scene":0,
	"scenes":[
		{
			"name":"Scene",
			"nodes":[
				0,
				1,
				2,
				3,
				4,
				5,
				6,
				7,
				8,
				9
			]
		}
	],
	"nodes":[
		{
			"mesh":0,
			"name":"Cone.008",
			"rotation":[
				0,
				0.8645297884941101,
				0,
				0.5025815963745117
			],
			"translation":[
				0,
				7.004085540771484,
				0
			]
		},
		{
			"mesh":1,
			"name":"Sphere.004",
			"scale":[
				0.7840548753738403,
				0.7840548753738403,
				0.7840548753738403
			],
			"translation":[
				1.012309193611145,
				9.243379592895508,
				-1.0244343280792236
			]
		},
		{
			"mesh":2,
			"name":"Sphere.005",
			"scale":[
				0.7840548753738403,
				0.7840548753738403,
				0.7840548753738403
			],
			"translation":[
				0.5566169619560242,
				9.053301811218262,
				1.438240647315979
			]
		},
		{
			"mesh":3,
			"name":"Sphere.006",
			"scale":[
				0.7840548753738403,
				0.7840548753738403,
				0.7840548753738403
			],
			"translation":[
				-1.5566803216934204,
				8.970135688781738,
				0.06611131131649017
			]
		},
		{
			"mesh":4,
			"name":"Sphere.002",
			"rotation":[
				-0.00640967208892107,
				-0.0032584834843873978,
				0.11956870555877686,
				0.9927999973297119
			],
			"scale":[
				1.0064765214920044,
				1.0064765214920044,
				1.0064765214920044
			],
			"translation":[
				2.5942234992980957,
				7.388753890991211,
				0.5722782611846924
			]
		},
		{
			"mesh":5,
			"name":"Sphere.001",
			"rotation":[
				0.11113105714321136,
				0.008356384001672268,
				-0.07451517134904861,
				0.9909731149673462
			],
			"scale":[
				1.0064765214920044,
				1.0064765214920044,
				1.0064765214920044
			],
			"translation":[
				-0.8670873641967773,
				7.897947311401367,
				-2.620347499847412
			]
		},
		{
			"mesh":6,
			"name":"Sphere.003",
			"rotation":[
				-0.09460015594959259,
				-0.10659302771091461,
				-0.02705381251871586,
				0.9894225597381592
			],
			"scale":[
				1.0064765214920044,
				1.0064765214920044,
				1.0064765214920044
			],
			"translation":[
				-1.510481834411621,
				8.02209758758545,
				1.7177568674087524
			]
		},
		{
			"mesh":7,
			"name":"Sphere.007",
			"rotation":[
				-0.04493917152285576,
				0.010624240152537823,
				0.024600187316536903,
				0.9986302852630615
			],
			"scale":[
				1.0064765214920044,
				1.006476640701294,
				1.0064764022827148
			],
			"translation":[
				-0.0031582042574882507,
				10.34343147277832,
				-0.02323124185204506
			]
		},
		{
			"mesh":8,
			"name":"Circle.001",
			"translation":[
				0.11912740021944046,
				5.315974235534668,
				-0.0029677897691726685
			]
		},
		{
			"mesh":9,
			"name":"Circle.003",
			"translation":[
				0.012684792280197144,
				8.368324279785156,
				0.0778316855430603
			]
		}
	],
	"materials":[
		{
			"doubleSided":true,
			"name":"Material",
			"pbrMetallicRoughness":{
				"baseColorTexture":{
					"index":0
				},
				"metallicFactor":0,
				"roughnessFactor":0.9036697149276733
			}
		}
	],
	"meshes":[
		{
			"name":"Cone.008",
			"primitives":[
				{
					"attributes":{
						"POSITION":0,
						"NORMAL":1,
						"TEXCOORD_0":2
					},
					"indices":3,
					"material":0
				}
			]
		},
		{
			"name":"Sphere.004",
			"primitives":[
				{
					"attributes":{
						"POSITION":4,
						"NORMAL":5,
						"TEXCOORD_0":6
					},
					"indices":7,
					"material":0
				}
			]
		},
		{
			"name":"Sphere.005",
			"primitives":[
				{
					"attributes":{
						"POSITION":8,
						"NORMAL":9,
						"TEXCOORD_0":10
					},
					"indices":11,
					"material":0
				}
			]
		},
		{
			"name":"Sphere.006",
			"primitives":[
				{
					"attributes":{
						"POSITION":12,
						"NORMAL":13,
						"TEXCOORD_0":14
					},
					"indices":15,
					"material":0
				}
			]
		},
		{
			"name":"Sphere.007",
			"primitives":[
				{
					"attributes":{
						"POSITION":16,
						"NORMAL":17,
						"TEXCOORD_0":18
					},
					"indices":19,
					"material":0
				}
			]
		},
		{
			"name":"Sphere.008",
			"primitives":[
				{
					"attributes":{
						"POSITION":20,
						"NORMAL":21,
						"TEXCOORD_0":22
					},
					"indices":23,
					"material":0
				}
			]
		},
		{
			"name":"Sphere.009",
			"primitives":[
				{
					"attributes":{
						"POSITION":24,
						"NORMAL":25,
						"TEXCOORD_0":26
					},
					"indices":27,
					"material":0
				}
			]
		},
		{
			"name":"Sphere.010",
			"primitives":[
				{
					"attributes":{
						"POSITION":28,
						"NORMAL":29,
						"TEXCOORD_0":30
					},
					"indices":31,
					"material":0
				}
			]
		},
		{
			"name":"Circle.001",
			"primitives":[
				{
					"attributes":{
						"POSITION":32,
						"NORMAL":33,
						"TEXCOORD_0":34
					},
					"indices":35,
					"material":0
				}
			]
		},
		{
			"name":"Circle.003",
			"primitives":[
				{
					"attributes":{
						"POSITION":36,
						"NORMAL":37,
						"TEXCOORD_0":38
					},
					"indices":35,
					"material":0
				}
			]
		}
	],
	"textures":[
		{
			"sampler":0,
			"source":0
		}
	],
	"images":[
		{
			"mimeType":"image/png",
			"name":"mushroom1Texture",
			"uri":"mushroom1Texture.png"
		}
	],
	"accessors":[
		{
			"bufferView":0,
			"componentType":5126,
			"count":720,
			"max":[
				3.3433423042297363,
				3.849071502685547,
				2.4783921241760254
			],
			"min":[
				-2.282212734222412,
				-7.5,
				-2.7373206615448
			],
			"type":"VEC3"
		},
		{
			"bufferView":1,
			"componentType":5126,
			"count":720,
			"type":"VEC3"
		},
		{
			"bufferView":2,
			"componentType":5126,
			"count":720,
			"type":"VEC2"
		},
		{
			"bufferView":3,
			"componentType":5123,
			"count":1230,
			"type":"SCALAR"
		},
		{
			"bufferView":4,
			"componentType":5126,
			"count":90,
			"max":[
				0.45673447847366333,
				0.42309513688087463,
				0.41458237171173096
			],
			"min":[
				-0.4329787492752075,
				-0.4701460897922516,
				-0.4955386221408844
			],
			"type":"VEC3"
		},
		{
			"bufferView":5,
			"componentType":5126,
			"count":90,
			"type":"VEC3"
		},
		{
			"bufferView":6,
			"componentType":5126,
			"count":90,
			"type":"VEC2"
		},
		{
			"bufferView":7,
			"componentType":5123,
			"count":120,
			"type":"SCALAR"
		},
		{
			"bufferView":8,
			"componentType":5126,
			"count":90,
			"max":[
				0.3840699791908264,
				0.3905653953552246,
				0.6167467832565308
			],
			"min":[
				-0.5172362923622131,
				-0.40935832262039185,
				-0.2810514271259308
			],
			"type":"VEC3"
		},
		{
			"bufferView":9,
			"componentType":5126,
			"count":90,
			"type":"VEC3"
		},
		{
			"bufferView":10,
			"componentType":5126,
			"count":90,
			"type":"VEC2"
		},
		{
			"bufferView":11,
			"componentType":5123,
			"count":120,
			"type":"SCALAR"
		},
		{
			"bufferView":12,
			"componentType":5126,
			"count":90,
			"max":[
				0.45121297240257263,
				0.24920324981212616,
				0.3433675467967987
			],
			"min":[
				-0.35087305307388306,
				-0.5474469661712646,
				-0.49639788269996643
			],
			"type":"VEC3"
		},
		{
			"bufferView":13,
			"componentType":5126,
			"count":90,
			"type":"VEC3"
		},
		{
			"bufferView":14,
			"componentType":5126,
			"count":90,
			"type":"VEC2"
		},
		{
			"bufferView":15,
			"componentType":5123,
			"count":120,
			"type":"SCALAR"
		},
		{
			"bufferView":16,
			"componentType":5126,
			"count":132,
			"max":[
				0.703528106212616,
				0.6792899966239929,
				0.7803011536598206
			],
			"min":[
				-0.6757955551147461,
				-1.0580774545669556,
				-0.7329537868499756
			],
			"type":"VEC3"
		},
		{
			"bufferView":17,
			"componentType":5126,
			"count":132,
			"type":"VEC3"
		},
		{
			"bufferView":18,
			"componentType":5126,
			"count":132,
			"type":"VEC2"
		},
		{
			"bufferView":19,
			"componentType":5123,
			"count":180,
			"type":"SCALAR"
		},
		{
			"bufferView":20,
			"componentType":5126,
			"count":132,
			"max":[
				0.7098416686058044,
				0.6373720169067383,
				0.7280555367469788
			],
			"min":[
				-0.6879612803459167,
				-0.9517500400543213,
				-0.840738832950592
			],
			"type":"VEC3"
		},
		{
			"bufferView":21,
			"componentType":5126,
			"count":132,
			"type":"VEC3"
		},
		{
			"bufferView":22,
			"componentType":5126,
			"count":132,
			"type":"VEC2"
		},
		{
			"bufferView":23,
			"componentType":5123,
			"count":180,
			"type":"SCALAR"
		},
		{
			"bufferView":24,
			"componentType":5126,
			"count":132,
			"max":[
				0.6782817244529724,
				0.6887888312339783,
				0.9936468005180359
			],
			"min":[
				-0.6444677114486694,
				-1.0653795003890991,
				-0.6346527934074402
			],
			"type":"VEC3"
		},
		{
			"bufferView":25,
			"componentType":5126,
			"count":132,
			"type":"VEC3"
		},
		{
			"bufferView":26,
			"componentType":5126,
			"count":132,
			"type":"VEC2"
		},
		{
			"bufferView":27,
			"componentType":5123,
			"count":180,
			"type":"SCALAR"
		},
		{
			"bufferView":28,
			"componentType":5126,
			"count":132,
			"max":[
				0.8493331074714661,
				1.1195425987243652,
				0.9051123261451721
			],
			"min":[
				-0.7958765029907227,
				-1.319810152053833,
				-0.9355002641677856
			],
			"type":"VEC3"
		},
		{
			"bufferView":29,
			"componentType":5126,
			"count":132,
			"type":"VEC3"
		},
		{
			"bufferView":30,
			"componentType":5126,
			"count":132,
			"type":"VEC2"
		},
		{
			"bufferView":31,
			"componentType":5123,
			"count":180,
			"type":"SCALAR"
		},
		{
			"bufferView":32,
			"componentType":5126,
			"count":36,
			"max":[
				1.0799986124038696,
				0.8000926971435547,
				1.4163168668746948
			],
			"min":[
				-1.044947862625122,
				-0.8495403528213501,
				-1.0674095153808594
			],
			"type":"VEC3"
		},
		{
			"bufferView":33,
			"componentType":5126,
			"count":36,
			"type":"VEC3"
		},
		{
			"bufferView":34,
			"componentType":5126,
			"count":36,
			"type":"VEC2"
		},
		{
			"bufferView":35,
			"componentType":5123,
			"count":36,
			"type":"SCALAR"
		},
		{
			"bufferView":36,
			"componentType":5126,
			"count":36,
			"max":[
				0.6552329659461975,
				0.3119996190071106,
				0.7441287636756897
			],
			"min":[
				-0.6285874843597412,
				-0.3486565947532654,
				-0.6924188733100891
			],
			"type":"VEC3"
		},
		{
			"bufferView":37,
			"componentType":5126,
			"count":36,
			"type":"VEC3"
		},
		{
			"bufferView":38,
			"componentType":5126,
			"count":36,
			"type":"VEC2"
		}
	],
	"bufferViews":[
		{
			"buffer":0,
			"byteLength":8640,
			"byteOffset":0,
			"target":34962
		},
		{
			"buffer":0,
			"byteLength":8640,
			"byteOffset":8640,
			"target":34962
		},
		{
			"buffer":0,
			"byteLength":5760,
			"byteOffset":17280,
			"target":34962
		},
		{
			"buffer":0,
			"byteLength":2460,
			"byteOffset":23040,
			"target":34963
		},
		{
			"buffer":0,
			"byteLength":1080,
			"byteOffset":25500,
			"target":34962
		},
		{
			"buffer":0,
			"byteLength":1080,
			"byteOffset":26580,
			"target":34962
		},
		{
			"buffer":0,
			"byteLength":720,
			"byteOffset":27660,
			"target":34962
		},
		{
			"buffer":0,
			"byteLength":240,
			"byteOffset":28380,
			"target":34963
		},
		{
			"buffer":0,
			"byteLength":1080,
			"byteOffset":28620,
			"target":34962
		},
		{
			"buffer":0,
			"byteLength":1080,
			"byteOffset":29700,
			"target":34962
		},
		{
			"buffer":0,
			"byteLength":720,
			"byteOffset":30780,
			"target":34962
		},
		{
			"buffer":0,
			"byteLength":240,
			"byteOffset":31500,
			"target":34963
		},
		{
			"buffer":0,
			"byteLength":1080,
			"byteOffset":31740,
			"target":34962
		},
		{
			"buffer":0,
			"byteLength":1080,
			"byteOffset":32820,
			"target":34962
		},
		{
			"buffer":0,
			"byteLength":720,
			"byteOffset":33900,
			"target":34962
		},
		{
			"buffer":0,
			"byteLength":240,
			"byteOffset":34620,
			"target":34963
		},
		{
			"buffer":0,
			"byteLength":1584,
			"byteOffset":34860,
			"target":34962
		},
		{
			"buffer":0,
			"byteLength":1584,
			"byteOffset":36444,
			"target":34962
		},
		{
			"buffer":0,
			"byteLength":1056,
			"byteOffset":38028,
			"target":34962
		},
		{
			"buffer":0,
			"byteLength":360,
			"byteOffset":39084,
			"target":34963
		},
		{
			"buffer":0,
			"byteLength":1584,
			"byteOffset":39444,
			"target":34962
		},
		{
			"buffer":0,
			"byteLength":1584,
			"byteOffset":41028,
			"target":34962
		},
		{
			"buffer":0,
			"byteLength":1056,
			"byteOffset":42612,
			"target":34962
		},
		{
			"buffer":0,
			"byteLength":360,
			"byteOffset":43668,
			"target":34963
		},
		{
			"buffer":0,
			"byteLength":1584,
			"byteOffset":44028,
			"target":34962
		},
		{
			"buffer":0,
			"byteLength":1584,
			"byteOffset":45612,
			"target":34962
		},
		{
			"buffer":0,
			"byteLength":1056,
			"byteOffset":47196,
			"target":34962
		},
		{
			"buffer":0,
			"byteLength":360,
			"byteOffset":48252,
			"target":34963
		},
		{
			"buffer":0,
			"byteLength":1584,
			"byteOffset":48612,
			"target":34962
		},
		{
			"buffer":0,
			"byteLength":1584,
			"byteOffset":50196,
			"target":34962
		},
		{
			"buffer":0,
			"byteLength":1056,
			"byteOffset":51780,
			"target":34962
		},
		{
			"buffer":0,
			"byteLength":360,
			"byteOffset":52836,
			"target":34963
		},
		{
			"buffer":0,
			"byteLength":432,
			"byteOffset":53196,
			"target":34962
		},
		{
			"buffer":0,
			"byteLength":432,
			"byteOffset":53628,
			"target":34962
		},
		{
			"buffer":0,
			"byteLength":288,
			"byteOffset":54060,
			"target":34962
		},
		{
			"buffer":0,
			"byteLength":72,
			"byteOffset":54348,
			"target":34963
		},
		{
			"buffer":0,
			"byteLength":432,
			"byteOffset":54420,
			"target":34962
		},
		{
			"buffer":0,
			"byteLength":432,
			"byteOffset":54852,
			"target":34962
		},
		{
			"buffer":0,
			"byteLength":288,
			"byteOffset":55284,
			"target":34962
		}
	],
	"samplers":[
		{
			"magFilter":9729,
			"minFilter":9987
		}
	],
	"buffers":[
		{
			"byteLength":55572,
			"uri":"alienMushroomTree01.bin"
		}
	]
}
