{
	"asset":{
		"generator":"Khronos glTF Blender I/O v4.0.43",
		"version":"2.0"
	},
	"scene":0,
	"scenes":[
		{
			"name":"Scene",
			"nodes":[
				0,
				1,
				2
			]
		}
	],
	"nodes":[
		{
			"mesh":0,
			"name":"Cone.003",
			"translation":[
				-0.08274692296981812,
				3.4084858894348145,
				0.008521292358636856
			]
		},
		{
			"mesh":1,
			"name":"Cone.015",
			"translation":[
				-0.2248091846704483,
				3.3591806888580322,
				-0.11688090860843658
			]
		},
		{
			"mesh":2,
			"name":"Cone.020",
			"translation":[
				0.04981519281864166,
				3.413311004638672,
				0.24304020404815674
			]
		}
	],
	"materials":[
		{
			"doubleSided":true,
			"name":"Material.001",
			"pbrMetallicRoughness":{
				"baseColorFactor":[
					0.1253833770751953,
					0.0800013393163681,
					0.06574295461177826,
					1
				],
				"metallicFactor":0,
				"roughnessFactor":0.9128440618515015
			}
		}
	],
	"meshes":[
		{
			"name":"Cone.004",
			"primitives":[
				{
					"attributes":{
						"POSITION":0,
						"NORMAL":1,
						"TEXCOORD_0":2
					},
					"indices":3,
					"material":0
				}
			]
		},
		{
			"name":"Cone.016",
			"primitives":[
				{
					"attributes":{
						"POSITION":4,
						"NORMAL":5,
						"TEXCOORD_0":6
					},
					"indices":7,
					"material":0
				}
			]
		},
		{
			"name":"Cone.021",
			"primitives":[
				{
					"attributes":{
						"POSITION":8,
						"NORMAL":9,
						"TEXCOORD_0":10
					},
					"indices":3,
					"material":0
				}
			]
		}
	],
	"accessors":[
		{
			"bufferView":0,
			"componentType":5126,
			"count":252,
			"max":[
				0.7184596061706543,
				0.48913195729255676,
				0.828646183013916
			],
			"min":[
				-0.17320507764816284,
				-3.5,
				-1.0826812982559204
			],
			"type":"VEC3"
		},
		{
			"bufferView":1,
			"componentType":5126,
			"count":252,
			"type":"VEC3"
		},
		{
			"bufferView":2,
			"componentType":5126,
			"count":252,
			"type":"VEC2"
		},
		{
			"bufferView":3,
			"componentType":5123,
			"count":420,
			"type":"SCALAR"
		},
		{
			"bufferView":4,
			"componentType":5126,
			"count":288,
			"max":[
				0.3656769394874573,
				-0.7064542770385742,
				0.5106141567230225
			],
			"min":[
				-1.3483704328536987,
				-3.4431066513061523,
				-1.1689021587371826
			],
			"type":"VEC3"
		},
		{
			"bufferView":5,
			"componentType":5126,
			"count":288,
			"type":"VEC3"
		},
		{
			"bufferView":6,
			"componentType":5126,
			"count":288,
			"type":"VEC2"
		},
		{
			"bufferView":7,
			"componentType":5123,
			"count":480,
			"type":"SCALAR"
		},
		{
			"bufferView":8,
			"componentType":5126,
			"count":252,
			"max":[
				0.17320507764816284,
				0.16345220804214478,
				1.2776416540145874
			],
			"min":[
				-0.7773411870002747,
				-3.5,
				-0.20000000298023224
			],
			"type":"VEC3"
		},
		{
			"bufferView":9,
			"componentType":5126,
			"count":252,
			"type":"VEC3"
		},
		{
			"bufferView":10,
			"componentType":5126,
			"count":252,
			"type":"VEC2"
		}
	],
	"bufferViews":[
		{
			"buffer":0,
			"byteLength":3024,
			"byteOffset":0,
			"target":34962
		},
		{
			"buffer":0,
			"byteLength":3024,
			"byteOffset":3024,
			"target":34962
		},
		{
			"buffer":0,
			"byteLength":2016,
			"byteOffset":6048,
			"target":34962
		},
		{
			"buffer":0,
			"byteLength":840,
			"byteOffset":8064,
			"target":34963
		},
		{
			"buffer":0,
			"byteLength":3456,
			"byteOffset":8904,
			"target":34962
		},
		{
			"buffer":0,
			"byteLength":3456,
			"byteOffset":12360,
			"target":34962
		},
		{
			"buffer":0,
			"byteLength":2304,
			"byteOffset":15816,
			"target":34962
		},
		{
			"buffer":0,
			"byteLength":960,
			"byteOffset":18120,
			"target":34963
		},
		{
			"buffer":0,
			"byteLength":3024,
			"byteOffset":19080,
			"target":34962
		},
		{
			"buffer":0,
			"byteLength":3024,
			"byteOffset":22104,
			"target":34962
		},
		{
			"buffer":0,
			"byteLength":2016,
			"byteOffset":25128,
			"target":34962
		}
	],
	"buffers":[
		{
			"byteLength":27144,
			"uri":"dryBush01.bin"
		}
	]
}
