{
	"asset":{
		"generator":"Khronos glTF Blender I/O v4.0.43",
		"version":"2.0"
	},
	"scene":0,
	"scenes":[
		{
			"name":"Scene",
			"nodes":[
				0
			]
		}
	],
	"nodes":[
		{
			"mesh":0,
			"name":"Cylinder",
			"rotation":[
				0.7071068286895752,
				0,
				0,
				0.7071068286895752
			],
			"scale":[
				1,
				4.408583641052246,
				1
			]
		}
	],
	"materials":[
		{
			"doubleSided":true,
			"name":"Material",
			"pbrMetallicRoughness":{
				"baseColorFactor":[
					0.07710283994674683,
					0.046508558094501495,
					0.031146962195634842,
					1
				],
				"metallicFactor":0,
				"roughnessFactor":0.8027522563934326
			}
		},
		{
			"doubleSided":true,
			"name":"Material.002",
			"pbrMetallicRoughness":{
				"baseColorFactor":[
					0.2747236490249634,
					0.15895389020442963,
					0.11192434281110764,
					1
				],
				"metallicFactor":0,
				"roughnessFactor":0.8302752375602722
			}
		},
		{
			"doubleSided":true,
			"name":"Material.003",
			"pbrMetallicRoughness":{
				"baseColorFactor":[
					0.19966864585876465,
					0.11661796271800995,
					0.0825837031006813,
					1
				],
				"metallicFactor":0,
				"roughnessFactor":0.747706413269043
			}
		}
	],
	"meshes":[
		{
			"name":"Cylinder",
			"primitives":[
				{
					"attributes":{
						"POSITION":0,
						"NORMAL":1,
						"TEXCOORD_0":2
					},
					"indices":3,
					"material":0
				},
				{
					"attributes":{
						"POSITION":4,
						"NORMAL":5,
						"TEXCOORD_0":6
					},
					"indices":7,
					"material":1
				},
				{
					"attributes":{
						"POSITION":8,
						"NORMAL":9,
						"TEXCOORD_0":10
					},
					"indices":11,
					"material":2
				}
			]
		}
	],
	"accessors":[
		{
			"bufferView":0,
			"componentType":5126,
			"count":640,
			"max":[
				3.7333157062530518,
				1.008485198020935,
				0.8259572982788086
			],
			"min":[
				-3.212766647338867,
				-1.0277167558670044,
				-1.9573051929473877
			],
			"type":"VEC3"
		},
		{
			"bufferView":1,
			"componentType":5126,
			"count":640,
			"type":"VEC3"
		},
		{
			"bufferView":2,
			"componentType":5126,
			"count":640,
			"type":"VEC2"
		},
		{
			"bufferView":3,
			"componentType":5123,
			"count":1032,
			"type":"SCALAR"
		},
		{
			"bufferView":4,
			"componentType":5126,
			"count":60,
			"max":[
				0.6608442068099976,
				0.9942947626113892,
				0.7104872465133667
			],
			"min":[
				-1.1444809436798096,
				-1.0058046579360962,
				-1.3741227388381958
			],
			"type":"VEC3"
		},
		{
			"bufferView":5,
			"componentType":5126,
			"count":60,
			"type":"VEC3"
		},
		{
			"bufferView":6,
			"componentType":5126,
			"count":60,
			"type":"VEC2"
		},
		{
			"bufferView":7,
			"componentType":5123,
			"count":168,
			"type":"SCALAR"
		},
		{
			"bufferView":8,
			"componentType":5126,
			"count":48,
			"max":[
				0.360844224691391,
				0.9942947626113892,
				0.364077091217041
			],
			"min":[
				-0.8444809913635254,
				-1.0058046579360962,
				-1.0277125835418701
			],
			"type":"VEC3"
		},
		{
			"bufferView":9,
			"componentType":5126,
			"count":48,
			"type":"VEC3"
		},
		{
			"bufferView":10,
			"componentType":5126,
			"count":48,
			"type":"VEC2"
		},
		{
			"bufferView":11,
			"componentType":5123,
			"count":144,
			"type":"SCALAR"
		}
	],
	"bufferViews":[
		{
			"buffer":0,
			"byteLength":7680,
			"byteOffset":0,
			"target":34962
		},
		{
			"buffer":0,
			"byteLength":7680,
			"byteOffset":7680,
			"target":34962
		},
		{
			"buffer":0,
			"byteLength":5120,
			"byteOffset":15360,
			"target":34962
		},
		{
			"buffer":0,
			"byteLength":2064,
			"byteOffset":20480,
			"target":34963
		},
		{
			"buffer":0,
			"byteLength":720,
			"byteOffset":22544,
			"target":34962
		},
		{
			"buffer":0,
			"byteLength":720,
			"byteOffset":23264,
			"target":34962
		},
		{
			"buffer":0,
			"byteLength":480,
			"byteOffset":23984,
			"target":34962
		},
		{
			"buffer":0,
			"byteLength":336,
			"byteOffset":24464,
			"target":34963
		},
		{
			"buffer":0,
			"byteLength":576,
			"byteOffset":24800,
			"target":34962
		},
		{
			"buffer":0,
			"byteLength":576,
			"byteOffset":25376,
			"target":34962
		},
		{
			"buffer":0,
			"byteLength":384,
			"byteOffset":25952,
			"target":34962
		},
		{
			"buffer":0,
			"byteLength":288,
			"byteOffset":26336,
			"target":34963
		}
	],
	"buffers":[
		{
			"byteLength":26624,
			"uri":"fallenTree01.bin"
		}
	]
}
