{
    "asset" : {
        "generator" : "Khronos glTF Blender I/O v1.6.16",
        "version" : "2.0"
    },
    "extensionsUsed" : [
        "KHR_lights_punctual"
    ],
    "extensionsRequired" : [
        "KHR_lights_punctual"
    ],
    "extensions" : {
        "KHR_lights_punctual" : {
            "lights" : [
                {
                    "color" : [
                        1,
                        1,
                        1
                    ],
                    "intensity" : 0.6699999570846558,
                    "type" : "directional",
                    "name" : "Sun"
                }
            ]
        }
    },
    "scene" : 0,
    "scenes" : [
        {
            "name" : "Scene",
            "nodes" : [
                0,
                1,
                3,
                5,
                6
            ]
        }
    ],
    "nodes" : [
        {
            "mesh" : 0,
            "name" : "Plane",
            "scale" : [
                4346.9482421875,
                4346.9482421875,
                4346.9482421875
            ],
            "translation" : [
                0,
                -148.64453125,
                0
            ]
        },
        {
            "mesh" : 1,
            "name" : "Plane.001",
            "scale" : [
                2647.26806640625,
                2647.26806640625,
                2647.26806640625
            ],
            "translation" : [
                7.62939453125e-06,
                -906.111328125,
                -461.46075439453125
            ]
        },
        {
            "camera" : 0,
            "name" : "Camera_Orientation",
            "rotation" : [
                -0.7071067690849304,
                0,
                0,
                0.7071067690849304
            ]
        },
        {
            "children" : [
                2
            ],
            "name" : "Camera",
            "rotation" : [
                0.7070527076721191,
                -0.008744465187191963,
                0.008744465187191963,
                0.7070527076721191
            ],
            "translation" : [
                174.7808074951172,
                320.8148498535156,
                807.27734375
            ]
        },
        {
            "extensions" : {
                "KHR_lights_punctual" : {
                    "light" : 0
                }
            },
            "name" : "Sun_Orientation",
            "rotation" : [
                -0.7071067690849304,
                0,
                0,
                0.7071067690849304
            ]
        },
        {
            "children" : [
                4
            ],
            "name" : "Sun",
            "translation" : [
                3012.902587890625,
                3744.930908203125,
                2188.010009765625
            ]
        },
        {
            "mesh" : 2,
            "name" : "Sphere",
            "scale" : [
                7078.16943359375,
                7078.16943359375,
                7078.16943359375
            ],
            "translation" : [
                0,
                -279.8280944824219,
                0
            ]
        }
    ],
    "cameras" : [
        {
            "name" : "Camera.001",
            "perspective" : {
                "aspectRatio" : 1.7777777777777777,
                "yfov" : 0.39959652046304894,
                "zfar" : 10000,
                "znear" : 0.0010000000474974513
            },
            "type" : "perspective"
        }
    ],
    "materials" : [
        {
            "doubleSided" : true,
            "name" : "Material.003",
            "pbrMetallicRoughness" : {
                "baseColorTexture" : {
                    "index" : 0
                },
                "metallicFactor" : 0,
                "roughnessFactor" : 0.5
            }
        },
        {
            "doubleSided" : true,
            "name" : "Material.004",
            "pbrMetallicRoughness" : {
                "baseColorTexture" : {
                    "index" : 1
                },
                "metallicFactor" : 0,
                "roughnessFactor" : 0.5
            }
        },
        {
            "doubleSided" : true,
            "name" : "Material.006",
            "pbrMetallicRoughness" : {
                "baseColorTexture" : {
                    "index" : 2
                },
                "metallicFactor" : 0,
                "roughnessFactor" : 0.5
            }
        }
    ],
    "meshes" : [
        {
            "name" : "Plane.001",
            "primitives" : [
                {
                    "attributes" : {
                        "POSITION" : 0,
                        "NORMAL" : 1,
                        "TEXCOORD_0" : 2
                    },
                    "indices" : 3,
                    "material" : 0
                }
            ]
        },
        {
            "name" : "Plane.002",
            "primitives" : [
                {
                    "attributes" : {
                        "POSITION" : 4,
                        "NORMAL" : 5,
                        "TEXCOORD_0" : 6
                    },
                    "indices" : 7,
                    "material" : 1
                }
            ]
        },
        {
            "name" : "Sphere.001",
            "primitives" : [
                {
                    "attributes" : {
                        "POSITION" : 8,
                        "NORMAL" : 9,
                        "TEXCOORD_0" : 10
                    },
                    "indices" : 11,
                    "material" : 2
                }
            ]
        }
    ],
    "textures" : [
        {
            "sampler" : 0,
            "source" : 0
        },
        {
            "sampler" : 0,
            "source" : 1
        },
        {
            "sampler" : 0,
            "source" : 2
        }
    ],
    "images" : [
        {
            "mimeType" : "image/jpeg",
            "name" : "walls",
            "uri" : "walls.jpg"
        },
        {
            "mimeType" : "image/jpeg",
            "name" : "wasteland_ground1",
            "uri" : "wasteland_ground1.jpg"
        },
        {
            "mimeType" : "image/jpeg",
            "name" : "stormy-sky",
            "uri" : "stormy-sky.jpg"
        }
    ],
    "accessors" : [
        {
            "bufferView" : 0,
            "componentType" : 5126,
            "count" : 30094,
            "max" : [
                1.1317925453186035,
                0.45019838213920593,
                1.0993640422821045
            ],
            "min" : [
                -1.2901521921157837,
                0.0074720666743814945,
                -1.1964764595031738
            ],
            "type" : "VEC3"
        },
        {
            "bufferView" : 1,
            "componentType" : 5126,
            "count" : 30094,
            "type" : "VEC3"
        },
        {
            "bufferView" : 2,
            "componentType" : 5126,
            "count" : 30094,
            "type" : "VEC2"
        },
        {
            "bufferView" : 3,
            "componentType" : 5123,
            "count" : 176568,
            "type" : "SCALAR"
        },
        {
            "bufferView" : 4,
            "componentType" : 5126,
            "count" : 40804,
            "max" : [
                1.330562710762024,
                0.46631282567977905,
                1.297568917274475
            ],
            "min" : [
                -1.4516797065734863,
                0.055493347346782684,
                -1.3936362266540527
            ],
            "type" : "VEC3"
        },
        {
            "bufferView" : 5,
            "componentType" : 5126,
            "count" : 40804,
            "type" : "VEC3"
        },
        {
            "bufferView" : 6,
            "componentType" : 5126,
            "count" : 40804,
            "type" : "VEC2"
        },
        {
            "bufferView" : 7,
            "componentType" : 5123,
            "count" : 61206,
            "type" : "SCALAR"
        },
        {
            "bufferView" : 8,
            "componentType" : 5126,
            "count" : 992,
            "max" : [
                0.9999997019767761,
                1,
                0.9999994039535522
            ],
            "min" : [
                -0.9999990463256836,
                -4.371138828673793e-08,
                -0.9999987483024597
            ],
            "type" : "VEC3"
        },
        {
            "bufferView" : 9,
            "componentType" : 5126,
            "count" : 992,
            "type" : "VEC3"
        },
        {
            "bufferView" : 10,
            "componentType" : 5126,
            "count" : 992,
            "type" : "VEC2"
        },
        {
            "bufferView" : 11,
            "componentType" : 5123,
            "count" : 1440,
            "type" : "SCALAR"
        }
    ],
    "bufferViews" : [
        {
            "buffer" : 0,
            "byteLength" : 361128,
            "byteOffset" : 0
        },
        {
            "buffer" : 0,
            "byteLength" : 361128,
            "byteOffset" : 361128
        },
        {
            "buffer" : 0,
            "byteLength" : 240752,
            "byteOffset" : 722256
        },
        {
            "buffer" : 0,
            "byteLength" : 353136,
            "byteOffset" : 963008
        },
        {
            "buffer" : 0,
            "byteLength" : 489648,
            "byteOffset" : 1316144
        },
        {
            "buffer" : 0,
            "byteLength" : 489648,
            "byteOffset" : 1805792
        },
        {
            "buffer" : 0,
            "byteLength" : 326432,
            "byteOffset" : 2295440
        },
        {
            "buffer" : 0,
            "byteLength" : 122412,
            "byteOffset" : 2621872
        },
        {
            "buffer" : 0,
            "byteLength" : 11904,
            "byteOffset" : 2744284
        },
        {
            "buffer" : 0,
            "byteLength" : 11904,
            "byteOffset" : 2756188
        },
        {
            "buffer" : 0,
            "byteLength" : 7936,
            "byteOffset" : 2768092
        },
        {
            "buffer" : 0,
            "byteLength" : 2880,
            "byteOffset" : 2776028
        }
    ],
    "samplers" : [
        {
            "magFilter" : 9729,
            "minFilter" : 9987
        }
    ],
    "buffers" : [
        {
            "byteLength" : 2778908,
            "uri" : "mapa.bin"
        }
    ]
}
