{
	"asset":{
		"generator":"Khronos glTF Blender I/O v4.0.43",
		"version":"2.0"
	},
	"scene":0,
	"scenes":[
		{
			"name":"Scene",
			"nodes":[
				0,
				1,
				2,
				3,
				4,
				5,
				6,
				7,
				8,
				9
			]
		}
	],
	"nodes":[
		{
			"mesh":0,
			"name":"Cone.004",
			"translation":[
				0,
				6.9516448974609375,
				0
			]
		},
		{
			"mesh":1,
			"name":"Cone.005",
			"translation":[
				0,
				7.9516448974609375,
				0
			]
		},
		{
			"mesh":2,
			"name":"Cone.010",
			"translation":[
				0,
				7.9516448974609375,
				0
			]
		},
		{
			"mesh":3,
			"name":"Cone.014",
			"translation":[
				0,
				7.9516448974609375,
				0
			]
		},
		{
			"mesh":4,
			"name":"Sphere",
			"rotation":[
				-0.055045414716005325,
				-0.03389919549226761,
				0.02333260327577591,
				0.9976354241371155
			],
			"scale":[
				1.000151515007019,
				1.0573818683624268,
				1.0007014274597168
			],
			"translation":[
				2.9844396114349365,
				9.642549514770508,
				0.14709344506263733
			]
		},
		{
			"mesh":5,
			"name":"Sphere.001",
			"rotation":[
				-0.0829458087682724,
				-0.012975968420505524,
				-0.01724196970462799,
				0.9963204860687256
			],
			"translation":[
				0.3314245939254761,
				10.419729232788086,
				1.1094167232513428
			]
		},
		{
			"mesh":6,
			"name":"Sphere.002",
			"rotation":[
				0.10452496260404587,
				0.09311205893754959,
				0.003021378768607974,
				0.9901492595672607
			],
			"scale":[
				1.0000553131103516,
				1.0785677433013916,
				1.00363028049469
			],
			"translation":[
				-1.1831462383270264,
				9.077901840209961,
				-2.248906373977661
			]
		},
		{
			"mesh":7,
			"name":"Circle.001",
			"translation":[
				-1.3209261894226074,
				7.014947414398193,
				-2.412109136581421
			]
		},
		{
			"mesh":8,
			"name":"Circle",
			"translation":[
				0.11014941334724426,
				8.052263259887695,
				1.230601191520691
			]
		},
		{
			"mesh":9,
			"name":"Circle.003",
			"translation":[
				2.378159999847412,
				7.504833698272705,
				0.008026614785194397
			]
		}
	],
	"materials":[
		{
			"doubleSided":true,
			"name":"Material",
			"pbrMetallicRoughness":{
				"baseColorTexture":{
					"index":0
				},
				"metallicFactor":0,
				"roughnessFactor":0.5
			}
		}
	],
	"meshes":[
		{
			"name":"Cone.004",
			"primitives":[
				{
					"attributes":{
						"POSITION":0,
						"NORMAL":1,
						"TEXCOORD_0":2
					},
					"indices":3,
					"material":0
				}
			]
		},
		{
			"name":"Cone.005",
			"primitives":[
				{
					"attributes":{
						"POSITION":4,
						"NORMAL":5,
						"TEXCOORD_0":6
					},
					"indices":7
				}
			]
		},
		{
			"name":"Cone.010",
			"primitives":[
				{
					"attributes":{
						"POSITION":8,
						"NORMAL":9,
						"TEXCOORD_0":10
					},
					"indices":7
				}
			]
		},
		{
			"name":"Cone.014",
			"primitives":[
				{
					"attributes":{
						"POSITION":11,
						"NORMAL":12,
						"TEXCOORD_0":13
					},
					"indices":7
				}
			]
		},
		{
			"name":"Sphere",
			"primitives":[
				{
					"attributes":{
						"POSITION":14,
						"NORMAL":15,
						"TEXCOORD_0":16
					},
					"indices":17,
					"material":0
				}
			]
		},
		{
			"name":"Sphere.001",
			"primitives":[
				{
					"attributes":{
						"POSITION":18,
						"NORMAL":19,
						"TEXCOORD_0":20
					},
					"indices":21,
					"material":0
				}
			]
		},
		{
			"name":"Sphere.002",
			"primitives":[
				{
					"attributes":{
						"POSITION":22,
						"NORMAL":23,
						"TEXCOORD_0":24
					},
					"indices":25,
					"material":0
				}
			]
		},
		{
			"name":"Circle.001",
			"primitives":[
				{
					"attributes":{
						"POSITION":26,
						"NORMAL":27,
						"TEXCOORD_0":28
					},
					"indices":29,
					"material":0
				}
			]
		},
		{
			"name":"Circle.002",
			"primitives":[
				{
					"attributes":{
						"POSITION":30,
						"NORMAL":31,
						"TEXCOORD_0":32
					},
					"indices":33,
					"material":0
				}
			]
		},
		{
			"name":"Circle.005",
			"primitives":[
				{
					"attributes":{
						"POSITION":34,
						"NORMAL":35,
						"TEXCOORD_0":36
					},
					"indices":29,
					"material":0
				}
			]
		}
	],
	"textures":[
		{
			"sampler":0,
			"source":0
		}
	],
	"images":[
		{
			"mimeType":"image/png",
			"name":"mushroom2texture",
			"uri":"mushroom2texture.png"
		}
	],
	"accessors":[
		{
			"bufferView":0,
			"componentType":5126,
			"count":468,
			"max":[
				3.2797746658325195,
				3.1978602409362793,
				1.8245925903320312
			],
			"min":[
				-1.8483177423477173,
				-7.5,
				-3.0711679458618164
			],
			"type":"VEC3"
		},
		{
			"bufferView":1,
			"componentType":5126,
			"count":468,
			"type":"VEC3"
		},
		{
			"bufferView":2,
			"componentType":5126,
			"count":468,
			"type":"VEC2"
		},
		{
			"bufferView":3,
			"componentType":5123,
			"count":780,
			"type":"SCALAR"
		},
		{
			"bufferView":4,
			"componentType":5126,
			"count":36,
			"max":[
				-1.0989079475402832,
				1.3202054500579834,
				-2.0781469345092773
			],
			"min":[
				-1.4453179836273193,
				0.9341217279434204,
				-2.5093657970428467
			],
			"type":"VEC3"
		},
		{
			"bufferView":5,
			"componentType":5126,
			"count":36,
			"type":"VEC3"
		},
		{
			"bufferView":6,
			"componentType":5126,
			"count":36,
			"type":"VEC2"
		},
		{
			"bufferView":7,
			"componentType":5123,
			"count":60,
			"type":"SCALAR"
		},
		{
			"bufferView":8,
			"componentType":5126,
			"count":36,
			"max":[
				3.1486551761627197,
				2.1785778999328613,
				0.33645355701446533
			],
			"min":[
				2.7780356407165527,
				1.5793513059616089,
				-0.06354635953903198
			],
			"type":"VEC3"
		},
		{
			"bufferView":9,
			"componentType":5126,
			"count":36,
			"type":"VEC3"
		},
		{
			"bufferView":10,
			"componentType":5126,
			"count":36,
			"type":"VEC2"
		},
		{
			"bufferView":11,
			"componentType":5126,
			"count":36,
			"max":[
				0.46442484855651855,
				2.810706615447998,
				1.4397637844085693
			],
			"min":[
				0.11801478266716003,
				2.1978602409362793,
				0.9043375849723816
			],
			"type":"VEC3"
		},
		{
			"bufferView":12,
			"componentType":5126,
			"count":36,
			"type":"VEC3"
		},
		{
			"bufferView":13,
			"componentType":5126,
			"count":36,
			"type":"VEC2"
		},
		{
			"bufferView":14,
			"componentType":5126,
			"count":132,
			"max":[
				1.1174962520599365,
				1.2338162660598755,
				1.2753324508666992
			],
			"min":[
				-1.1860753297805786,
				-1.3639426231384277,
				-1.216038465499878
			],
			"type":"VEC3"
		},
		{
			"bufferView":15,
			"componentType":5126,
			"count":132,
			"type":"VEC3"
		},
		{
			"bufferView":16,
			"componentType":5126,
			"count":132,
			"type":"VEC2"
		},
		{
			"bufferView":17,
			"componentType":5123,
			"count":180,
			"type":"SCALAR"
		},
		{
			"bufferView":18,
			"componentType":5126,
			"count":132,
			"max":[
				1.1433647871017456,
				1.453824520111084,
				1.4078116416931152
			],
			"min":[
				-1.1730462312698364,
				-1.7440673112869263,
				-1.3121962547302246
			],
			"type":"VEC3"
		},
		{
			"bufferView":19,
			"componentType":5126,
			"count":132,
			"type":"VEC3"
		},
		{
			"bufferView":20,
			"componentType":5126,
			"count":132,
			"type":"VEC2"
		},
		{
			"bufferView":21,
			"componentType":5123,
			"count":180,
			"type":"SCALAR"
		},
		{
			"bufferView":22,
			"componentType":5126,
			"count":132,
			"max":[
				1.2130850553512573,
				1.2926644086837769,
				1.3047250509262085
			],
			"min":[
				-1.2875505685806274,
				-1.4938522577285767,
				-1.4901132583618164
			],
			"type":"VEC3"
		},
		{
			"bufferView":23,
			"componentType":5126,
			"count":132,
			"type":"VEC3"
		},
		{
			"bufferView":24,
			"componentType":5126,
			"count":132,
			"type":"VEC2"
		},
		{
			"bufferView":25,
			"componentType":5123,
			"count":180,
			"type":"SCALAR"
		},
		{
			"bufferView":26,
			"componentType":5126,
			"count":36,
			"max":[
				0.9063174724578857,
				0.6468088030815125,
				0.8579431176185608
			],
			"min":[
				-0.937804639339447,
				-0.3158080577850342,
				-1.08060622215271
			],
			"type":"VEC3"
		},
		{
			"bufferView":27,
			"componentType":5126,
			"count":36,
			"type":"VEC3"
		},
		{
			"bufferView":28,
			"componentType":5126,
			"count":36,
			"type":"VEC2"
		},
		{
			"bufferView":29,
			"componentType":5123,
			"count":36,
			"type":"SCALAR"
		},
		{
			"bufferView":30,
			"componentType":5126,
			"count":36,
			"max":[
				0.8367459774017334,
				0.5808197855949402,
				0.8993398547172546
			],
			"min":[
				-0.7547628283500671,
				-0.35646793246269226,
				-0.9457744359970093
			],
			"type":"VEC3"
		},
		{
			"bufferView":31,
			"componentType":5126,
			"count":36,
			"type":"VEC3"
		},
		{
			"bufferView":32,
			"componentType":5126,
			"count":36,
			"type":"VEC2"
		},
		{
			"bufferView":33,
			"componentType":5123,
			"count":36,
			"type":"SCALAR"
		},
		{
			"bufferView":34,
			"componentType":5126,
			"count":36,
			"max":[
				0.6606676578521729,
				0.3793056011199951,
				0.9104141592979431
			],
			"min":[
				-0.7956447005271912,
				-0.36308979988098145,
				-0.9516135454177856
			],
			"type":"VEC3"
		},
		{
			"bufferView":35,
			"componentType":5126,
			"count":36,
			"type":"VEC3"
		},
		{
			"bufferView":36,
			"componentType":5126,
			"count":36,
			"type":"VEC2"
		}
	],
	"bufferViews":[
		{
			"buffer":0,
			"byteLength":5616,
			"byteOffset":0,
			"target":34962
		},
		{
			"buffer":0,
			"byteLength":5616,
			"byteOffset":5616,
			"target":34962
		},
		{
			"buffer":0,
			"byteLength":3744,
			"byteOffset":11232,
			"target":34962
		},
		{
			"buffer":0,
			"byteLength":1560,
			"byteOffset":14976,
			"target":34963
		},
		{
			"buffer":0,
			"byteLength":432,
			"byteOffset":16536,
			"target":34962
		},
		{
			"buffer":0,
			"byteLength":432,
			"byteOffset":16968,
			"target":34962
		},
		{
			"buffer":0,
			"byteLength":288,
			"byteOffset":17400,
			"target":34962
		},
		{
			"buffer":0,
			"byteLength":120,
			"byteOffset":17688,
			"target":34963
		},
		{
			"buffer":0,
			"byteLength":432,
			"byteOffset":17808,
			"target":34962
		},
		{
			"buffer":0,
			"byteLength":432,
			"byteOffset":18240,
			"target":34962
		},
		{
			"buffer":0,
			"byteLength":288,
			"byteOffset":18672,
			"target":34962
		},
		{
			"buffer":0,
			"byteLength":432,
			"byteOffset":18960,
			"target":34962
		},
		{
			"buffer":0,
			"byteLength":432,
			"byteOffset":19392,
			"target":34962
		},
		{
			"buffer":0,
			"byteLength":288,
			"byteOffset":19824,
			"target":34962
		},
		{
			"buffer":0,
			"byteLength":1584,
			"byteOffset":20112,
			"target":34962
		},
		{
			"buffer":0,
			"byteLength":1584,
			"byteOffset":21696,
			"target":34962
		},
		{
			"buffer":0,
			"byteLength":1056,
			"byteOffset":23280,
			"target":34962
		},
		{
			"buffer":0,
			"byteLength":360,
			"byteOffset":24336,
			"target":34963
		},
		{
			"buffer":0,
			"byteLength":1584,
			"byteOffset":24696,
			"target":34962
		},
		{
			"buffer":0,
			"byteLength":1584,
			"byteOffset":26280,
			"target":34962
		},
		{
			"buffer":0,
			"byteLength":1056,
			"byteOffset":27864,
			"target":34962
		},
		{
			"buffer":0,
			"byteLength":360,
			"byteOffset":28920,
			"target":34963
		},
		{
			"buffer":0,
			"byteLength":1584,
			"byteOffset":29280,
			"target":34962
		},
		{
			"buffer":0,
			"byteLength":1584,
			"byteOffset":30864,
			"target":34962
		},
		{
			"buffer":0,
			"byteLength":1056,
			"byteOffset":32448,
			"target":34962
		},
		{
			"buffer":0,
			"byteLength":360,
			"byteOffset":33504,
			"target":34963
		},
		{
			"buffer":0,
			"byteLength":432,
			"byteOffset":33864,
			"target":34962
		},
		{
			"buffer":0,
			"byteLength":432,
			"byteOffset":34296,
			"target":34962
		},
		{
			"buffer":0,
			"byteLength":288,
			"byteOffset":34728,
			"target":34962
		},
		{
			"buffer":0,
			"byteLength":72,
			"byteOffset":35016,
			"target":34963
		},
		{
			"buffer":0,
			"byteLength":432,
			"byteOffset":35088,
			"target":34962
		},
		{
			"buffer":0,
			"byteLength":432,
			"byteOffset":35520,
			"target":34962
		},
		{
			"buffer":0,
			"byteLength":288,
			"byteOffset":35952,
			"target":34962
		},
		{
			"buffer":0,
			"byteLength":72,
			"byteOffset":36240,
			"target":34963
		},
		{
			"buffer":0,
			"byteLength":432,
			"byteOffset":36312,
			"target":34962
		},
		{
			"buffer":0,
			"byteLength":432,
			"byteOffset":36744,
			"target":34962
		},
		{
			"buffer":0,
			"byteLength":288,
			"byteOffset":37176,
			"target":34962
		}
	],
	"samplers":[
		{
			"magFilter":9729,
			"minFilter":9987
		}
	],
	"buffers":[
		{
			"byteLength":37464,
			"uri":"mushroom02.bin"
		}
	]
}
