{
	"asset":{
		"generator":"Khronos glTF Blender I/O v4.0.43",
		"version":"2.0"
	},
	"scene":0,
	"scenes":[
		{
			"name":"Scene",
			"nodes":[
				0
			]
		}
	],
	"nodes":[
		{
			"mesh":0,
			"name":"Cylinder"
		}
	],
	"materials":[
		{
			"doubleSided":true,
			"name":"Material.001",
			"pbrMetallicRoughness":{
				"baseColorTexture":{
					"index":0
				},
				"metallicFactor":0,
				"roughnessFactor":0.857798159122467
			}
		}
	],
	"meshes":[
		{
			"name":"Cylinder",
			"primitives":[
				{
					"attributes":{
						"POSITION":0,
						"NORMAL":1,
						"TEXCOORD_0":2
					},
					"indices":3,
					"material":0
				}
			]
		}
	],
	"textures":[
		{
			"sampler":0,
			"source":0
		}
	],
	"images":[
		{
			"mimeType":"image/png",
			"name":"mushroom4texture",
			"uri":"mushroom4texture.png"
		}
	],
	"accessors":[
		{
			"bufferView":0,
			"componentType":5126,
			"count":564,
			"max":[
				1.5741780996322632,
				7.1246562004089355,
				1.37931227684021
			],
			"min":[
				-1.3149707317352295,
				-0.27940797805786133,
				-1.894431710243225
			],
			"type":"VEC3"
		},
		{
			"bufferView":1,
			"componentType":5126,
			"count":564,
			"type":"VEC3"
		},
		{
			"bufferView":2,
			"componentType":5126,
			"count":564,
			"type":"VEC2"
		},
		{
			"bufferView":3,
			"componentType":5123,
			"count":852,
			"type":"SCALAR"
		}
	],
	"bufferViews":[
		{
			"buffer":0,
			"byteLength":6768,
			"byteOffset":0,
			"target":34962
		},
		{
			"buffer":0,
			"byteLength":6768,
			"byteOffset":6768,
			"target":34962
		},
		{
			"buffer":0,
			"byteLength":4512,
			"byteOffset":13536,
			"target":34962
		},
		{
			"buffer":0,
			"byteLength":1704,
			"byteOffset":18048,
			"target":34963
		}
	],
	"samplers":[
		{
			"magFilter":9729,
			"minFilter":9987
		}
	],
	"buffers":[
		{
			"byteLength":19752,
			"uri":"mushroom4.bin"
		}
	]
}
