{
	"asset":{
		"generator":"Khronos glTF Blender I/O v3.6.27",
		"version":"2.0"
	},
	"extensionsUsed":[
		"KHR_materials_unlit",
		"KHR_lights_punctual"
	],
	"extensionsRequired":[
		"KHR_lights_punctual"
	],
	"extensions":{
		"KHR_lights_punctual":{
			"lights":[
				{
					"color":[
						1,
						1,
						1
					],
					"intensity":163.92000651359558,
					"type":"directional",
					"name":"Sun"
				}
			]
		}
	},
	"scene":0,
	"scenes":[
		{
			"name":"Scene",
			"nodes":[
				0,
				1,
				2,
				3,
				4
			]
		}
	],
	"nodes":[
		{
			"camera":0,
			"name":"Camera",
			"rotation":[
				-0.1736481934785843,
				0,
				0,
				0.9848078489303589
			],
			"scale":[
				3.9605400562286377,
				3.9605398178100586,
				3.9605400562286377
			],
			"translation":[
				94.60748291015625,
				24.794973373413086,
				22.297496795654297
			]
		},
		{
			"mesh":0,
			"name":"mountain3",
			"rotation":[
				0,
				0.377412348985672,
				0,
				0.926045298576355
			],
			"scale":[
				24.57565689086914,
				24.57565689086914,
				24.57565689086914
			],
			"translation":[
				-1.2338008880615234,
				0.04264044761657715,
				-446.417724609375
			]
		},
		{
			"mesh":1,
			"name":"ground",
			"scale":[
				449.9129333496094,
				312.6116943359375,
				435.3342590332031
			],
			"translation":[
				-88.27519989013672,
				21,
				-26.12985610961914
			]
		},
		{
			"extensions":{
				"KHR_lights_punctual":{
					"light":0
				}
			},
			"name":"Sun",
			"rotation":[
				-0.7071068286895752,
				0,
				0,
				0.7071068286895752
			],
			"translation":[
				128.09141540527344,
				65.20970153808594,
				132.8285675048828
			]
		},
		{
			"mesh":2,
			"name":"Sphere",
			"scale":[
				-712.5672607421875,
				-712.5672607421875,
				-712.5672607421875
			],
			"translation":[
				0,
				-83.71676635742188,
				0
			]
		}
	],
	"cameras":[
		{
			"name":"Camera",
			"perspective":{
				"aspectRatio":1.7777777777777777,
				"yfov":0.39959652046304894,
				"zfar":1000,
				"znear":0.10000000149011612
			},
			"type":"perspective"
		}
	],
	"materials":[
		{
			"doubleSided":true,
			"extensions":{
				"KHR_materials_unlit":{}
			},
			"name":"Material.002",
			"pbrMetallicRoughness":{
				"baseColorTexture":{
					"index":0,
					"texCoord":0
				},
				"metallicFactor":0,
				"roughnessFactor":0.9
			}
		},
		{
			"doubleSided":true,
			"extensions":{
				"KHR_materials_unlit":{}
			},
			"name":"Material.001",
			"pbrMetallicRoughness":{
				"baseColorTexture":{
					"index":1,
					"texCoord":0
				},
				"metallicFactor":0,
				"roughnessFactor":0.9
			}
		},
		{
			"doubleSided":true,
			"name":"Material.004",
			"pbrMetallicRoughness":{
				"baseColorTexture":{
					"index":2
				},
				"metallicFactor":0,
				"roughnessFactor":0.5
			}
		}
	],
	"meshes":[
		{
			"name":"part.008",
			"primitives":[
				{
					"attributes":{
						"POSITION":0,
						"NORMAL":1,
						"TEXCOORD_0":2
					},
					"indices":3,
					"material":0
				}
			]
		},
		{
			"name":"Plane",
			"primitives":[
				{
					"attributes":{
						"POSITION":4,
						"NORMAL":5,
						"TEXCOORD_0":6
					},
					"indices":7,
					"material":1
				},
				{
					"attributes":{
						"POSITION":8,
						"NORMAL":9,
						"TEXCOORD_0":10
					},
					"indices":11,
					"material":0
				}
			]
		},
		{
			"name":"Sphere",
			"primitives":[
				{
					"attributes":{
						"POSITION":12,
						"NORMAL":13,
						"TEXCOORD_0":14
					},
					"indices":15,
					"material":2
				}
			]
		}
	],
	"textures":[
		{
			"sampler":0,
			"source":0
		},
		{
			"sampler":0,
			"source":1
		},
		{
			"sampler":0,
			"source":2
		}
	],
	"images":[
		{
			"mimeType":"image/png",
			"name":"mountain_texture",
			"uri":"mountain_texture.png"
		},
		{
			"mimeType":"image/png",
			"name":"ground_texture",
			"uri":"ground_texture.png"
		},
		{
			"mimeType":"image/png",
			"name":"stormy-sky_2",
			"uri":"stormy-sky_2.png"
		}
	],
	"accessors":[
		{
			"bufferView":0,
			"componentType":5126,
			"count":13874,
			"max":[
				8.260955810546875,
				6.775856018066406,
				32.53483581542969
			],
			"min":[
				-37.695556640625,
				-0.2360391616821289,
				-15.19058895111084
			],
			"type":"VEC3"
		},
		{
			"bufferView":1,
			"componentType":5126,
			"count":13874,
			"type":"VEC3"
		},
		{
			"bufferView":2,
			"componentType":5126,
			"count":13874,
			"type":"VEC2"
		},
		{
			"bufferView":3,
			"componentType":5123,
			"count":18030,
			"type":"SCALAR"
		},
		{
			"bufferView":4,
			"componentType":5126,
			"count":501,
			"max":[
				0.9217166304588318,
				0,
				0.920278012752533
			],
			"min":[
				-0.8420790433883667,
				0,
				-1
			],
			"type":"VEC3"
		},
		{
			"bufferView":5,
			"componentType":5126,
			"count":501,
			"type":"VEC3"
		},
		{
			"bufferView":6,
			"componentType":5126,
			"count":501,
			"type":"VEC2"
		},
		{
			"bufferView":7,
			"componentType":5123,
			"count":1680,
			"type":"SCALAR"
		},
		{
			"bufferView":8,
			"componentType":5126,
			"count":19,
			"max":[
				-0.23005488514900208,
				0,
				0.9159897565841675
			],
			"min":[
				-0.5196510553359985,
				-0.08559557050466537,
				-0.956803023815155
			],
			"type":"VEC3"
		},
		{
			"bufferView":9,
			"componentType":5126,
			"count":19,
			"type":"VEC3"
		},
		{
			"bufferView":10,
			"componentType":5126,
			"count":19,
			"type":"VEC2"
		},
		{
			"bufferView":11,
			"componentType":5123,
			"count":27,
			"type":"SCALAR"
		},
		{
			"bufferView":12,
			"componentType":5126,
			"count":992,
			"max":[
				0.9999997019767761,
				-4.371138828673793e-08,
				0.9999994039535522
			],
			"min":[
				-0.9999990463256836,
				-1,
				-0.9999987483024597
			],
			"type":"VEC3"
		},
		{
			"bufferView":13,
			"componentType":5126,
			"count":992,
			"type":"VEC3"
		},
		{
			"bufferView":14,
			"componentType":5126,
			"count":992,
			"type":"VEC2"
		},
		{
			"bufferView":15,
			"componentType":5123,
			"count":1440,
			"type":"SCALAR"
		}
	],
	"bufferViews":[
		{
			"buffer":0,
			"byteLength":166488,
			"byteOffset":0,
			"target":34962
		},
		{
			"buffer":0,
			"byteLength":166488,
			"byteOffset":166488,
			"target":34962
		},
		{
			"buffer":0,
			"byteLength":110992,
			"byteOffset":332976,
			"target":34962
		},
		{
			"buffer":0,
			"byteLength":36060,
			"byteOffset":443968,
			"target":34963
		},
		{
			"buffer":0,
			"byteLength":6012,
			"byteOffset":480028,
			"target":34962
		},
		{
			"buffer":0,
			"byteLength":6012,
			"byteOffset":486040,
			"target":34962
		},
		{
			"buffer":0,
			"byteLength":4008,
			"byteOffset":492052,
			"target":34962
		},
		{
			"buffer":0,
			"byteLength":3360,
			"byteOffset":496060,
			"target":34963
		},
		{
			"buffer":0,
			"byteLength":228,
			"byteOffset":499420,
			"target":34962
		},
		{
			"buffer":0,
			"byteLength":228,
			"byteOffset":499648,
			"target":34962
		},
		{
			"buffer":0,
			"byteLength":152,
			"byteOffset":499876,
			"target":34962
		},
		{
			"buffer":0,
			"byteLength":54,
			"byteOffset":500028,
			"target":34963
		},
		{
			"buffer":0,
			"byteLength":11904,
			"byteOffset":500084,
			"target":34962
		},
		{
			"buffer":0,
			"byteLength":11904,
			"byteOffset":511988,
			"target":34962
		},
		{
			"buffer":0,
			"byteLength":7936,
			"byteOffset":523892,
			"target":34962
		},
		{
			"buffer":0,
			"byteLength":2880,
			"byteOffset":531828,
			"target":34963
		}
	],
	"samplers":[
		{
			"magFilter":9729,
			"minFilter":9987
		}
	],
	"buffers":[
		{
			"byteLength":534708,
			"uri":"Proluxiraz.bin"
		}
	]
}
