{
	"asset":{
		"generator":"Khronos glTF Blender I/O v3.6.27",
		"version":"2.0"
	},
	"extensionsUsed":[
		"KHR_materials_unlit",
		"KHR_lights_punctual"
	],
	"extensionsRequired":[
		"KHR_lights_punctual"
	],
	"extensions":{
		"KHR_lights_punctual":{
			"lights":[
				{
					"color":[
						1,
						1,
						1
					],
					"intensity":163.92000651359558,
					"type":"directional",
					"name":"Sun"
				}
			]
		}
	},
	"scene":0,
	"scenes":[
		{
			"name":"Scene",
			"nodes":[
				0,
				1,
				2,
				3,
				4,
				5,
				6,
				7,
				8,
				9,
				10,
				11,
				12
			]
		}
	],
	"nodes":[
		{
			"camera":0,
			"name":"Camera",
			"rotation":[
				-0.1736481934785843,
				0,
				0,
				0.9848078489303589
			],
			"scale":[
				3.9605400562286377,
				3.9605398178100586,
				3.9605400562286377
			],
			"translation":[
				94.60748291015625,
				24.794973373413086,
				22.297496795654297
			]
		},
		{
			"mesh":0,
			"name":"mountain5",
			"rotation":[
				0,
				-0.12038496881723404,
				0,
				0.9927273988723755
			],
			"scale":[
				15.554666519165039,
				15.554666519165039,
				15.554666519165039
			],
			"translation":[
				373.1019287109375,
				0.8233098983764648,
				-51.99341583251953
			]
		},
		{
			"mesh":1,
			"name":"mountain9",
			"rotation":[
				0,
				-0.3863193988800049,
				0,
				0.9223650693893433
			],
			"scale":[
				11.613922119140625,
				11.613924026489258,
				11.613922119140625
			],
			"translation":[
				306.3592529296875,
				2.6896400451660156,
				96.2871322631836
			]
		},
		{
			"mesh":2,
			"name":"mountain4",
			"rotation":[
				0,
				0.15447504818439484,
				0,
				0.9879966974258423
			],
			"scale":[
				16.913293838500977,
				16.913288116455078,
				16.913293838500977
			],
			"translation":[
				276.22808837890625,
				-7.242304801940918,
				-261.8527526855469
			]
		},
		{
			"mesh":3,
			"name":"mountain6",
			"rotation":[
				0,
				0.729404091835022,
				0,
				0.6840831637382507
			],
			"scale":[
				16.91329002380371,
				16.913288116455078,
				16.91329002380371
			],
			"translation":[
				226.05545043945312,
				2.9498701095581055,
				316.7559814453125
			]
		},
		{
			"mesh":4,
			"name":"mountain1",
			"rotation":[
				0,
				-0.11736460775136948,
				0,
				0.993088960647583
			],
			"scale":[
				27.141698837280273,
				27.141700744628906,
				27.141698837280273
			],
			"translation":[
				-528.5440673828125,
				4.1256608963012695,
				28.690561294555664
			]
		},
		{
			"mesh":5,
			"name":"mountain8",
			"rotation":[
				0,
				0.04445052519440651,
				0,
				0.9990116953849792
			],
			"scale":[
				19.704946517944336,
				19.704946517944336,
				19.704946517944336
			],
			"translation":[
				-354.8858642578125,
				2.5400807857513428,
				300.5075378417969
			]
		},
		{
			"mesh":6,
			"name":"mountain7",
			"rotation":[
				0,
				0.3629871606826782,
				0,
				0.9317941665649414
			],
			"scale":[
				16.91329002380371,
				16.913288116455078,
				16.91329002380371
			],
			"translation":[
				-49.10120391845703,
				8.012499809265137,
				459.8765563964844
			]
		},
		{
			"mesh":7,
			"name":"mountain2",
			"rotation":[
				0,
				-0.7624877691268921,
				0,
				0.6470026969909668
			],
			"scale":[
				16.91329002380371,
				16.913288116455078,
				16.91329002380371
			],
			"translation":[
				-433.7273254394531,
				10.39725399017334,
				-357.6750183105469
			]
		},
		{
			"mesh":8,
			"name":"mountain3",
			"rotation":[
				0,
				0.377412348985672,
				0,
				0.926045298576355
			],
			"scale":[
				24.57565689086914,
				24.57565689086914,
				24.57565689086914
			],
			"translation":[
				-1.2338008880615234,
				0.04264044761657715,
				-446.417724609375
			]
		},
		{
			"mesh":9,
			"name":"ground",
			"scale":[
				449.9129333496094,
				312.6116943359375,
				435.3342590332031
			],
			"translation":[
				-88.27519989013672,
				21,
				-26.12985610961914
			]
		},
		{
			"extensions":{
				"KHR_lights_punctual":{
					"light":0
				}
			},
			"name":"Sun",
			"rotation":[
				-0.7071068286895752,
				0,
				0,
				0.7071068286895752
			],
			"translation":[
				128.09141540527344,
				65.20970153808594,
				132.8285675048828
			]
		},
		{
			"mesh":10,
			"name":"Sphere",
			"scale":[
				-712.5672607421875,
				-712.5672607421875,
				-712.5672607421875
			],
			"translation":[
				0,
				-83.71676635742188,
				0
			]
		}
	],
	"cameras":[
		{
			"name":"Camera",
			"perspective":{
				"aspectRatio":1.7777777777777777,
				"yfov":0.39959652046304894,
				"zfar":1000,
				"znear":0.10000000149011612
			},
			"type":"perspective"
		}
	],
	"materials":[
		{
			"doubleSided":true,
			"extensions":{
				"KHR_materials_unlit":{}
			},
			"name":"Material.002",
			"pbrMetallicRoughness":{
				"baseColorTexture":{
					"index":0,
					"texCoord":0
				},
				"metallicFactor":0,
				"roughnessFactor":0.9
			}
		},
		{
			"doubleSided":true,
			"extensions":{
				"KHR_materials_unlit":{}
			},
			"name":"Material.001",
			"pbrMetallicRoughness":{
				"baseColorTexture":{
					"index":1,
					"texCoord":0
				},
				"metallicFactor":0,
				"roughnessFactor":0.9
			}
		},
		{
			"doubleSided":true,
			"name":"Material.004",
			"pbrMetallicRoughness":{
				"baseColorTexture":{
					"index":2
				},
				"metallicFactor":0,
				"roughnessFactor":0.5
			}
		}
	],
	"meshes":[
		{
			"name":"part",
			"primitives":[
				{
					"attributes":{
						"POSITION":0,
						"NORMAL":1,
						"TEXCOORD_0":2
					},
					"indices":3,
					"material":0
				}
			]
		},
		{
			"name":"part.001",
			"primitives":[
				{
					"attributes":{
						"POSITION":4,
						"NORMAL":5,
						"TEXCOORD_0":6
					},
					"indices":7,
					"material":0
				}
			]
		},
		{
			"name":"part.002",
			"primitives":[
				{
					"attributes":{
						"POSITION":8,
						"NORMAL":9,
						"TEXCOORD_0":10
					},
					"indices":11,
					"material":0
				}
			]
		},
		{
			"name":"part.003",
			"primitives":[
				{
					"attributes":{
						"POSITION":12,
						"NORMAL":13,
						"TEXCOORD_0":14
					},
					"indices":15,
					"material":0
				}
			]
		},
		{
			"name":"part.004",
			"primitives":[
				{
					"attributes":{
						"POSITION":16,
						"NORMAL":17,
						"TEXCOORD_0":18
					},
					"indices":19,
					"material":0
				}
			]
		},
		{
			"name":"part.005",
			"primitives":[
				{
					"attributes":{
						"POSITION":20,
						"NORMAL":21,
						"TEXCOORD_0":22
					},
					"indices":23,
					"material":0
				}
			]
		},
		{
			"name":"part.006",
			"primitives":[
				{
					"attributes":{
						"POSITION":24,
						"NORMAL":25,
						"TEXCOORD_0":26
					},
					"indices":27,
					"material":0
				}
			]
		},
		{
			"name":"part.007",
			"primitives":[
				{
					"attributes":{
						"POSITION":28,
						"NORMAL":29,
						"TEXCOORD_0":30
					},
					"indices":19,
					"material":0
				}
			]
		},
		{
			"name":"part.008",
			"primitives":[
				{
					"attributes":{
						"POSITION":31,
						"NORMAL":32,
						"TEXCOORD_0":33
					},
					"indices":34,
					"material":0
				}
			]
		},
		{
			"name":"Plane",
			"primitives":[
				{
					"attributes":{
						"POSITION":35,
						"NORMAL":36,
						"TEXCOORD_0":37
					},
					"indices":38,
					"material":1
				}
			]
		},
		{
			"name":"Sphere",
			"primitives":[
				{
					"attributes":{
						"POSITION":39,
						"NORMAL":40,
						"TEXCOORD_0":41
					},
					"indices":42,
					"material":2
				}
			]
		}
	],
	"textures":[
		{
			"sampler":0,
			"source":0
		},
		{
			"sampler":0,
			"source":1
		},
		{
			"sampler":0,
			"source":2
		}
	],
	"images":[
		{
			"mimeType":"image/png",
			"name":"mountain_texture",
			"uri":"mountain_texture.png"
		},
		{
			"mimeType":"image/png",
			"name":"ground_texture",
			"uri":"ground_texture.png"
		},
		{
			"mimeType":"image/png",
			"name":"stormy-sky_2",
			"uri":"stormy-sky_2.png"
		}
	],
	"accessors":[
		{
			"bufferView":0,
			"componentType":5126,
			"count":995,
			"max":[
				7.535519599914551,
				5.984816551208496,
				5.982572078704834
			],
			"min":[
				-7.283005714416504,
				1.2971469163894653,
				-9.779263496398926
			],
			"type":"VEC3"
		},
		{
			"bufferView":1,
			"componentType":5126,
			"count":995,
			"type":"VEC3"
		},
		{
			"bufferView":2,
			"componentType":5126,
			"count":995,
			"type":"VEC2"
		},
		{
			"bufferView":3,
			"componentType":5123,
			"count":1095,
			"type":"SCALAR"
		},
		{
			"bufferView":4,
			"componentType":5126,
			"count":927,
			"max":[
				7.1766676902771,
				5.984816551208496,
				5.669040679931641
			],
			"min":[
				-6.783365726470947,
				1.5765866041183472,
				-9.512088775634766
			],
			"type":"VEC3"
		},
		{
			"bufferView":5,
			"componentType":5126,
			"count":927,
			"type":"VEC3"
		},
		{
			"bufferView":6,
			"componentType":5126,
			"count":927,
			"type":"VEC2"
		},
		{
			"bufferView":7,
			"componentType":5123,
			"count":1035,
			"type":"SCALAR"
		},
		{
			"bufferView":8,
			"componentType":5126,
			"count":916,
			"max":[
				7.09348726272583,
				5.984816551208496,
				5.5581955909729
			],
			"min":[
				-6.616647243499756,
				1.6698291301727295,
				-9.422938346862793
			],
			"type":"VEC3"
		},
		{
			"bufferView":9,
			"componentType":5126,
			"count":916,
			"type":"VEC3"
		},
		{
			"bufferView":10,
			"componentType":5126,
			"count":916,
			"type":"VEC2"
		},
		{
			"bufferView":11,
			"componentType":5123,
			"count":1026,
			"type":"SCALAR"
		},
		{
			"bufferView":12,
			"componentType":5126,
			"count":1053,
			"max":[
				7.863894939422607,
				5.984816551208496,
				6.223909378051758
			],
			"min":[
				-7.5531158447265625,
				1.0672158002853394,
				-9.999102592468262
			],
			"type":"VEC3"
		},
		{
			"bufferView":13,
			"componentType":5126,
			"count":1053,
			"type":"VEC3"
		},
		{
			"bufferView":14,
			"componentType":5126,
			"count":1053,
			"type":"VEC2"
		},
		{
			"bufferView":15,
			"componentType":5123,
			"count":1155,
			"type":"SCALAR"
		},
		{
			"bufferView":16,
			"componentType":5126,
			"count":1224,
			"max":[
				9.055218696594238,
				5.984816551208496,
				7.158069610595703
			],
			"min":[
				-8.315252304077148,
				0.6217126846313477,
				-10.728523254394531
			],
			"type":"VEC3"
		},
		{
			"bufferView":17,
			"componentType":5126,
			"count":1224,
			"type":"VEC3"
		},
		{
			"bufferView":18,
			"componentType":5126,
			"count":1224,
			"type":"VEC2"
		},
		{
			"bufferView":19,
			"componentType":5123,
			"count":1320,
			"type":"SCALAR"
		},
		{
			"bufferView":20,
			"componentType":5126,
			"count":1104,
			"max":[
				8.050125122070312,
				5.984816551208496,
				6.360777854919434
			],
			"min":[
				-7.697182655334473,
				0.936816394329071,
				-10.123779296875
			],
			"type":"VEC3"
		},
		{
			"bufferView":21,
			"componentType":5126,
			"count":1104,
			"type":"VEC3"
		},
		{
			"bufferView":22,
			"componentType":5126,
			"count":1104,
			"type":"VEC2"
		},
		{
			"bufferView":23,
			"componentType":5123,
			"count":1206,
			"type":"SCALAR"
		},
		{
			"bufferView":24,
			"componentType":5126,
			"count":1164,
			"max":[
				8.552739143371582,
				5.984816551208496,
				6.675736904144287
			],
			"min":[
				-8.001606941223145,
				0.7678872346878052,
				-10.407549858093262
			],
			"type":"VEC3"
		},
		{
			"bufferView":25,
			"componentType":5126,
			"count":1164,
			"type":"VEC3"
		},
		{
			"bufferView":26,
			"componentType":5126,
			"count":1164,
			"type":"VEC2"
		},
		{
			"bufferView":27,
			"componentType":5123,
			"count":1266,
			"type":"SCALAR"
		},
		{
			"bufferView":28,
			"componentType":5126,
			"count":1224,
			"max":[
				9.037426948547363,
				5.984816551208496,
				7.1409912109375
			],
			"min":[
				-8.304146766662598,
				0.6268883943557739,
				-10.717158317565918
			],
			"type":"VEC3"
		},
		{
			"bufferView":29,
			"componentType":5126,
			"count":1224,
			"type":"VEC3"
		},
		{
			"bufferView":30,
			"componentType":5126,
			"count":1224,
			"type":"VEC2"
		},
		{
			"bufferView":31,
			"componentType":5126,
			"count":1145,
			"max":[
				8.260955810546875,
				5.984816551208496,
				6.449679374694824
			],
			"min":[
				-7.8194780349731445,
				0.8527688980102539,
				-10.22116470336914
			],
			"type":"VEC3"
		},
		{
			"bufferView":32,
			"componentType":5126,
			"count":1145,
			"type":"VEC3"
		},
		{
			"bufferView":33,
			"componentType":5126,
			"count":1145,
			"type":"VEC2"
		},
		{
			"bufferView":34,
			"componentType":5123,
			"count":1245,
			"type":"SCALAR"
		},
		{
			"bufferView":35,
			"componentType":5126,
			"count":4,
			"max":[
				1,
				0,
				1
			],
			"min":[
				-1,
				0,
				-1
			],
			"type":"VEC3"
		},
		{
			"bufferView":36,
			"componentType":5126,
			"count":4,
			"type":"VEC3"
		},
		{
			"bufferView":37,
			"componentType":5126,
			"count":4,
			"type":"VEC2"
		},
		{
			"bufferView":38,
			"componentType":5123,
			"count":6,
			"type":"SCALAR"
		},
		{
			"bufferView":39,
			"componentType":5126,
			"count":992,
			"max":[
				0.9999997019767761,
				-4.371138828673793e-08,
				0.9999994039535522
			],
			"min":[
				-0.9999990463256836,
				-1,
				-0.9999987483024597
			],
			"type":"VEC3"
		},
		{
			"bufferView":40,
			"componentType":5126,
			"count":992,
			"type":"VEC3"
		},
		{
			"bufferView":41,
			"componentType":5126,
			"count":992,
			"type":"VEC2"
		},
		{
			"bufferView":42,
			"componentType":5123,
			"count":1440,
			"type":"SCALAR"
		}
	],
	"bufferViews":[
		{
			"buffer":0,
			"byteLength":11940,
			"byteOffset":0,
			"target":34962
		},
		{
			"buffer":0,
			"byteLength":11940,
			"byteOffset":11940,
			"target":34962
		},
		{
			"buffer":0,
			"byteLength":7960,
			"byteOffset":23880,
			"target":34962
		},
		{
			"buffer":0,
			"byteLength":2190,
			"byteOffset":31840,
			"target":34963
		},
		{
			"buffer":0,
			"byteLength":11124,
			"byteOffset":34032,
			"target":34962
		},
		{
			"buffer":0,
			"byteLength":11124,
			"byteOffset":45156,
			"target":34962
		},
		{
			"buffer":0,
			"byteLength":7416,
			"byteOffset":56280,
			"target":34962
		},
		{
			"buffer":0,
			"byteLength":2070,
			"byteOffset":63696,
			"target":34963
		},
		{
			"buffer":0,
			"byteLength":10992,
			"byteOffset":65768,
			"target":34962
		},
		{
			"buffer":0,
			"byteLength":10992,
			"byteOffset":76760,
			"target":34962
		},
		{
			"buffer":0,
			"byteLength":7328,
			"byteOffset":87752,
			"target":34962
		},
		{
			"buffer":0,
			"byteLength":2052,
			"byteOffset":95080,
			"target":34963
		},
		{
			"buffer":0,
			"byteLength":12636,
			"byteOffset":97132,
			"target":34962
		},
		{
			"buffer":0,
			"byteLength":12636,
			"byteOffset":109768,
			"target":34962
		},
		{
			"buffer":0,
			"byteLength":8424,
			"byteOffset":122404,
			"target":34962
		},
		{
			"buffer":0,
			"byteLength":2310,
			"byteOffset":130828,
			"target":34963
		},
		{
			"buffer":0,
			"byteLength":14688,
			"byteOffset":133140,
			"target":34962
		},
		{
			"buffer":0,
			"byteLength":14688,
			"byteOffset":147828,
			"target":34962
		},
		{
			"buffer":0,
			"byteLength":9792,
			"byteOffset":162516,
			"target":34962
		},
		{
			"buffer":0,
			"byteLength":2640,
			"byteOffset":172308,
			"target":34963
		},
		{
			"buffer":0,
			"byteLength":13248,
			"byteOffset":174948,
			"target":34962
		},
		{
			"buffer":0,
			"byteLength":13248,
			"byteOffset":188196,
			"target":34962
		},
		{
			"buffer":0,
			"byteLength":8832,
			"byteOffset":201444,
			"target":34962
		},
		{
			"buffer":0,
			"byteLength":2412,
			"byteOffset":210276,
			"target":34963
		},
		{
			"buffer":0,
			"byteLength":13968,
			"byteOffset":212688,
			"target":34962
		},
		{
			"buffer":0,
			"byteLength":13968,
			"byteOffset":226656,
			"target":34962
		},
		{
			"buffer":0,
			"byteLength":9312,
			"byteOffset":240624,
			"target":34962
		},
		{
			"buffer":0,
			"byteLength":2532,
			"byteOffset":249936,
			"target":34963
		},
		{
			"buffer":0,
			"byteLength":14688,
			"byteOffset":252468,
			"target":34962
		},
		{
			"buffer":0,
			"byteLength":14688,
			"byteOffset":267156,
			"target":34962
		},
		{
			"buffer":0,
			"byteLength":9792,
			"byteOffset":281844,
			"target":34962
		},
		{
			"buffer":0,
			"byteLength":13740,
			"byteOffset":291636,
			"target":34962
		},
		{
			"buffer":0,
			"byteLength":13740,
			"byteOffset":305376,
			"target":34962
		},
		{
			"buffer":0,
			"byteLength":9160,
			"byteOffset":319116,
			"target":34962
		},
		{
			"buffer":0,
			"byteLength":2490,
			"byteOffset":328276,
			"target":34963
		},
		{
			"buffer":0,
			"byteLength":48,
			"byteOffset":330768,
			"target":34962
		},
		{
			"buffer":0,
			"byteLength":48,
			"byteOffset":330816,
			"target":34962
		},
		{
			"buffer":0,
			"byteLength":32,
			"byteOffset":330864,
			"target":34962
		},
		{
			"buffer":0,
			"byteLength":12,
			"byteOffset":330896,
			"target":34963
		},
		{
			"buffer":0,
			"byteLength":11904,
			"byteOffset":330908,
			"target":34962
		},
		{
			"buffer":0,
			"byteLength":11904,
			"byteOffset":342812,
			"target":34962
		},
		{
			"buffer":0,
			"byteLength":7936,
			"byteOffset":354716,
			"target":34962
		},
		{
			"buffer":0,
			"byteLength":2880,
			"byteOffset":362652,
			"target":34963
		}
	],
	"samplers":[
		{
			"magFilter":9729,
			"minFilter":9987
		}
	],
	"buffers":[
		{
			"byteLength":365532,
			"uri":"Proluxiraz.bin"
		}
	]
}
