{
	"asset":{
		"generator":"Khronos glTF Blender I/O v3.6.27",
		"version":"2.0"
	},
	"extensionsUsed":[
		"KHR_materials_unlit",
		"KHR_lights_punctual"
	],
	"extensionsRequired":[
		"KHR_lights_punctual"
	],
	"extensions":{
		"KHR_lights_punctual":{
			"lights":[
				{
					"color":[
						1,
						1,
						1
					],
					"intensity":163.92000651359558,
					"type":"directional",
					"name":"Sun"
				}
			]
		}
	},
	"scene":0,
	"scenes":[
		{
			"name":"Scene",
			"nodes":[
				0,
				1,
				2,
				3,
				4,
				5,
				6,
				7,
				8,
				9,
				10,
				11,
				12
			]
		}
	],
	"nodes":[
		{
			"camera":0,
			"name":"Camera",
			"rotation":[
				-0.1736481934785843,
				0,
				0,
				0.9848078489303589
			],
			"scale":[
				3.9605400562286377,
				3.9605398178100586,
				3.9605400562286377
			],
			"translation":[
				94.60748291015625,
				24.794973373413086,
				22.297496795654297
			]
		},
		{
			"mesh":0,
			"name":"mountain5",
			"rotation":[
				0,
				-0.12038496881723404,
				0,
				0.9927273988723755
			],
			"scale":[
				15.554666519165039,
				15.554666519165039,
				15.554666519165039
			],
			"translation":[
				373.1019287109375,
				0.8233098983764648,
				-51.99341583251953
			]
		},
		{
			"mesh":1,
			"name":"mountain9",
			"rotation":[
				0,
				-0.3863193988800049,
				0,
				0.9223650693893433
			],
			"scale":[
				11.613922119140625,
				11.613924026489258,
				11.613922119140625
			],
			"translation":[
				306.3592529296875,
				2.6896400451660156,
				96.2871322631836
			]
		},
		{
			"mesh":2,
			"name":"mountain4",
			"rotation":[
				0,
				0.15447504818439484,
				0,
				0.9879966974258423
			],
			"scale":[
				16.913293838500977,
				16.913288116455078,
				16.913293838500977
			],
			"translation":[
				276.22808837890625,
				-7.242304801940918,
				-261.8527526855469
			]
		},
		{
			"mesh":3,
			"name":"mountain6",
			"rotation":[
				0,
				0.729404091835022,
				0,
				0.6840831637382507
			],
			"scale":[
				16.91329002380371,
				16.913288116455078,
				16.91329002380371
			],
			"translation":[
				226.05545043945312,
				2.9498701095581055,
				316.7559814453125
			]
		},
		{
			"mesh":4,
			"name":"mountain1",
			"rotation":[
				0,
				-0.11736460775136948,
				0,
				0.993088960647583
			],
			"scale":[
				27.141698837280273,
				27.141700744628906,
				27.141698837280273
			],
			"translation":[
				-528.5440673828125,
				4.1256608963012695,
				28.690561294555664
			]
		},
		{
			"mesh":5,
			"name":"mountain8",
			"rotation":[
				0,
				0.04445052519440651,
				0,
				0.9990116953849792
			],
			"scale":[
				19.704946517944336,
				19.704946517944336,
				19.704946517944336
			],
			"translation":[
				-354.8858642578125,
				2.5400807857513428,
				300.5075378417969
			]
		},
		{
			"mesh":6,
			"name":"mountain7",
			"rotation":[
				0,
				0.3629871606826782,
				0,
				0.9317941665649414
			],
			"scale":[
				16.91329002380371,
				16.913288116455078,
				16.91329002380371
			],
			"translation":[
				-49.10120391845703,
				8.012499809265137,
				459.8765563964844
			]
		},
		{
			"mesh":7,
			"name":"mountain2",
			"rotation":[
				0,
				-0.7624877691268921,
				0,
				0.6470026969909668
			],
			"scale":[
				16.91329002380371,
				16.913288116455078,
				16.91329002380371
			],
			"translation":[
				-433.7273254394531,
				10.39725399017334,
				-357.6750183105469
			]
		},
		{
			"mesh":8,
			"name":"mountain3",
			"rotation":[
				0,
				0.377412348985672,
				0,
				0.926045298576355
			],
			"scale":[
				24.57565689086914,
				24.57565689086914,
				24.57565689086914
			],
			"translation":[
				-1.2338008880615234,
				0.04264044761657715,
				-446.417724609375
			]
		},
		{
			"mesh":9,
			"name":"ground",
			"scale":[
				449.9129333496094,
				312.6116943359375,
				435.3342590332031
			],
			"translation":[
				20.849088668823242,
				21.035545349121094,
				-9.448596954345703
			]
		},
		{
			"extensions":{
				"KHR_lights_punctual":{
					"light":0
				}
			},
			"name":"Sun",
			"rotation":[
				-0.7071068286895752,
				0,
				0,
				0.7071068286895752
			],
			"translation":[
				128.09141540527344,
				65.20970153808594,
				132.8285675048828
			]
		},
		{
			"mesh":10,
			"name":"Sphere",
			"scale":[
				-712.5672607421875,
				-712.5672607421875,
				-712.5672607421875
			],
			"translation":[
				0,
				-83.71676635742188,
				0
			]
		}
	],
	"cameras":[
		{
			"name":"Camera",
			"perspective":{
				"aspectRatio":1.7777777777777777,
				"yfov":0.39959652046304894,
				"zfar":1000,
				"znear":0.10000000149011612
			},
			"type":"perspective"
		}
	],
	"materials":[
		{
			"doubleSided":true,
			"extensions":{
				"KHR_materials_unlit":{}
			},
			"name":"Material.002",
			"pbrMetallicRoughness":{
				"baseColorTexture":{
					"index":0,
					"texCoord":0
				},
				"metallicFactor":0,
				"roughnessFactor":0.9
			}
		},
		{
			"doubleSided":true,
			"extensions":{
				"KHR_materials_unlit":{}
			},
			"name":"Material.001",
			"pbrMetallicRoughness":{
				"baseColorTexture":{
					"index":1,
					"texCoord":0
				},
				"metallicFactor":0,
				"roughnessFactor":0.9
			}
		},
		{
			"doubleSided":true,
			"name":"Material.004",
			"pbrMetallicRoughness":{
				"baseColorTexture":{
					"index":2
				},
				"metallicFactor":0,
				"roughnessFactor":0.5
			}
		}
	],
	"meshes":[
		{
			"name":"part",
			"primitives":[
				{
					"attributes":{
						"POSITION":0,
						"NORMAL":1,
						"TEXCOORD_0":2
					},
					"indices":3,
					"material":0
				}
			]
		},
		{
			"name":"part.001",
			"primitives":[
				{
					"attributes":{
						"POSITION":4,
						"NORMAL":5,
						"TEXCOORD_0":6
					},
					"indices":3,
					"material":0
				}
			]
		},
		{
			"name":"part.002",
			"primitives":[
				{
					"attributes":{
						"POSITION":7,
						"NORMAL":8,
						"TEXCOORD_0":9
					},
					"indices":3,
					"material":0
				}
			]
		},
		{
			"name":"part.003",
			"primitives":[
				{
					"attributes":{
						"POSITION":10,
						"NORMAL":11,
						"TEXCOORD_0":12
					},
					"indices":3,
					"material":0
				}
			]
		},
		{
			"name":"part.004",
			"primitives":[
				{
					"attributes":{
						"POSITION":13,
						"NORMAL":14,
						"TEXCOORD_0":15
					},
					"indices":3,
					"material":0
				}
			]
		},
		{
			"name":"part.005",
			"primitives":[
				{
					"attributes":{
						"POSITION":16,
						"NORMAL":17,
						"TEXCOORD_0":18
					},
					"indices":3,
					"material":0
				}
			]
		},
		{
			"name":"part.006",
			"primitives":[
				{
					"attributes":{
						"POSITION":19,
						"NORMAL":20,
						"TEXCOORD_0":21
					},
					"indices":3,
					"material":0
				}
			]
		},
		{
			"name":"part.007",
			"primitives":[
				{
					"attributes":{
						"POSITION":22,
						"NORMAL":23,
						"TEXCOORD_0":24
					},
					"indices":3,
					"material":0
				}
			]
		},
		{
			"name":"part.008",
			"primitives":[
				{
					"attributes":{
						"POSITION":25,
						"NORMAL":26,
						"TEXCOORD_0":27
					},
					"indices":3,
					"material":0
				}
			]
		},
		{
			"name":"Plane",
			"primitives":[
				{
					"attributes":{
						"POSITION":28,
						"NORMAL":29,
						"TEXCOORD_0":30
					},
					"indices":31,
					"material":1
				}
			]
		},
		{
			"name":"Sphere",
			"primitives":[
				{
					"attributes":{
						"POSITION":32,
						"NORMAL":33,
						"TEXCOORD_0":34
					},
					"indices":35,
					"material":2
				}
			]
		}
	],
	"textures":[
		{
			"sampler":0,
			"source":0
		},
		{
			"sampler":0,
			"source":1
		},
		{
			"sampler":0,
			"source":2
		}
	],
	"images":[
		{
			"mimeType":"image/png",
			"name":"mountain_texture",
			"uri":"mountain_texture.png"
		},
		{
			"mimeType":"image/png",
			"name":"ground_texture",
			"uri":"ground_texture.png"
		},
		{
			"mimeType":"image/png",
			"name":"stormy-sky_2",
			"uri":"stormy-sky_2.png"
		}
	],
	"accessors":[
		{
			"bufferView":0,
			"componentType":5126,
			"count":2264,
			"max":[
				15.019490242004395,
				5.984816551208496,
				16.22105598449707
			],
			"min":[
				-14.618976593017578,
				0.000502003007568419,
				-17.022090911865234
			],
			"type":"VEC3"
		},
		{
			"bufferView":1,
			"componentType":5126,
			"count":2264,
			"type":"VEC3"
		},
		{
			"bufferView":2,
			"componentType":5126,
			"count":2264,
			"type":"VEC2"
		},
		{
			"bufferView":3,
			"componentType":5123,
			"count":2850,
			"type":"SCALAR"
		},
		{
			"bufferView":4,
			"componentType":5126,
			"count":2264,
			"max":[
				15.019490242004395,
				5.984816551208496,
				16.22105598449707
			],
			"min":[
				-14.618976593017578,
				0.000502003007568419,
				-17.022090911865234
			],
			"type":"VEC3"
		},
		{
			"bufferView":5,
			"componentType":5126,
			"count":2264,
			"type":"VEC3"
		},
		{
			"bufferView":6,
			"componentType":5126,
			"count":2264,
			"type":"VEC2"
		},
		{
			"bufferView":7,
			"componentType":5126,
			"count":2264,
			"max":[
				15.019490242004395,
				5.984816551208496,
				16.22105598449707
			],
			"min":[
				-14.618976593017578,
				0.000502003007568419,
				-17.022090911865234
			],
			"type":"VEC3"
		},
		{
			"bufferView":8,
			"componentType":5126,
			"count":2264,
			"type":"VEC3"
		},
		{
			"bufferView":9,
			"componentType":5126,
			"count":2264,
			"type":"VEC2"
		},
		{
			"bufferView":10,
			"componentType":5126,
			"count":2264,
			"max":[
				15.019490242004395,
				5.984816551208496,
				16.22105598449707
			],
			"min":[
				-14.618976593017578,
				0.000502003007568419,
				-17.022090911865234
			],
			"type":"VEC3"
		},
		{
			"bufferView":11,
			"componentType":5126,
			"count":2264,
			"type":"VEC3"
		},
		{
			"bufferView":12,
			"componentType":5126,
			"count":2264,
			"type":"VEC2"
		},
		{
			"bufferView":13,
			"componentType":5126,
			"count":2264,
			"max":[
				15.019490242004395,
				5.984816551208496,
				16.22105598449707
			],
			"min":[
				-14.618976593017578,
				0.000502003007568419,
				-17.022090911865234
			],
			"type":"VEC3"
		},
		{
			"bufferView":14,
			"componentType":5126,
			"count":2264,
			"type":"VEC3"
		},
		{
			"bufferView":15,
			"componentType":5126,
			"count":2264,
			"type":"VEC2"
		},
		{
			"bufferView":16,
			"componentType":5126,
			"count":2264,
			"max":[
				15.019490242004395,
				5.984816551208496,
				16.22105598449707
			],
			"min":[
				-14.618976593017578,
				0.000502003007568419,
				-17.022090911865234
			],
			"type":"VEC3"
		},
		{
			"bufferView":17,
			"componentType":5126,
			"count":2264,
			"type":"VEC3"
		},
		{
			"bufferView":18,
			"componentType":5126,
			"count":2264,
			"type":"VEC2"
		},
		{
			"bufferView":19,
			"componentType":5126,
			"count":2264,
			"max":[
				15.019490242004395,
				5.984816551208496,
				16.22105598449707
			],
			"min":[
				-14.618976593017578,
				0.000502003007568419,
				-17.022090911865234
			],
			"type":"VEC3"
		},
		{
			"bufferView":20,
			"componentType":5126,
			"count":2264,
			"type":"VEC3"
		},
		{
			"bufferView":21,
			"componentType":5126,
			"count":2264,
			"type":"VEC2"
		},
		{
			"bufferView":22,
			"componentType":5126,
			"count":2264,
			"max":[
				15.019490242004395,
				5.984816551208496,
				16.22105598449707
			],
			"min":[
				-14.618976593017578,
				0.000502003007568419,
				-17.022090911865234
			],
			"type":"VEC3"
		},
		{
			"bufferView":23,
			"componentType":5126,
			"count":2264,
			"type":"VEC3"
		},
		{
			"bufferView":24,
			"componentType":5126,
			"count":2264,
			"type":"VEC2"
		},
		{
			"bufferView":25,
			"componentType":5126,
			"count":2264,
			"max":[
				15.019490242004395,
				5.984816551208496,
				16.22105598449707
			],
			"min":[
				-14.618976593017578,
				0.000502003007568419,
				-17.022090911865234
			],
			"type":"VEC3"
		},
		{
			"bufferView":26,
			"componentType":5126,
			"count":2264,
			"type":"VEC3"
		},
		{
			"bufferView":27,
			"componentType":5126,
			"count":2264,
			"type":"VEC2"
		},
		{
			"bufferView":28,
			"componentType":5126,
			"count":4,
			"max":[
				1,
				0,
				1
			],
			"min":[
				-1,
				0,
				-1
			],
			"type":"VEC3"
		},
		{
			"bufferView":29,
			"componentType":5126,
			"count":4,
			"type":"VEC3"
		},
		{
			"bufferView":30,
			"componentType":5126,
			"count":4,
			"type":"VEC2"
		},
		{
			"bufferView":31,
			"componentType":5123,
			"count":6,
			"type":"SCALAR"
		},
		{
			"bufferView":32,
			"componentType":5126,
			"count":992,
			"max":[
				0.9999997019767761,
				-4.371138828673793e-08,
				0.9999994039535522
			],
			"min":[
				-0.9999990463256836,
				-1,
				-0.9999987483024597
			],
			"type":"VEC3"
		},
		{
			"bufferView":33,
			"componentType":5126,
			"count":992,
			"type":"VEC3"
		},
		{
			"bufferView":34,
			"componentType":5126,
			"count":992,
			"type":"VEC2"
		},
		{
			"bufferView":35,
			"componentType":5123,
			"count":1440,
			"type":"SCALAR"
		}
	],
	"bufferViews":[
		{
			"buffer":0,
			"byteLength":27168,
			"byteOffset":0,
			"target":34962
		},
		{
			"buffer":0,
			"byteLength":27168,
			"byteOffset":27168,
			"target":34962
		},
		{
			"buffer":0,
			"byteLength":18112,
			"byteOffset":54336,
			"target":34962
		},
		{
			"buffer":0,
			"byteLength":5700,
			"byteOffset":72448,
			"target":34963
		},
		{
			"buffer":0,
			"byteLength":27168,
			"byteOffset":78148,
			"target":34962
		},
		{
			"buffer":0,
			"byteLength":27168,
			"byteOffset":105316,
			"target":34962
		},
		{
			"buffer":0,
			"byteLength":18112,
			"byteOffset":132484,
			"target":34962
		},
		{
			"buffer":0,
			"byteLength":27168,
			"byteOffset":150596,
			"target":34962
		},
		{
			"buffer":0,
			"byteLength":27168,
			"byteOffset":177764,
			"target":34962
		},
		{
			"buffer":0,
			"byteLength":18112,
			"byteOffset":204932,
			"target":34962
		},
		{
			"buffer":0,
			"byteLength":27168,
			"byteOffset":223044,
			"target":34962
		},
		{
			"buffer":0,
			"byteLength":27168,
			"byteOffset":250212,
			"target":34962
		},
		{
			"buffer":0,
			"byteLength":18112,
			"byteOffset":277380,
			"target":34962
		},
		{
			"buffer":0,
			"byteLength":27168,
			"byteOffset":295492,
			"target":34962
		},
		{
			"buffer":0,
			"byteLength":27168,
			"byteOffset":322660,
			"target":34962
		},
		{
			"buffer":0,
			"byteLength":18112,
			"byteOffset":349828,
			"target":34962
		},
		{
			"buffer":0,
			"byteLength":27168,
			"byteOffset":367940,
			"target":34962
		},
		{
			"buffer":0,
			"byteLength":27168,
			"byteOffset":395108,
			"target":34962
		},
		{
			"buffer":0,
			"byteLength":18112,
			"byteOffset":422276,
			"target":34962
		},
		{
			"buffer":0,
			"byteLength":27168,
			"byteOffset":440388,
			"target":34962
		},
		{
			"buffer":0,
			"byteLength":27168,
			"byteOffset":467556,
			"target":34962
		},
		{
			"buffer":0,
			"byteLength":18112,
			"byteOffset":494724,
			"target":34962
		},
		{
			"buffer":0,
			"byteLength":27168,
			"byteOffset":512836,
			"target":34962
		},
		{
			"buffer":0,
			"byteLength":27168,
			"byteOffset":540004,
			"target":34962
		},
		{
			"buffer":0,
			"byteLength":18112,
			"byteOffset":567172,
			"target":34962
		},
		{
			"buffer":0,
			"byteLength":27168,
			"byteOffset":585284,
			"target":34962
		},
		{
			"buffer":0,
			"byteLength":27168,
			"byteOffset":612452,
			"target":34962
		},
		{
			"buffer":0,
			"byteLength":18112,
			"byteOffset":639620,
			"target":34962
		},
		{
			"buffer":0,
			"byteLength":48,
			"byteOffset":657732,
			"target":34962
		},
		{
			"buffer":0,
			"byteLength":48,
			"byteOffset":657780,
			"target":34962
		},
		{
			"buffer":0,
			"byteLength":32,
			"byteOffset":657828,
			"target":34962
		},
		{
			"buffer":0,
			"byteLength":12,
			"byteOffset":657860,
			"target":34963
		},
		{
			"buffer":0,
			"byteLength":11904,
			"byteOffset":657872,
			"target":34962
		},
		{
			"buffer":0,
			"byteLength":11904,
			"byteOffset":669776,
			"target":34962
		},
		{
			"buffer":0,
			"byteLength":7936,
			"byteOffset":681680,
			"target":34962
		},
		{
			"buffer":0,
			"byteLength":2880,
			"byteOffset":689616,
			"target":34963
		}
	],
	"samplers":[
		{
			"magFilter":9729,
			"minFilter":9987
		}
	],
	"buffers":[
		{
			"byteLength":692496,
			"uri":"Proluxiraz.bin"
		}
	]
}
