{
	"asset":{
		"generator":"Khronos glTF Blender I/O v4.0.44",
		"version":"2.0"
	},
	"scene":0,
	"scenes":[
		{
			"name":"Scene",
			"nodes":[
				0,
				1,
				2,
				3
			]
		}
	],
	"nodes":[
		{
			"name":"Empty",
			"rotation":[
				0.5,
				0.5,
				-0.5,
				0.5
			],
			"translation":[
				-13.70810317993164,
				0,
				0
			]
		},
		{
			"mesh":0,
			"name":"sapceship3",
			"rotation":[
				0.057531166821718216,
				-0.0037696438375860453,
				-0.1059010773897171,
				0.992703914642334
			],
			"scale":[
				1.352038860321045,
				0.36411991715431213,
				2.153935194015503
			],
			"translation":[
				0,
				-0.3346041142940521,
				6.777848243713379
			]
		},
		{
			"mesh":1,
			"name":"spaceship2",
			"scale":[
				0.1853501796722412,
				0.031596723943948746,
				0.1853501796722412
			],
			"translation":[
				-1.860366702079773,
				0,
				1.1314010620117188
			]
		},
		{
			"mesh":2,
			"name":"spaceship1",
			"scale":[
				0.1853501796722412,
				0.031596723943948746,
				0.1853501796722412
			],
			"translation":[
				-1.860366702079773,
				0,
				-10.792536735534668
			]
		}
	],
	"materials":[
		{
			"doubleSided":true,
			"name":"Material.001",
			"pbrMetallicRoughness":{
				"baseColorTexture":{
					"index":0
				},
				"metallicFactor":0,
				"roughnessFactor":0.5
			}
		},
		{
			"doubleSided":true,
			"name":"Material.002",
			"pbrMetallicRoughness":{
				"baseColorTexture":{
					"index":1
				},
				"metallicFactor":0,
				"roughnessFactor":0.5
			}
		},
		{
			"doubleSided":true,
			"name":"Material.003",
			"pbrMetallicRoughness":{
				"baseColorTexture":{
					"index":2
				},
				"metallicFactor":0,
				"roughnessFactor":0.5
			}
		},
		{
			"doubleSided":true,
			"name":"Material",
			"pbrMetallicRoughness":{
				"baseColorTexture":{
					"index":3
				},
				"metallicFactor":0,
				"roughnessFactor":0.4000000059604645
			}
		}
	],
	"meshes":[
		{
			"name":"Cube.003",
			"primitives":[
				{
					"attributes":{
						"POSITION":0,
						"NORMAL":1,
						"TEXCOORD_0":2
					},
					"indices":3,
					"material":0
				}
			]
		},
		{
			"name":"Cube.001",
			"primitives":[
				{
					"attributes":{
						"POSITION":4,
						"NORMAL":5,
						"TEXCOORD_0":6
					},
					"indices":7,
					"material":1
				}
			]
		},
		{
			"name":"Cube.002",
			"primitives":[
				{
					"attributes":{
						"POSITION":8,
						"NORMAL":9,
						"TEXCOORD_0":10
					},
					"indices":11,
					"material":2
				},
				{
					"attributes":{
						"POSITION":12,
						"NORMAL":13,
						"TEXCOORD_0":14
					},
					"indices":15,
					"material":3
				}
			]
		}
	],
	"textures":[
		{
			"sampler":0,
			"source":0
		},
		{
			"sampler":0,
			"source":1
		},
		{
			"sampler":0,
			"source":1
		},
		{
			"sampler":0,
			"source":2
		}
	],
	"images":[
		{
			"mimeType":"image/png",
			"name":"shapeship2",
			"uri":"shapeship2.png"
		},
		{
			"mimeType":"image/png",
			"name":"spaceship3",
			"uri":"spaceship3.png"
		},
		{
			"mimeType":"image/png",
			"name":"spaceship1",
			"uri":"spaceship1.png"
		}
	],
	"accessors":[
		{
			"bufferView":0,
			"componentType":5126,
			"count":1517,
			"max":[
				1.7260912656784058,
				3.335306167602539,
				1.7164450883865356
			],
			"min":[
				-3.1801955699920654,
				-1.733420968055725,
				-1.3824280500411987
			],
			"type":"VEC3"
		},
		{
			"bufferView":1,
			"componentType":5126,
			"count":1517,
			"type":"VEC3"
		},
		{
			"bufferView":2,
			"componentType":5126,
			"count":1517,
			"type":"VEC2"
		},
		{
			"bufferView":3,
			"componentType":5123,
			"count":2538,
			"type":"SCALAR"
		},
		{
			"bufferView":4,
			"componentType":5126,
			"count":2493,
			"max":[
				17.097503662109375,
				26.55472755432129,
				6.321805953979492
			],
			"min":[
				-1.6190972328186035,
				-31.778886795043945,
				-17.54155731201172
			],
			"type":"VEC3"
		},
		{
			"bufferView":5,
			"componentType":5126,
			"count":2493,
			"type":"VEC3"
		},
		{
			"bufferView":6,
			"componentType":5126,
			"count":2493,
			"type":"VEC2"
		},
		{
			"bufferView":7,
			"componentType":5123,
			"count":4608,
			"type":"SCALAR"
		},
		{
			"bufferView":8,
			"componentType":5126,
			"count":1387,
			"max":[
				25.267742156982422,
				1.6600499153137207,
				38.23807907104492
			],
			"min":[
				-1.0853970050811768,
				-1.308762788772583,
				13.093764305114746
			],
			"type":"VEC3"
		},
		{
			"bufferView":9,
			"componentType":5126,
			"count":1387,
			"type":"VEC3"
		},
		{
			"bufferView":10,
			"componentType":5126,
			"count":1387,
			"type":"VEC2"
		},
		{
			"bufferView":11,
			"componentType":5123,
			"count":2916,
			"type":"SCALAR"
		},
		{
			"bufferView":12,
			"componentType":5126,
			"count":1620,
			"max":[
				17.892879486083984,
				47.803611755371094,
				33.386993408203125
			],
			"min":[
				3.4666075706481934,
				-27.829919815063477,
				14.733102798461914
			],
			"type":"VEC3"
		},
		{
			"bufferView":13,
			"componentType":5126,
			"count":1620,
			"type":"VEC3"
		},
		{
			"bufferView":14,
			"componentType":5126,
			"count":1620,
			"type":"VEC2"
		},
		{
			"bufferView":15,
			"componentType":5123,
			"count":2796,
			"type":"SCALAR"
		}
	],
	"bufferViews":[
		{
			"buffer":0,
			"byteLength":18204,
			"byteOffset":0,
			"target":34962
		},
		{
			"buffer":0,
			"byteLength":18204,
			"byteOffset":18204,
			"target":34962
		},
		{
			"buffer":0,
			"byteLength":12136,
			"byteOffset":36408,
			"target":34962
		},
		{
			"buffer":0,
			"byteLength":5076,
			"byteOffset":48544,
			"target":34963
		},
		{
			"buffer":0,
			"byteLength":29916,
			"byteOffset":53620,
			"target":34962
		},
		{
			"buffer":0,
			"byteLength":29916,
			"byteOffset":83536,
			"target":34962
		},
		{
			"buffer":0,
			"byteLength":19944,
			"byteOffset":113452,
			"target":34962
		},
		{
			"buffer":0,
			"byteLength":9216,
			"byteOffset":133396,
			"target":34963
		},
		{
			"buffer":0,
			"byteLength":16644,
			"byteOffset":142612,
			"target":34962
		},
		{
			"buffer":0,
			"byteLength":16644,
			"byteOffset":159256,
			"target":34962
		},
		{
			"buffer":0,
			"byteLength":11096,
			"byteOffset":175900,
			"target":34962
		},
		{
			"buffer":0,
			"byteLength":5832,
			"byteOffset":186996,
			"target":34963
		},
		{
			"buffer":0,
			"byteLength":19440,
			"byteOffset":192828,
			"target":34962
		},
		{
			"buffer":0,
			"byteLength":19440,
			"byteOffset":212268,
			"target":34962
		},
		{
			"buffer":0,
			"byteLength":12960,
			"byteOffset":231708,
			"target":34962
		},
		{
			"buffer":0,
			"byteLength":5592,
			"byteOffset":244668,
			"target":34963
		}
	],
	"samplers":[
		{
			"magFilter":9729,
			"minFilter":9987
		}
	],
	"buffers":[
		{
			"byteLength":250260,
			"uri":"spaceships_wrecked.bin"
		}
	]
}
