{
	"asset":{
		"generator":"Khronos glTF Blender I/O v4.0.44",
		"version":"2.0"
	},
	"scene":0,
	"scenes":[
		{
			"name":"Scene",
			"nodes":[
				0
			]
		}
	],
	"nodes":[
		{
			"mesh":0,
			"name":"Curve",
			"scale":[
				272.6980895996094,
				272.6980895996094,
				272.6980895996094
			],
			"translation":[
				-2.504690647125244,
				0,
				-3.8945326805114746
			]
		}
	],
	"materials":[
		{
			"doubleSided":true,
			"name":"yellow",
			"pbrMetallicRoughness":{
				"baseColorTexture":{
					"index":0
				},
				"metallicFactor":0,
				"roughnessFactor":0.5
			}
		}
	],
	"meshes":[
		{
			"name":"Curve.009",
			"primitives":[
				{
					"attributes":{
						"POSITION":0,
						"NORMAL":1,
						"TEXCOORD_0":2
					},
					"indices":3,
					"material":0
				}
			]
		}
	],
	"textures":[
		{
			"sampler":0,
			"source":0
		}
	],
	"images":[
		{
			"mimeType":"image/png",
			"name":"starfire_midi",
			"uri":"starfire_midi.png"
		}
	],
	"accessors":[
		{
			"bufferView":0,
			"componentType":5126,
			"count":5458,
			"max":[
				0.05831875652074814,
				0.0005779882776550949,
				-0.004043761175125837
			],
			"min":[
				0.001991912256926298,
				0,
				-0.04068188741803169
			],
			"type":"VEC3"
		},
		{
			"bufferView":1,
			"componentType":5126,
			"count":5458,
			"type":"VEC3"
		},
		{
			"bufferView":2,
			"componentType":5126,
			"count":5458,
			"type":"VEC2"
		},
		{
			"bufferView":3,
			"componentType":5123,
			"count":10896,
			"type":"SCALAR"
		}
	],
	"bufferViews":[
		{
			"buffer":0,
			"byteLength":65496,
			"byteOffset":0,
			"target":34962
		},
		{
			"buffer":0,
			"byteLength":65496,
			"byteOffset":65496,
			"target":34962
		},
		{
			"buffer":0,
			"byteLength":43664,
			"byteOffset":130992,
			"target":34962
		},
		{
			"buffer":0,
			"byteLength":21792,
			"byteOffset":174656,
			"target":34963
		}
	],
	"samplers":[
		{
			"magFilter":9729,
			"minFilter":9987
		}
	],
	"buffers":[
		{
			"byteLength":196448,
			"uri":"starfire.bin"
		}
	]
}
