{
	"asset":{
		"generator":"Khronos glTF Blender I/O v4.0.43",
		"version":"2.0"
	},
	"scene":0,
	"scenes":[
		{
			"name":"Scene",
			"nodes":[
				0,
				1,
				2
			]
		}
	],
	"nodes":[
		{
			"mesh":0,
			"name":"Sphere",
			"scale":[
				0.38377001881599426,
				0.38377001881599426,
				0.38377001881599426
			],
			"translation":[
				0,
				0.11554989218711853,
				0
			]
		},
		{
			"mesh":1,
			"name":"Sphere.001",
			"rotation":[
				-0.10660260915756226,
				0.031172143295407295,
				-0.04751837998628616,
				0.9926763772964478
			],
			"scale":[
				0.46392932534217834,
				0.4639294743537903,
				0.46392935514450073
			],
			"translation":[
				0.11486977338790894,
				1.582885980606079,
				-0.22171226143836975
			]
		},
		{
			"mesh":2,
			"name":"Sphere.002",
			"rotation":[
				0.16880744695663452,
				0.0024735110346227884,
				0.21797940135002136,
				0.961240291595459
			],
			"scale":[
				0.2825697958469391,
				0.2825697362422943,
				0.2825697362422943
			],
			"translation":[
				-0.4493449926376343,
				1.2756000757217407,
				0.2699629068374634
			]
		}
	],
	"materials":[
		{
			"doubleSided":true,
			"name":"Material.001",
			"pbrMetallicRoughness":{
				"baseColorFactor":[
					0.44347792863845825,
					0.24507983028888702,
					0.2360873520374298,
					1
				],
				"metallicFactor":0,
				"roughnessFactor":0.857798159122467
			}
		},
		{
			"doubleSided":true,
			"name":"Material.003",
			"pbrMetallicRoughness":{
				"baseColorFactor":[
					0.18380923569202423,
					0.37077921628952026,
					0.8002588152885437,
					1
				],
				"metallicFactor":0,
				"roughnessFactor":0.8119266033172607
			}
		},
		{
			"doubleSided":true,
			"name":"Material.002",
			"pbrMetallicRoughness":{
				"baseColorFactor":[
					0.18157944083213806,
					0.6873643398284912,
					0.800054669380188,
					1
				],
				"metallicFactor":0,
				"roughnessFactor":0.8394495248794556
			}
		}
	],
	"meshes":[
		{
			"name":"Sphere",
			"primitives":[
				{
					"attributes":{
						"POSITION":0,
						"NORMAL":1,
						"TEXCOORD_0":2
					},
					"indices":3,
					"material":0
				}
			]
		},
		{
			"name":"Sphere.002",
			"primitives":[
				{
					"attributes":{
						"POSITION":4,
						"NORMAL":5,
						"TEXCOORD_0":6
					},
					"indices":7,
					"material":1
				}
			]
		},
		{
			"name":"Sphere.003",
			"primitives":[
				{
					"attributes":{
						"POSITION":8,
						"NORMAL":9,
						"TEXCOORD_0":10
					},
					"indices":11,
					"material":2
				}
			]
		}
	],
	"accessors":[
		{
			"bufferView":0,
			"componentType":5126,
			"count":384,
			"max":[
				0.866025447845459,
				3.7977542877197266,
				1
			],
			"min":[
				-1.339583158493042,
				-1,
				-1
			],
			"type":"VEC3"
		},
		{
			"bufferView":1,
			"componentType":5126,
			"count":384,
			"type":"VEC3"
		},
		{
			"bufferView":2,
			"componentType":5126,
			"count":384,
			"type":"VEC2"
		},
		{
			"bufferView":3,
			"componentType":5123,
			"count":552,
			"type":"SCALAR"
		},
		{
			"bufferView":4,
			"componentType":5126,
			"count":132,
			"max":[
				1.01923668384552,
				0.9602171778678894,
				0.9842411279678345
			],
			"min":[
				-0.9070326685905457,
				-1.0779584646224976,
				-1.115096926689148
			],
			"type":"VEC3"
		},
		{
			"bufferView":5,
			"componentType":5126,
			"count":132,
			"type":"VEC3"
		},
		{
			"bufferView":6,
			"componentType":5126,
			"count":132,
			"type":"VEC2"
		},
		{
			"bufferView":7,
			"componentType":5123,
			"count":180,
			"type":"SCALAR"
		},
		{
			"bufferView":8,
			"componentType":5126,
			"count":132,
			"max":[
				0.745924174785614,
				0.9348259568214417,
				1.137974500656128
			],
			"min":[
				-0.930779755115509,
				-1.1831719875335693,
				-0.763498842716217
			],
			"type":"VEC3"
		},
		{
			"bufferView":9,
			"componentType":5126,
			"count":132,
			"type":"VEC3"
		},
		{
			"bufferView":10,
			"componentType":5126,
			"count":132,
			"type":"VEC2"
		},
		{
			"bufferView":11,
			"componentType":5123,
			"count":180,
			"type":"SCALAR"
		}
	],
	"bufferViews":[
		{
			"buffer":0,
			"byteLength":4608,
			"byteOffset":0,
			"target":34962
		},
		{
			"buffer":0,
			"byteLength":4608,
			"byteOffset":4608,
			"target":34962
		},
		{
			"buffer":0,
			"byteLength":3072,
			"byteOffset":9216,
			"target":34962
		},
		{
			"buffer":0,
			"byteLength":1104,
			"byteOffset":12288,
			"target":34963
		},
		{
			"buffer":0,
			"byteLength":1584,
			"byteOffset":13392,
			"target":34962
		},
		{
			"buffer":0,
			"byteLength":1584,
			"byteOffset":14976,
			"target":34962
		},
		{
			"buffer":0,
			"byteLength":1056,
			"byteOffset":16560,
			"target":34962
		},
		{
			"buffer":0,
			"byteLength":360,
			"byteOffset":17616,
			"target":34963
		},
		{
			"buffer":0,
			"byteLength":1584,
			"byteOffset":17976,
			"target":34962
		},
		{
			"buffer":0,
			"byteLength":1584,
			"byteOffset":19560,
			"target":34962
		},
		{
			"buffer":0,
			"byteLength":1056,
			"byteOffset":21144,
			"target":34962
		},
		{
			"buffer":0,
			"byteLength":360,
			"byteOffset":22200,
			"target":34963
		}
	],
	"buffers":[
		{
			"byteLength":22560,
			"uri":"tinyMushroom02.bin"
		}
	]
}
