{
	"asset":{
		"generator":"Khronos glTF Blender I/O v4.0.43",
		"version":"2.0"
	},
	"scene":0,
	"scenes":[
		{
			"name":"Scene",
			"nodes":[
				0,
				1,
				2,
				3,
				4,
				5
			]
		}
	],
	"nodes":[
		{
			"mesh":0,
			"name":"Sphere",
			"rotation":[
				0.03086126409471035,
				0.0069295563735067844,
				0.035955511033535004,
				0.9988527297973633
			],
			"scale":[
				0.574135959148407,
				0.574135959148407,
				0.574135959148407
			],
			"translation":[
				-0.8810054063796997,
				0.07141497731208801,
				0.2534511387348175
			]
		},
		{
			"mesh":1,
			"name":"Sphere.001",
			"rotation":[
				0.04776538163423538,
				0.01123448833823204,
				0.05162787064909935,
				0.9974601864814758
			],
			"scale":[
				0.5741360187530518,
				0.5741358995437622,
				0.574135959148407
			],
			"translation":[
				-0.9937382936477661,
				1.6431992053985596,
				0.3515782058238983
			]
		},
		{
			"mesh":2,
			"name":"Sphere.002",
			"rotation":[
				-0.04133708402514458,
				-0.016577184200286865,
				-0.003994798753410578,
				0.9989997744560242
			],
			"scale":[
				0.42705196142196655,
				0.42705196142196655,
				0.42705196142196655
			],
			"translation":[
				-0.09976765513420105,
				0.07079914212226868,
				-0.7063257694244385
			]
		},
		{
			"mesh":3,
			"name":"Sphere.003",
			"rotation":[
				0.015328249894082546,
				-0.010615699924528599,
				-0.004612588789314032,
				0.9998155236244202
			],
			"scale":[
				0.42705196142196655,
				0.42705193161964417,
				0.42705196142196655
			],
			"translation":[
				-0.0887846052646637,
				1.2411410808563232,
				-0.8031649589538574
			]
		},
		{
			"mesh":4,
			"name":"Sphere.004",
			"rotation":[
				0.01787942461669445,
				0.01789749041199684,
				-0.015476762317121029,
				0.9995602369308472
			],
			"scale":[
				0.3316313922405243,
				0.3316313624382019,
				0.3316313624382019
			],
			"translation":[
				0.2994757294654846,
				0.05661281943321228,
				0.3678581416606903
			]
		},
		{
			"mesh":5,
			"name":"Sphere.005",
			"rotation":[
				-0.02130432426929474,
				-0.01373049896210432,
				0.021741513162851334,
				0.9994423985481262
			],
			"scale":[
				0.3316313624382019,
				0.3316313624382019,
				0.3316313624382019
			],
			"translation":[
				0.3282761573791504,
				0.9675787687301636,
				0.3999501168727875
			]
		}
	],
	"materials":[
		{
			"doubleSided":true,
			"name":"Material.007",
			"pbrMetallicRoughness":{
				"baseColorTexture":{
					"index":0
				},
				"metallicFactor":0,
				"roughnessFactor":0.8853211402893066
			}
		}
	],
	"meshes":[
		{
			"name":"Sphere",
			"primitives":[
				{
					"attributes":{
						"POSITION":0,
						"NORMAL":1,
						"TEXCOORD_0":2
					},
					"indices":3,
					"material":0
				}
			]
		},
		{
			"name":"Sphere.001",
			"primitives":[
				{
					"attributes":{
						"POSITION":4,
						"NORMAL":5,
						"TEXCOORD_0":6
					},
					"indices":7,
					"material":0
				}
			]
		},
		{
			"name":"Sphere.002",
			"primitives":[
				{
					"attributes":{
						"POSITION":8,
						"NORMAL":9,
						"TEXCOORD_0":10
					},
					"indices":3,
					"material":0
				}
			]
		},
		{
			"name":"Sphere.003",
			"primitives":[
				{
					"attributes":{
						"POSITION":11,
						"NORMAL":12,
						"TEXCOORD_0":13
					},
					"indices":14,
					"material":0
				}
			]
		},
		{
			"name":"Sphere.004",
			"primitives":[
				{
					"attributes":{
						"POSITION":15,
						"NORMAL":16,
						"TEXCOORD_0":17
					},
					"indices":3,
					"material":0
				}
			]
		},
		{
			"name":"Sphere.005",
			"primitives":[
				{
					"attributes":{
						"POSITION":18,
						"NORMAL":19,
						"TEXCOORD_0":20
					},
					"indices":21,
					"material":0
				}
			]
		}
	],
	"textures":[
		{
			"sampler":0,
			"source":0
		}
	],
	"images":[
		{
			"mimeType":"image/png",
			"name":"tinyCluster1texture",
			"uri":"tinyCluster1texture.png"
		}
	],
	"accessors":[
		{
			"bufferView":0,
			"componentType":5126,
			"count":168,
			"max":[
				0.866025447845459,
				3,
				1
			],
			"min":[
				-0.8660255074501038,
				-1,
				-1
			],
			"type":"VEC3"
		},
		{
			"bufferView":1,
			"componentType":5126,
			"count":168,
			"type":"VEC3"
		},
		{
			"bufferView":2,
			"componentType":5126,
			"count":168,
			"type":"VEC2"
		},
		{
			"bufferView":3,
			"componentType":5123,
			"count":240,
			"type":"SCALAR"
		},
		{
			"bufferView":4,
			"componentType":5126,
			"count":132,
			"max":[
				1.1721055507659912,
				1.2294702529907227,
				1.3311545848846436
			],
			"min":[
				-1.1596415042877197,
				-1.2431445121765137,
				-1.321736216545105
			],
			"type":"VEC3"
		},
		{
			"bufferView":5,
			"componentType":5126,
			"count":132,
			"type":"VEC3"
		},
		{
			"bufferView":6,
			"componentType":5126,
			"count":132,
			"type":"VEC2"
		},
		{
			"bufferView":7,
			"componentType":5123,
			"count":180,
			"type":"SCALAR"
		},
		{
			"bufferView":8,
			"componentType":5126,
			"count":168,
			"max":[
				0.866025447845459,
				3,
				1
			],
			"min":[
				-0.8660255074501038,
				-1,
				-1
			],
			"type":"VEC3"
		},
		{
			"bufferView":9,
			"componentType":5126,
			"count":168,
			"type":"VEC3"
		},
		{
			"bufferView":10,
			"componentType":5126,
			"count":168,
			"type":"VEC2"
		},
		{
			"bufferView":11,
			"componentType":5126,
			"count":132,
			"max":[
				1.1509928703308105,
				1.1929856538772583,
				1.2895525693893433
			],
			"min":[
				-1.1184409856796265,
				-1.2954763174057007,
				-1.3664783239364624
			],
			"type":"VEC3"
		},
		{
			"bufferView":12,
			"componentType":5126,
			"count":132,
			"type":"VEC3"
		},
		{
			"bufferView":13,
			"componentType":5126,
			"count":132,
			"type":"VEC2"
		},
		{
			"bufferView":14,
			"componentType":5123,
			"count":180,
			"type":"SCALAR"
		},
		{
			"bufferView":15,
			"componentType":5126,
			"count":168,
			"max":[
				0.866025447845459,
				3,
				1
			],
			"min":[
				-0.8660255074501038,
				-1,
				-1
			],
			"type":"VEC3"
		},
		{
			"bufferView":16,
			"componentType":5126,
			"count":168,
			"type":"VEC3"
		},
		{
			"bufferView":17,
			"componentType":5126,
			"count":168,
			"type":"VEC2"
		},
		{
			"bufferView":18,
			"componentType":5126,
			"count":132,
			"max":[
				1.171380639076233,
				1.342387318611145,
				1.3038030862808228
			],
			"min":[
				-1.1592442989349365,
				-1.318621039390564,
				-1.3078380823135376
			],
			"type":"VEC3"
		},
		{
			"bufferView":19,
			"componentType":5126,
			"count":132,
			"type":"VEC3"
		},
		{
			"bufferView":20,
			"componentType":5126,
			"count":132,
			"type":"VEC2"
		},
		{
			"bufferView":21,
			"componentType":5123,
			"count":180,
			"type":"SCALAR"
		}
	],
	"bufferViews":[
		{
			"buffer":0,
			"byteLength":2016,
			"byteOffset":0,
			"target":34962
		},
		{
			"buffer":0,
			"byteLength":2016,
			"byteOffset":2016,
			"target":34962
		},
		{
			"buffer":0,
			"byteLength":1344,
			"byteOffset":4032,
			"target":34962
		},
		{
			"buffer":0,
			"byteLength":480,
			"byteOffset":5376,
			"target":34963
		},
		{
			"buffer":0,
			"byteLength":1584,
			"byteOffset":5856,
			"target":34962
		},
		{
			"buffer":0,
			"byteLength":1584,
			"byteOffset":7440,
			"target":34962
		},
		{
			"buffer":0,
			"byteLength":1056,
			"byteOffset":9024,
			"target":34962
		},
		{
			"buffer":0,
			"byteLength":360,
			"byteOffset":10080,
			"target":34963
		},
		{
			"buffer":0,
			"byteLength":2016,
			"byteOffset":10440,
			"target":34962
		},
		{
			"buffer":0,
			"byteLength":2016,
			"byteOffset":12456,
			"target":34962
		},
		{
			"buffer":0,
			"byteLength":1344,
			"byteOffset":14472,
			"target":34962
		},
		{
			"buffer":0,
			"byteLength":1584,
			"byteOffset":15816,
			"target":34962
		},
		{
			"buffer":0,
			"byteLength":1584,
			"byteOffset":17400,
			"target":34962
		},
		{
			"buffer":0,
			"byteLength":1056,
			"byteOffset":18984,
			"target":34962
		},
		{
			"buffer":0,
			"byteLength":360,
			"byteOffset":20040,
			"target":34963
		},
		{
			"buffer":0,
			"byteLength":2016,
			"byteOffset":20400,
			"target":34962
		},
		{
			"buffer":0,
			"byteLength":2016,
			"byteOffset":22416,
			"target":34962
		},
		{
			"buffer":0,
			"byteLength":1344,
			"byteOffset":24432,
			"target":34962
		},
		{
			"buffer":0,
			"byteLength":1584,
			"byteOffset":25776,
			"target":34962
		},
		{
			"buffer":0,
			"byteLength":1584,
			"byteOffset":27360,
			"target":34962
		},
		{
			"buffer":0,
			"byteLength":1056,
			"byteOffset":28944,
			"target":34962
		},
		{
			"buffer":0,
			"byteLength":360,
			"byteOffset":30000,
			"target":34963
		}
	],
	"samplers":[
		{
			"magFilter":9729,
			"minFilter":9987
		}
	],
	"buffers":[
		{
			"byteLength":30360,
			"uri":"tinyMushroomCluster01.bin"
		}
	]
}
