{
	"asset":{
		"generator":"Khronos glTF Blender I/O v4.0.43",
		"version":"2.0"
	},
	"scene":0,
	"scenes":[
		{
			"name":"Scene",
			"nodes":[
				0,
				1
			]
		}
	],
	"nodes":[
		{
			"mesh":0,
			"name":"Cone",
			"scale":[
				0.761364221572876,
				0.761364221572876,
				0.761364221572876
			],
			"translation":[
				0,
				0.7148242592811584,
				0
			]
		},
		{
			"mesh":1,
			"name":"Sphere",
			"scale":[
				0.9542505741119385,
				0.9542505741119385,
				0.9542505741119385
			],
			"translation":[
				0,
				1.15633225440979,
				0
			]
		}
	],
	"materials":[
		{
			"doubleSided":true,
			"name":"Material.002",
			"pbrMetallicRoughness":{
				"baseColorFactor":[
					0.20371262729167938,
					0.13374708592891693,
					0.09089328348636627,
					1
				],
				"metallicFactor":0,
				"roughnessFactor":0.8669724464416504
			}
		},
		{
			"doubleSided":true,
			"name":"Material.001",
			"pbrMetallicRoughness":{
				"baseColorFactor":[
					0.2282046377658844,
					0.8001194596290588,
					0.2829579710960388,
					1
				],
				"metallicFactor":0,
				"roughnessFactor":0.8027522563934326
			}
		}
	],
	"meshes":[
		{
			"name":"Cone",
			"primitives":[
				{
					"attributes":{
						"POSITION":0,
						"NORMAL":1,
						"TEXCOORD_0":2
					},
					"indices":3,
					"material":0
				}
			]
		},
		{
			"name":"Sphere.001",
			"primitives":[
				{
					"attributes":{
						"POSITION":4,
						"NORMAL":5,
						"TEXCOORD_0":6
					},
					"indices":7,
					"material":1
				}
			]
		}
	],
	"accessors":[
		{
			"bufferView":0,
			"componentType":5126,
			"count":168,
			"max":[
				0.4330127239227295,
				0.75,
				0.5
			],
			"min":[
				-0.4330127537250519,
				-1.25,
				-0.5
			],
			"type":"VEC3"
		},
		{
			"bufferView":1,
			"componentType":5126,
			"count":168,
			"type":"VEC3"
		},
		{
			"bufferView":2,
			"componentType":5126,
			"count":168,
			"type":"VEC2"
		},
		{
			"bufferView":3,
			"componentType":5123,
			"count":240,
			"type":"SCALAR"
		},
		{
			"bufferView":4,
			"componentType":5126,
			"count":132,
			"max":[
				0.45227310061454773,
				0.45237234234809875,
				0.5135887265205383
			],
			"min":[
				-0.46755972504615784,
				-0.47403350472450256,
				-0.5217903852462769
			],
			"type":"VEC3"
		},
		{
			"bufferView":5,
			"componentType":5126,
			"count":132,
			"type":"VEC3"
		},
		{
			"bufferView":6,
			"componentType":5126,
			"count":132,
			"type":"VEC2"
		},
		{
			"bufferView":7,
			"componentType":5123,
			"count":180,
			"type":"SCALAR"
		}
	],
	"bufferViews":[
		{
			"buffer":0,
			"byteLength":2016,
			"byteOffset":0,
			"target":34962
		},
		{
			"buffer":0,
			"byteLength":2016,
			"byteOffset":2016,
			"target":34962
		},
		{
			"buffer":0,
			"byteLength":1344,
			"byteOffset":4032,
			"target":34962
		},
		{
			"buffer":0,
			"byteLength":480,
			"byteOffset":5376,
			"target":34963
		},
		{
			"buffer":0,
			"byteLength":1584,
			"byteOffset":5856,
			"target":34962
		},
		{
			"buffer":0,
			"byteLength":1584,
			"byteOffset":7440,
			"target":34962
		},
		{
			"buffer":0,
			"byteLength":1056,
			"byteOffset":9024,
			"target":34962
		},
		{
			"buffer":0,
			"byteLength":360,
			"byteOffset":10080,
			"target":34963
		}
	],
	"buffers":[
		{
			"byteLength":10440,
			"uri":"tinyMushroom01.bin"
		}
	]
}
