{
	"asset":{
		"generator":"Khronos glTF Blender I/O v4.0.43",
		"version":"2.0"
	},
	"scene":0,
	"scenes":[
		{
			"name":"Scene",
			"nodes":[
				0
			]
		}
	],
	"nodes":[
		{
			"mesh":0,
			"name":"Cylinder",
			"translation":[
				0,
				1,
				0
			]
		}
	],
	"materials":[
		{
			"doubleSided":true,
			"name":"Material.001",
			"pbrMetallicRoughness":{
				"baseColorFactor":[
					0.09168609976768494,
					0.06140407174825668,
					0.04610096290707588,
					1
				],
				"metallicFactor":0,
				"roughnessFactor":0.5
			}
		},
		{
			"doubleSided":true,
			"name":"Material.003",
			"pbrMetallicRoughness":{
				"baseColorFactor":[
					0.22326567769050598,
					0.11192750930786133,
					0.07226664572954178,
					1
				],
				"metallicFactor":0,
				"roughnessFactor":0.5
			}
		},
		{
			"doubleSided":true,
			"name":"Material.004",
			"pbrMetallicRoughness":{
				"baseColorFactor":[
					0.16536656022071838,
					0.08385199308395386,
					0.05464421212673187,
					1
				],
				"metallicFactor":0,
				"roughnessFactor":0.8211009502410889
			}
		}
	],
	"meshes":[
		{
			"name":"Cylinder.002",
			"primitives":[
				{
					"attributes":{
						"POSITION":0,
						"NORMAL":1,
						"TEXCOORD_0":2
					},
					"indices":3,
					"material":0
				},
				{
					"attributes":{
						"POSITION":4,
						"NORMAL":5,
						"TEXCOORD_0":6
					},
					"indices":7,
					"material":1
				},
				{
					"attributes":{
						"POSITION":8,
						"NORMAL":9,
						"TEXCOORD_0":10
					},
					"indices":11,
					"material":2
				}
			]
		}
	],
	"accessors":[
		{
			"bufferView":0,
			"componentType":5126,
			"count":392,
			"max":[
				2.136505126953125,
				1.0791035890579224,
				2.5067341327667236
			],
			"min":[
				-2.06119704246521,
				-1.0755010843276978,
				-2.2995123863220215
			],
			"type":"VEC3"
		},
		{
			"bufferView":1,
			"componentType":5126,
			"count":392,
			"type":"VEC3"
		},
		{
			"bufferView":2,
			"componentType":5126,
			"count":392,
			"type":"VEC2"
		},
		{
			"bufferView":3,
			"componentType":5123,
			"count":600,
			"type":"SCALAR"
		},
		{
			"bufferView":4,
			"componentType":5126,
			"count":41,
			"max":[
				0.8319185972213745,
				0.9757261872291565,
				0.8319185972213745
			],
			"min":[
				-0.8319185972213745,
				0.9757261872291565,
				-0.8319185972213745
			],
			"type":"VEC3"
		},
		{
			"bufferView":5,
			"componentType":5126,
			"count":41,
			"type":"VEC3"
		},
		{
			"bufferView":6,
			"componentType":5126,
			"count":41,
			"type":"VEC2"
		},
		{
			"bufferView":7,
			"componentType":5123,
			"count":120,
			"type":"SCALAR"
		},
		{
			"bufferView":8,
			"componentType":5126,
			"count":32,
			"max":[
				0.6154401302337646,
				0.9757261872291565,
				0.6154401302337646
			],
			"min":[
				-0.6154401302337646,
				0.9757261872291565,
				-0.6154401302337646
			],
			"type":"VEC3"
		},
		{
			"bufferView":9,
			"componentType":5126,
			"count":32,
			"type":"VEC3"
		},
		{
			"bufferView":10,
			"componentType":5126,
			"count":32,
			"type":"VEC2"
		},
		{
			"bufferView":11,
			"componentType":5123,
			"count":96,
			"type":"SCALAR"
		}
	],
	"bufferViews":[
		{
			"buffer":0,
			"byteLength":4704,
			"byteOffset":0,
			"target":34962
		},
		{
			"buffer":0,
			"byteLength":4704,
			"byteOffset":4704,
			"target":34962
		},
		{
			"buffer":0,
			"byteLength":3136,
			"byteOffset":9408,
			"target":34962
		},
		{
			"buffer":0,
			"byteLength":1200,
			"byteOffset":12544,
			"target":34963
		},
		{
			"buffer":0,
			"byteLength":492,
			"byteOffset":13744,
			"target":34962
		},
		{
			"buffer":0,
			"byteLength":492,
			"byteOffset":14236,
			"target":34962
		},
		{
			"buffer":0,
			"byteLength":328,
			"byteOffset":14728,
			"target":34962
		},
		{
			"buffer":0,
			"byteLength":240,
			"byteOffset":15056,
			"target":34963
		},
		{
			"buffer":0,
			"byteLength":384,
			"byteOffset":15296,
			"target":34962
		},
		{
			"buffer":0,
			"byteLength":384,
			"byteOffset":15680,
			"target":34962
		},
		{
			"buffer":0,
			"byteLength":256,
			"byteOffset":16064,
			"target":34962
		},
		{
			"buffer":0,
			"byteLength":192,
			"byteOffset":16320,
			"target":34963
		}
	],
	"buffers":[
		{
			"byteLength":16512,
			"uri":"treeStump.bin"
		}
	]
}
