{
    "asset" : {
        "generator" : "Khronos glTF Blender I/O v1.6.16",
        "version" : "2.0"
    },
    "scene" : 0,
    "scenes" : [
        {
            "name" : "Scene",
            "nodes" : [
                0,
                1,
                2,
                29
            ]
        }
    ],
    "nodes" : [
        {
            "mesh" : 0,
            "name" : "Cube",
            "scale" : [
                2.941882610321045,
                2.941882610321045,
                2.941882610321045
            ],
            "translation" : [
                0,
                25.388391494750977,
                -2.1997568607330322
            ]
        },
        {
            "name" : "Light",
            "rotation" : [
                0.16907575726509094,
                0.7558803558349609,
                -0.27217137813568115,
                0.570947527885437
            ],
            "translation" : [
                4.076245307922363,
                5.903861999511719,
                -1.0054539442062378
            ]
        },
        {
            "name" : "Camera",
            "rotation" : [
                0.483536034822464,
                0.33687159419059753,
                -0.20870360732078552,
                0.7804827094078064
            ],
            "translation" : [
                7.358891487121582,
                4.958309173583984,
                6.925790786743164
            ]
        },
        {
            "name" : "face",
            "rotation" : [
                0,
                -3.6111189327119927e-35,
                -1.194111449738176e-21,
                1
            ],
            "translation" : [
                -3.573502826499754e-36,
                -0.09689915180206299,
                1.862645149230957e-09
            ]
        },
        {
            "children" : [
                3
            ],
            "name" : "spine.006",
            "rotation" : [
                -0.03683360666036606,
                -1.68349366900925e-22,
                -1.375063267185903e-21,
                0.9993214011192322
            ],
            "translation" : [
                -3.441044361467176e-30,
                0.15893010795116425,
                1.0638502523363513e-08
            ]
        },
        {
            "children" : [
                4
            ],
            "name" : "spine.005",
            "rotation" : [
                -0.151423379778862,
                -7.185110520485808e-21,
                -1.831285383828988e-21,
                0.9884690046310425
            ],
            "translation" : [
                2.6505726415425997e-28,
                0.06616348773241043,
                -7.450580596923828e-09
            ]
        },
        {
            "children" : [
                5
            ],
            "name" : "spine.004",
            "rotation" : [
                0.21587102115154266,
                2.7751586090447346e-14,
                -6.135423437613743e-15,
                0.9764218926429749
            ],
            "scale" : [
                1,
                0.9999999403953552,
                0.9999999403953552
            ],
            "translation" : [
                -2.117582368135751e-22,
                0.09575898945331573,
                -3.725290298461914e-09
            ]
        },
        {
            "name" : "hand.L",
            "rotation" : [
                -0.21503984928131104,
                -0.2168353945016861,
                0.20411895215511322,
                0.9300944805145264
            ],
            "scale" : [
                0.9999999403953552,
                0.9999998211860657,
                1
            ],
            "translation" : [
                2.200543303132463e-09,
                0.31367412209510803,
                -4.962267396990683e-08
            ]
        },
        {
            "children" : [
                7
            ],
            "name" : "forearm.L",
            "rotation" : [
                0.06598585844039917,
                0.05861034616827965,
                -0.21303386986255646,
                0.9730505347251892
            ],
            "translation" : [
                -6.100162863731384e-08,
                0.311592698097229,
                4.6566128730773926e-09
            ]
        },
        {
            "children" : [
                8
            ],
            "name" : "upper_arm.L",
            "rotation" : [
                -0.37234732508659363,
                0.602086067199707,
                -0.4790453314781189,
                0.5190043449401855
            ],
            "scale" : [
                0.9999999403953552,
                1.0000001192092896,
                1
            ],
            "translation" : [
                0.003552317386493087,
                0.29174333810806274,
                -0.02038947306573391
            ]
        },
        {
            "children" : [
                9
            ],
            "name" : "shoulder.L",
            "rotation" : [
                -0.5615042448043823,
                -0.395052433013916,
                -0.4185831844806671,
                0.5945038199424744
            ],
            "scale" : [
                1,
                1.0000001192092896,
                0.9999999403953552
            ],
            "translation" : [
                0.018300000578165054,
                0.03816322609782219,
                0.07661841809749603
            ]
        },
        {
            "name" : "hand.R",
            "rotation" : [
                -0.22640997171401978,
                0.4082508683204651,
                -0.15109559893608093,
                0.871343731880188
            ],
            "scale" : [
                0.9999999403953552,
                0.9999999403953552,
                1
            ],
            "translation" : [
                -1.7144047959050113e-08,
                0.326831191778183,
                -3.157353489768866e-08
            ]
        },
        {
            "children" : [
                11
            ],
            "name" : "forearm.R",
            "rotation" : [
                0.07895577698945999,
                -0.2392023801803589,
                0.10985597223043442,
                0.9614987969398499
            ],
            "scale" : [
                0.9999999403953552,
                0.9999998807907104,
                0.9999999403953552
            ],
            "translation" : [
                -3.7703181021697674e-08,
                0.2883211672306061,
                -2.2113511022325838e-08
            ]
        },
        {
            "children" : [
                12
            ],
            "name" : "upper_arm.R",
            "rotation" : [
                -0.43680500984191895,
                -0.5541451573371887,
                0.4695422053337097,
                0.5307115912437439
            ],
            "scale" : [
                0.9999998807907104,
                1.0000001192092896,
                0.9999999403953552
            ],
            "translation" : [
                -0.003552314592525363,
                0.29174327850341797,
                -0.020389486104249954
            ]
        },
        {
            "children" : [
                13
            ],
            "name" : "shoulder.R",
            "rotation" : [
                -0.5615042448043823,
                0.395052433013916,
                0.4185831844806671,
                0.5945038199424744
            ],
            "scale" : [
                1,
                1.0000001192092896,
                0.9999999403953552
            ],
            "translation" : [
                -0.018300000578165054,
                0.03816322609782219,
                0.07661841809749603
            ]
        },
        {
            "children" : [
                6,
                10,
                14
            ],
            "name" : "spine.003",
            "rotation" : [
                -0.012824398465454578,
                -1.1919954090444662e-07,
                -1.5287872079383646e-09,
                0.9999178647994995
            ],
            "scale" : [
                1,
                1.000000238418579,
                1.0000001192092896
            ],
            "translation" : [
                0,
                0.1728876233100891,
                0
            ]
        },
        {
            "children" : [
                15
            ],
            "name" : "spine.002",
            "rotation" : [
                -0.07746415585279465,
                1.0022121360483667e-15,
                -1.8468893969725286e-08,
                0.9969951510429382
            ],
            "scale" : [
                1,
                0.9999999403953552,
                0.9999999403953552
            ],
            "translation" : [
                2.5301858810287134e-16,
                0.1366366595029831,
                -1.0612368761542257e-09
            ]
        },
        {
            "children" : [
                16
            ],
            "name" : "spine.001",
            "rotation" : [
                -0.0644763931632042,
                2.6200268964473618e-14,
                -1.5372368267208003e-08,
                0.9979192614555359
            ],
            "scale" : [
                1,
                1.0000001192092896,
                1
            ],
            "translation" : [
                6.3219667741369785e-15,
                0.15221965312957764,
                -3.024154437980542e-08
            ]
        },
        {
            "name" : "pelvis.L",
            "rotation" : [
                -0.16877636313438416,
                -0.7690661549568176,
                -0.3763555586338043,
                0.4882708191871643
            ],
            "scale" : [
                1.0000001192092896,
                1.000000238418579,
                0.9999999403953552
            ],
            "translation" : [
                -7.187574624367699e-08,
                0.04691559448838234,
                -0.012094960547983646
            ]
        },
        {
            "name" : "pelvis.R",
            "rotation" : [
                -0.16877637803554535,
                0.7690659761428833,
                0.37635549902915955,
                0.488271027803421
            ],
            "scale" : [
                1.0000001192092896,
                1.0000001192092896,
                1
            ],
            "translation" : [
                1.677785554932143e-08,
                0.04691566899418831,
                -0.012094885110855103
            ]
        },
        {
            "name" : "toe.L",
            "rotation" : [
                -1.942759908502012e-08,
                0.9612487554550171,
                -0.2756825089454651,
                5.3093134511073e-07
            ],
            "scale" : [
                1,
                0.9999997615814209,
                1
            ],
            "translation" : [
                6.512320904761282e-09,
                0.1292455941438675,
                4.2736125749343046e-08
            ]
        },
        {
            "children" : [
                20
            ],
            "name" : "foot.L",
            "rotation" : [
                -0.5379085540771484,
                0.007146222982555628,
                -0.011280848644673824,
                0.8428974747657776
            ],
            "scale" : [
                0.9999998807907104,
                0.9999999403953552,
                1
            ],
            "translation" : [
                -1.4315936880393565e-08,
                0.36285266280174255,
                -2.568337365005391e-08
            ]
        },
        {
            "children" : [
                21
            ],
            "name" : "shin.L",
            "rotation" : [
                0.10376737266778946,
                -0.001341513474471867,
                0.013286132365465164,
                0.9945119619369507
            ],
            "scale" : [
                0.9999999403953552,
                1,
                0.9999999403953552
            ],
            "translation" : [
                2.5066486664115928e-09,
                0.4880756437778473,
                2.1667692640114922e-10
            ]
        },
        {
            "children" : [
                22
            ],
            "name" : "thigh.L",
            "rotation" : [
                0.985886812210083,
                1.1712832925780958e-09,
                2.3485480937779357e-07,
                0.16741319000720978
            ],
            "translation" : [
                0.10768990218639374,
                0.12242576479911804,
                0.012637846171855927
            ]
        },
        {
            "name" : "toe.R",
            "rotation" : [
                -2.0813459400415013e-08,
                0.9612486362457275,
                -0.2756830155849457,
                5.3093134511073e-07
            ],
            "scale" : [
                1,
                1,
                1.0000001192092896
            ],
            "translation" : [
                6.341446479041224e-09,
                0.12924529612064362,
                -2.065302595610774e-08
            ]
        },
        {
            "children" : [
                24
            ],
            "name" : "foot.R",
            "rotation" : [
                -0.5386610627174377,
                1.0043632414635795e-07,
                -1.926404138430371e-07,
                0.8425225615501404
            ],
            "translation" : [
                -1.4859669050792945e-10,
                0.35791587829589844,
                -2.8759714609805087e-09
            ]
        },
        {
            "children" : [
                25
            ],
            "name" : "shin.R",
            "rotation" : [
                0.10460839420557022,
                1.2428647000461979e-10,
                2.6122176421949916e-08,
                0.9945135116577148
            ],
            "translation" : [
                -6.6421685929185514e-09,
                0.48807579278945923,
                6.4372542851742764e-09
            ]
        },
        {
            "children" : [
                26
            ],
            "name" : "thigh.R",
            "rotation" : [
                0.9858868718147278,
                1.1713372494170926e-09,
                2.3485509359488788e-07,
                0.16741298139095306
            ],
            "scale" : [
                1,
                1.0000001192092896,
                1.0000022649765015
            ],
            "translation" : [
                -0.09799999743700027,
                0.11773404479026794,
                0.01384732499718666
            ]
        },
        {
            "children" : [
                17,
                18,
                19,
                23,
                27
            ],
            "name" : "spine",
            "rotation" : [
                0.1258196234703064,
                1.1826192292119231e-07,
                1.4998867925442028e-08,
                0.9920531511306763
            ],
            "scale" : [
                1,
                0.9999999403953552,
                0.9999998807907104
            ],
            "translation" : [
                0,
                1.1067990064620972,
                -0.0551999993622303
            ]
        },
        {
            "children" : [
                28
            ],
            "name" : "metarig",
            "scale" : [
                20.640047073364258,
                20.640047073364258,
                20.640047073364258
            ],
            "translation" : [
                0,
                -13.84693717956543,
                -1.8002431392669678
            ]
        }
    ],
    "materials" : [
        {
            "doubleSided" : true,
            "name" : "Material",
            "pbrMetallicRoughness" : {
                "baseColorFactor" : [
                    0.800000011920929,
                    0.800000011920929,
                    0.800000011920929,
                    1
                ],
                "metallicFactor" : 0,
                "roughnessFactor" : 0.4000000059604645
            }
        }
    ],
    "meshes" : [
        {
            "name" : "Cube",
            "primitives" : [
                {
                    "attributes" : {
                        "POSITION" : 0,
                        "NORMAL" : 1,
                        "TEXCOORD_0" : 2
                    },
                    "indices" : 3,
                    "material" : 0
                }
            ]
        }
    ],
    "accessors" : [
        {
            "bufferView" : 0,
            "componentType" : 5126,
            "count" : 1148,
            "max" : [
                2.995851516723633,
                1.4296607971191406,
                2.6841001510620117
            ],
            "min" : [
                -2.966525077819824,
                -11.532674789428711,
                -1.288801670074463
            ],
            "type" : "VEC3"
        },
        {
            "bufferView" : 1,
            "componentType" : 5126,
            "count" : 1148,
            "type" : "VEC3"
        },
        {
            "bufferView" : 2,
            "componentType" : 5126,
            "count" : 1148,
            "type" : "VEC2"
        },
        {
            "bufferView" : 3,
            "componentType" : 5123,
            "count" : 1968,
            "type" : "SCALAR"
        }
    ],
    "bufferViews" : [
        {
            "buffer" : 0,
            "byteLength" : 13776,
            "byteOffset" : 0
        },
        {
            "buffer" : 0,
            "byteLength" : 13776,
            "byteOffset" : 13776
        },
        {
            "buffer" : 0,
            "byteLength" : 9184,
            "byteOffset" : 27552
        },
        {
            "buffer" : 0,
            "byteLength" : 3936,
            "byteOffset" : 36736
        }
    ],
    "buffers" : [
        {
            "byteLength" : 40672,
            "uri" : "clovek.bin"
        }
    ]
}
