{
	"asset":{
		"generator":"Khronos glTF Blender I/O v4.0.44",
		"version":"2.0"
	},
	"scene":0,
	"scenes":[
		{
			"name":"Scene",
			"nodes":[
				5
			]
		}
	],
	"nodes":[
		{
			"mesh":0,
			"name":"arm_left",
			"translation":[
				3.817351171164773e-06,
				0,
				0
			]
		},
		{
			"mesh":1,
			"name":"arm_right",
			"translation":[
				3.817351171164773e-06,
				0,
				0
			]
		},
		{
			"camera":0,
			"name":"Camera",
			"rotation":[
				0.7053409814834595,
				-0.7053410410881042,
				-0.049940869212150574,
				0.04994075372815132
			],
			"scale":[
				1.8685436248779297,
				1.868545651435852,
				1.8685458898544312
			],
			"translation":[
				-3.038027763366699,
				-0.008452142588794231,
				-1.4005380868911743
			]
		},
		{
			"mesh":2,
			"name":"leg_left.001"
		},
		{
			"mesh":3,
			"name":"leg_right",
			"translation":[
				3.817351171164773e-06,
				0,
				0
			]
		},
		{
			"children":[
				0,
				1,
				2,
				3,
				4
			],
			"mesh":4,
			"name":"zhigga",
			"rotation":[
				0,
				0,
				-0.7071066498756409,
				0.70710688829422
			],
			"scale":[
				0.15000000596046448,
				0.15000000596046448,
				0.15000000596046448
			],
			"translation":[
				0.0012680290965363383,
				1.7552132606506348,
				0.21008068323135376
			]
		}
	],
	"cameras":[
		{
			"name":"Camera",
			"perspective":{
				"aspectRatio":1.7777777777777777,
				"yfov":0.39959652046304894,
				"zfar":10000,
				"znear":0.10000000149011612
			},
			"type":"perspective"
		}
	],
	"materials":[
		{
			"doubleSided":true,
			"name":"Material.001",
			"pbrMetallicRoughness":{
				"baseColorTexture":{
					"index":0
				},
				"metallicFactor":0,
				"roughnessFactor":0.5
			}
		}
	],
	"meshes":[
		{
			"name":"Sphere.002",
			"primitives":[
				{
					"attributes":{
						"POSITION":0,
						"NORMAL":1,
						"TEXCOORD_0":2
					},
					"indices":3,
					"material":0
				}
			]
		},
		{
			"name":"Sphere.001",
			"primitives":[
				{
					"attributes":{
						"POSITION":4,
						"NORMAL":5,
						"TEXCOORD_0":6
					},
					"indices":7,
					"material":0
				}
			]
		},
		{
			"name":"Sphere.005",
			"primitives":[
				{
					"attributes":{
						"POSITION":8,
						"NORMAL":9,
						"TEXCOORD_0":10
					},
					"indices":11,
					"material":0
				}
			]
		},
		{
			"name":"Sphere.004",
			"primitives":[
				{
					"attributes":{
						"POSITION":12,
						"NORMAL":13,
						"TEXCOORD_0":14
					},
					"indices":15,
					"material":0
				}
			]
		},
		{
			"name":"Sphere",
			"primitives":[
				{
					"attributes":{
						"POSITION":16,
						"NORMAL":17,
						"TEXCOORD_0":18
					},
					"indices":19,
					"material":0
				}
			]
		}
	],
	"textures":[
		{
			"sampler":0,
			"source":0
		}
	],
	"images":[
		{
			"mimeType":"image/png",
			"name":"material_astronaut",
			"uri":"material_astronaut.png"
		}
	],
	"accessors":[
		{
			"bufferView":0,
			"componentType":5126,
			"count":215,
			"max":[
				2.6506834030151367,
				6.505966663360596,
				-0.9762738943099976
			],
			"min":[
				-4.044504165649414,
				1.806248426437378,
				-2.773469924926758
			],
			"type":"VEC3"
		},
		{
			"bufferView":1,
			"componentType":5126,
			"count":215,
			"type":"VEC3"
		},
		{
			"bufferView":2,
			"componentType":5126,
			"count":215,
			"type":"VEC2"
		},
		{
			"bufferView":3,
			"componentType":5123,
			"count":333,
			"type":"SCALAR"
		},
		{
			"bufferView":4,
			"componentType":5126,
			"count":215,
			"max":[
				2.6506834030151367,
				-1.8231513500213623,
				-0.9762738943099976
			],
			"min":[
				-4.044504165649414,
				-6.52286958694458,
				-2.773469924926758
			],
			"type":"VEC3"
		},
		{
			"bufferView":5,
			"componentType":5126,
			"count":215,
			"type":"VEC3"
		},
		{
			"bufferView":6,
			"componentType":5126,
			"count":215,
			"type":"VEC2"
		},
		{
			"bufferView":7,
			"componentType":5123,
			"count":333,
			"type":"SCALAR"
		},
		{
			"bufferView":8,
			"componentType":5126,
			"count":294,
			"max":[
				11.864859580993652,
				1.9963085651397705,
				0.6798394918441772
			],
			"min":[
				2.38187313079834,
				-0.16367599368095398,
				-2.7944648265838623
			],
			"type":"VEC3"
		},
		{
			"bufferView":9,
			"componentType":5126,
			"count":294,
			"type":"VEC3"
		},
		{
			"bufferView":10,
			"componentType":5126,
			"count":294,
			"type":"VEC2"
		},
		{
			"bufferView":11,
			"componentType":5123,
			"count":732,
			"type":"SCALAR"
		},
		{
			"bufferView":12,
			"componentType":5126,
			"count":294,
			"max":[
				11.864858627319336,
				0.146773099899292,
				0.6798393726348877
			],
			"min":[
				2.3818721771240234,
				-2.013211488723755,
				-2.7944648265838623
			],
			"type":"VEC3"
		},
		{
			"bufferView":13,
			"componentType":5126,
			"count":294,
			"type":"VEC3"
		},
		{
			"bufferView":14,
			"componentType":5126,
			"count":294,
			"type":"VEC2"
		},
		{
			"bufferView":15,
			"componentType":5123,
			"count":732,
			"type":"SCALAR"
		},
		{
			"bufferView":16,
			"componentType":5126,
			"count":908,
			"max":[
				2.731504440307617,
				2.649435520172119,
				0.10076594352722168
			],
			"min":[
				-7.598594665527344,
				-2.6663384437561035,
				-2.807849645614624
			],
			"type":"VEC3"
		},
		{
			"bufferView":17,
			"componentType":5126,
			"count":908,
			"type":"VEC3"
		},
		{
			"bufferView":18,
			"componentType":5126,
			"count":908,
			"type":"VEC2"
		},
		{
			"bufferView":19,
			"componentType":5123,
			"count":1680,
			"type":"SCALAR"
		}
	],
	"bufferViews":[
		{
			"buffer":0,
			"byteLength":2580,
			"byteOffset":0,
			"target":34962
		},
		{
			"buffer":0,
			"byteLength":2580,
			"byteOffset":2580,
			"target":34962
		},
		{
			"buffer":0,
			"byteLength":1720,
			"byteOffset":5160,
			"target":34962
		},
		{
			"buffer":0,
			"byteLength":666,
			"byteOffset":6880,
			"target":34963
		},
		{
			"buffer":0,
			"byteLength":2580,
			"byteOffset":7548,
			"target":34962
		},
		{
			"buffer":0,
			"byteLength":2580,
			"byteOffset":10128,
			"target":34962
		},
		{
			"buffer":0,
			"byteLength":1720,
			"byteOffset":12708,
			"target":34962
		},
		{
			"buffer":0,
			"byteLength":666,
			"byteOffset":14428,
			"target":34963
		},
		{
			"buffer":0,
			"byteLength":3528,
			"byteOffset":15096,
			"target":34962
		},
		{
			"buffer":0,
			"byteLength":3528,
			"byteOffset":18624,
			"target":34962
		},
		{
			"buffer":0,
			"byteLength":2352,
			"byteOffset":22152,
			"target":34962
		},
		{
			"buffer":0,
			"byteLength":1464,
			"byteOffset":24504,
			"target":34963
		},
		{
			"buffer":0,
			"byteLength":3528,
			"byteOffset":25968,
			"target":34962
		},
		{
			"buffer":0,
			"byteLength":3528,
			"byteOffset":29496,
			"target":34962
		},
		{
			"buffer":0,
			"byteLength":2352,
			"byteOffset":33024,
			"target":34962
		},
		{
			"buffer":0,
			"byteLength":1464,
			"byteOffset":35376,
			"target":34963
		},
		{
			"buffer":0,
			"byteLength":10896,
			"byteOffset":36840,
			"target":34962
		},
		{
			"buffer":0,
			"byteLength":10896,
			"byteOffset":47736,
			"target":34962
		},
		{
			"buffer":0,
			"byteLength":7264,
			"byteOffset":58632,
			"target":34962
		},
		{
			"buffer":0,
			"byteLength":3360,
			"byteOffset":65896,
			"target":34963
		}
	],
	"samplers":[
		{
			"magFilter":9729,
			"minFilter":9987
		}
	],
	"buffers":[
		{
			"byteLength":69256,
			"uri":"zhigga.bin"
		}
	]
}
