{
	"asset":{
		"generator":"Khronos glTF Blender I/O v4.0.44",
		"version":"2.0"
	},
	"scene":0,
	"scenes":[
		{
			"name":"Scene",
			"nodes":[
				5
			]
		}
	],
	"nodes":[
		{
			"mesh":0,
			"name":"arm_left"
		},
		{
			"mesh":1,
			"name":"arm_right"
		},
		{
			"camera":0,
			"name":"Camera",
			"rotation":[
				0.7053409814834595,
				-0.7053410410881042,
				-0.049940790981054306,
				0.049940746277570724
			],
			"scale":[
				1.8685437440872192,
				1.868545651435852,
				1.8685458898544312
			],
			"translation":[
				3.609437942504883,
				0,
				0
			]
		},
		{
			"mesh":2,
			"name":"leg_left"
		},
		{
			"mesh":3,
			"name":"leg_right"
		},
		{
			"children":[
				0,
				1,
				2,
				3,
				4
			],
			"mesh":4,
			"name":"zhigga",
			"rotation":[
				0,
				0,
				-0.7071066498756409,
				0.70710688829422
			],
			"scale":[
				0.15000000596046448,
				0.15000000596046448,
				0.15000000596046448
			]
		}
	],
	"cameras":[
		{
			"name":"Camera",
			"perspective":{
				"aspectRatio":1.7777777777777777,
				"yfov":0.39959652046304894,
				"zfar":1000,
				"znear":0.10000000149011612
			},
			"type":"perspective"
		}
	],
	"materials":[
		{
			"doubleSided":true,
			"name":"Material.001",
			"pbrMetallicRoughness":{
				"baseColorTexture":{
					"index":0
				},
				"metallicFactor":0,
				"roughnessFactor":0.5
			}
		}
	],
	"meshes":[
		{
			"name":"Sphere.002",
			"primitives":[
				{
					"attributes":{
						"POSITION":0,
						"NORMAL":1,
						"TEXCOORD_0":2
					},
					"indices":3,
					"material":0
				}
			]
		},
		{
			"name":"Sphere.001",
			"primitives":[
				{
					"attributes":{
						"POSITION":4,
						"NORMAL":5,
						"TEXCOORD_0":6
					},
					"indices":7,
					"material":0
				}
			]
		},
		{
			"name":"Sphere.003",
			"primitives":[
				{
					"attributes":{
						"POSITION":8,
						"NORMAL":9,
						"TEXCOORD_0":10
					},
					"indices":11,
					"material":0
				}
			]
		},
		{
			"name":"Sphere.004",
			"primitives":[
				{
					"attributes":{
						"POSITION":12,
						"NORMAL":13,
						"TEXCOORD_0":14
					},
					"indices":15,
					"material":0
				}
			]
		},
		{
			"name":"Sphere",
			"primitives":[
				{
					"attributes":{
						"POSITION":16,
						"NORMAL":17,
						"TEXCOORD_0":18
					},
					"indices":19,
					"material":0
				}
			]
		}
	],
	"textures":[
		{
			"sampler":0,
			"source":0
		}
	],
	"images":[
		{
			"mimeType":"image/png",
			"name":"material_astronaut",
			"uri":"material_astronaut.png"
		}
	],
	"accessors":[
		{
			"bufferView":0,
			"componentType":5126,
			"count":215,
			"max":[
				9.2981538772583,
				6.514418125152588,
				0.42426422238349915
			],
			"min":[
				2.602966547012329,
				1.8146998882293701,
				-1.372931718826294
			],
			"type":"VEC3"
		},
		{
			"bufferView":1,
			"componentType":5126,
			"count":215,
			"type":"VEC3"
		},
		{
			"bufferView":2,
			"componentType":5126,
			"count":215,
			"type":"VEC2"
		},
		{
			"bufferView":3,
			"componentType":5123,
			"count":333,
			"type":"SCALAR"
		},
		{
			"bufferView":4,
			"componentType":5126,
			"count":215,
			"max":[
				9.2981538772583,
				-1.8146998882293701,
				0.42426422238349915
			],
			"min":[
				2.602966547012329,
				-6.514418125152588,
				-1.372931718826294
			],
			"type":"VEC3"
		},
		{
			"bufferView":5,
			"componentType":5126,
			"count":215,
			"type":"VEC3"
		},
		{
			"bufferView":6,
			"componentType":5126,
			"count":215,
			"type":"VEC2"
		},
		{
			"bufferView":7,
			"componentType":5123,
			"count":333,
			"type":"SCALAR"
		},
		{
			"bufferView":8,
			"componentType":5126,
			"count":302,
			"max":[
				18.5123291015625,
				2.0047600269317627,
				2.0803775787353516
			],
			"min":[
				1.6654329299926758,
				-0.15522454679012299,
				-1.393926739692688
			],
			"type":"VEC3"
		},
		{
			"bufferView":9,
			"componentType":5126,
			"count":302,
			"type":"VEC3"
		},
		{
			"bufferView":10,
			"componentType":5126,
			"count":302,
			"type":"VEC2"
		},
		{
			"bufferView":11,
			"componentType":5123,
			"count":744,
			"type":"SCALAR"
		},
		{
			"bufferView":12,
			"componentType":5126,
			"count":294,
			"max":[
				18.5123291015625,
				0.15522454679012299,
				2.0803775787353516
			],
			"min":[
				9.029342651367188,
				-2.0047600269317627,
				-1.393926739692688
			],
			"type":"VEC3"
		},
		{
			"bufferView":13,
			"componentType":5126,
			"count":294,
			"type":"VEC3"
		},
		{
			"bufferView":14,
			"componentType":5126,
			"count":294,
			"type":"VEC2"
		},
		{
			"bufferView":15,
			"componentType":5123,
			"count":732,
			"type":"SCALAR"
		},
		{
			"bufferView":16,
			"componentType":5126,
			"count":900,
			"max":[
				9.378973007202148,
				2.6578869819641113,
				1.501303791999817
			],
			"min":[
				-0.9511261582374573,
				-2.6578869819641113,
				-1.4073117971420288
			],
			"type":"VEC3"
		},
		{
			"bufferView":17,
			"componentType":5126,
			"count":900,
			"type":"VEC3"
		},
		{
			"bufferView":18,
			"componentType":5126,
			"count":900,
			"type":"VEC2"
		},
		{
			"bufferView":19,
			"componentType":5123,
			"count":1668,
			"type":"SCALAR"
		}
	],
	"bufferViews":[
		{
			"buffer":0,
			"byteLength":2580,
			"byteOffset":0,
			"target":34962
		},
		{
			"buffer":0,
			"byteLength":2580,
			"byteOffset":2580,
			"target":34962
		},
		{
			"buffer":0,
			"byteLength":1720,
			"byteOffset":5160,
			"target":34962
		},
		{
			"buffer":0,
			"byteLength":666,
			"byteOffset":6880,
			"target":34963
		},
		{
			"buffer":0,
			"byteLength":2580,
			"byteOffset":7548,
			"target":34962
		},
		{
			"buffer":0,
			"byteLength":2580,
			"byteOffset":10128,
			"target":34962
		},
		{
			"buffer":0,
			"byteLength":1720,
			"byteOffset":12708,
			"target":34962
		},
		{
			"buffer":0,
			"byteLength":666,
			"byteOffset":14428,
			"target":34963
		},
		{
			"buffer":0,
			"byteLength":3624,
			"byteOffset":15096,
			"target":34962
		},
		{
			"buffer":0,
			"byteLength":3624,
			"byteOffset":18720,
			"target":34962
		},
		{
			"buffer":0,
			"byteLength":2416,
			"byteOffset":22344,
			"target":34962
		},
		{
			"buffer":0,
			"byteLength":1488,
			"byteOffset":24760,
			"target":34963
		},
		{
			"buffer":0,
			"byteLength":3528,
			"byteOffset":26248,
			"target":34962
		},
		{
			"buffer":0,
			"byteLength":3528,
			"byteOffset":29776,
			"target":34962
		},
		{
			"buffer":0,
			"byteLength":2352,
			"byteOffset":33304,
			"target":34962
		},
		{
			"buffer":0,
			"byteLength":1464,
			"byteOffset":35656,
			"target":34963
		},
		{
			"buffer":0,
			"byteLength":10800,
			"byteOffset":37120,
			"target":34962
		},
		{
			"buffer":0,
			"byteLength":10800,
			"byteOffset":47920,
			"target":34962
		},
		{
			"buffer":0,
			"byteLength":7200,
			"byteOffset":58720,
			"target":34962
		},
		{
			"buffer":0,
			"byteLength":3336,
			"byteOffset":65920,
			"target":34963
		}
	],
	"samplers":[
		{
			"magFilter":9729,
			"minFilter":9987
		}
	],
	"buffers":[
		{
			"byteLength":69256,
			"uri":"zhigga.bin"
		}
	]
}
