<?xml version="1.0" encoding="utf-8"?>
<!-- Generator: Adobe Illustrator 24.3.0, SVG Export Plug-In . SVG Version: 6.00 Build 0)  -->
<svg version="1.1" id="Layer_1" xmlns="http://www.w3.org/2000/svg" xmlns:xlink="http://www.w3.org/1999/xlink" x="0px" y="0px"
	 viewBox="0 0 779.7 215.5" style="enable-background:new 0 0 779.7 215.5;" xml:space="preserve">
<style type="text/css">
	.st0{fill:#F6A01C;stroke:#000000;stroke-width:1.2289;stroke-miterlimit:10;}
	.st1{fill:#F6A01C;}
</style>
<g>
	<g>
		
			<image style="overflow:visible;opacity:0.75;" width="4274" height="935" xlink:href="5B8AFBC0.png"  transform="matrix(0.2949 0 0 0.2949 -252.8488 -14.1298)">
		</image>
		<g>
			<g>
				<path class="st0" d="M81.4,81.1c4.1,0,9.5,1,16.2,3.1c0.8,0.2,1.4,0.4,1.9,0.4c0.4,0,1.6-0.4,3.6-1.1c0.6-0.2,1.3-0.4,2-0.4
					c2.7,0,5.5,2.1,8.5,6.4c3,4.2,4.5,8.3,4.5,12.1c0,2.2-0.7,4.1-2,5.7c-1.3,1.5-3,2.3-4.9,2.3c-1.6,0-2.9-0.3-3.9-1
					c-1-0.6-3.2-2.5-6.6-5.7c-4.8-4.5-9.5-6.7-14.2-6.7c-2.2,0-4,0.5-5.4,1.6c-1.3,1.1-2,2.5-2,4.3c0,3.5,3.1,6.1,9.2,7.9
					c8.3,2.4,13.6,4.2,15.9,5.3c10.2,5,15.3,12.3,15.3,21.9c0,8.5-3.5,15.5-10.4,20.9c-7.1,5.5-16.4,8.3-27.9,8.3
					c-5.1,0-10.5-0.6-16.2-1.8c-5.7-1.2-9.8-2.6-12.3-4.3c-1.9-1.3-3.7-4.1-5.2-8.4c-1.5-4.3-2.3-8.5-2.3-12.6c0-2,0.4-3.4,1.2-4.4
					c1-1.3,2.3-1.9,3.8-1.9c1.5,0,3,0.8,4.4,2.3c0.8,0.9,2.8,3.7,5.9,8.5c1.5,2.2,3.8,4.1,7.1,5.6c3.2,1.5,6.6,2.2,10,2.2
					c3,0,5.4-0.5,7.2-1.7c1.8-1.1,2.8-2.5,2.8-4.2c0-1.6-0.7-3-2.2-4.1c-1.4-1.2-3.8-2.2-7-3.2c-5.7-1.8-10.1-3.5-13.1-5
					c-3-1.5-5.8-3.4-8.4-5.7c-6.3-5.6-9.5-12-9.5-19.1c0-3.5,0.8-7,2.5-10.3c1.6-3.3,4-6.2,7-8.7C63.5,84,71.7,81.1,81.4,81.1z"/>
				<path class="st0" d="M150.8,82.8h31.6c3.4-0.1,6.5-0.6,9.3-1.4c1.2-0.3,2.3-0.5,3.2-0.5c3.2,0,6.4,2.4,9.5,7.2
					c3.1,4.8,4.6,9.7,4.6,14.8c0,3.5-1.1,6-3.2,7.6c-1.6,1.2-3.5,1.8-5.8,1.8c-2.1,0-4-0.6-5.5-1.8c-1.6-1.2-3.1-3.1-4.6-5.9
					c-1.3-2.5-2.4-4.1-3.1-4.9c-0.8-0.8-1.7-1.1-2.8-1.1c-1.5,0-2.5,0.6-3.2,1.9c-0.6,1.2-1,3.3-1,6.1v33.6c0,3.4,0.4,5.9,1.1,7.5
					c0.7,1.6,2.1,2.8,4.1,3.6c2.2,0.9,3.6,1.8,4.4,2.6c0.8,0.8,1.2,2,1.2,3.4c0,2.9-2,5-5.9,6.4s-9.9,2.1-18,2.1
					c-9.9,0-17.3-0.8-22.1-2.5c-4-1.4-6.1-3.6-6.1-6.6c0-1.6,0.7-2.9,2.2-3.8c0.4-0.2,1.8-0.7,4.3-1.4c1.5-0.4,2.6-1.3,3.2-2.5
					c0.6-1.2,1.1-3.6,1.4-7.1c0.3-3.1,0.6-8.2,0.9-15.2c0.3-7,0.4-13,0.4-18.2c0-3.6-0.3-6.2-0.8-7.7c-0.6-1.5-1.5-2.3-2.8-2.3
					c-1.6,0-3.1,1.1-4.6,3.4c-2.7,4.1-4.9,6.8-6.6,8.1c-2,1.6-4,2.3-5.9,2.3c-2.2,0-3.9-0.8-5.3-2.4c-1.4-1.6-2.1-3.7-2.1-6.2
					c0-2.5,0.6-5.2,1.7-8.2c1.1-3,2.6-5.7,4.5-8.3c3-4.1,6-6.1,9-6.1c0.8,0,1.7,0.1,2.8,0.4c2.2,0.4,3.9,0.7,5.3,0.9
					C147.4,82.7,149,82.8,150.8,82.8z"/>
				<path class="st0" d="M282.4,123.3l11.3,24.3c1.1,2.2,2,3.7,2.7,4.4c0.7,0.7,1.8,1.2,3.3,1.4c2.9,0.4,4.3,1.9,4.3,4.4
					c0,2.9-1.8,5-5.3,6.3c-3.5,1.3-9.3,1.9-17.3,1.9c-9,0-15.7-0.4-20.1-1.1c-2-0.4-3.6-1.1-4.8-2.2c-1.2-1.1-1.8-2.4-1.8-4
					c0-1.2,0.3-2.1,0.9-2.8c0.6-0.7,1.8-1.3,3.5-1.8c1.9-0.6,2.8-1.7,2.8-3.2c0-2.7-1.6-4.3-4.9-4.7c-3.5-0.5-8.4-0.7-14.7-0.7
					c-5.3,0-8.5,0.3-9.5,1c-0.6,0.4-1.2,1.1-1.7,2.2c-0.5,1-0.7,2-0.7,3c0,0.9,0.2,1.5,0.5,1.7c0.3,0.3,1.4,0.7,3.3,1.3
					c2.4,0.7,3.7,2.2,3.7,4.3c0,4.8-5.7,7.1-17.1,7.1c-6.5,0-11.2-0.4-14.3-1.3c-2.8-0.8-4.2-2.7-4.2-5.5c0-1.2,0.3-2.2,0.9-2.9
					c0.6-0.7,1.7-1.3,3.3-1.9c2.6-0.9,4.6-2.2,5.9-3.9c1.3-1.7,3.2-5.2,5.7-10.7l8.5-18.5c3.1-6.8,5.2-11.9,6.3-15.3
					c1.1-3.4,1.6-6.7,1.7-9.9c0-3.4,0.2-5.8,0.6-7.2c0.4-1.3,1.2-2.6,2.6-3.9c2.8-2.8,6.3-4.2,10.6-4.2c4,0,7.9,1.6,11.6,4.7
					C265.2,89.8,272.6,102.4,282.4,123.3z M240.6,130.8h11.8c2.2,0,3.2-0.5,3.2-1.4c0-1.3-1.5-4.6-4.5-9.7c-1.4-2.4-2.4-3.9-3.1-4.7
					c-0.7-0.8-1.5-1.2-2.3-1.2c-1.4,0-2.6,1.3-3.6,4c-0.2,0.4-0.7,1.8-1.7,4.3c-1.7,4.1-2.5,6.5-2.5,7.3
					C237.9,130.3,238.8,130.8,240.6,130.8z"/>
				<path class="st0" d="M345.7,130.3c-1.5,0-2.5,0.5-2.9,1.4c-0.4,0.9-0.6,3.1-0.6,6.4c0,5.1,0.3,9,1,11.9c0.2,0.8,0.5,1.4,0.9,1.9
					c0.4,0.4,1.2,1,2.3,1.6c2.4,1.3,3.6,3.1,3.6,5.2c0,2.6-1.7,4.5-5,5.6c-3.3,1.1-9,1.7-17,1.7c-14.8,0-22.2-2.8-22.2-8.4
					c0-1,0.2-1.7,0.7-2.3c0.4-0.6,1.4-1.4,3-2.4c1.8-1.2,2.9-2.5,3.6-4.1c0.6-1.6,1.1-4.3,1.3-8.2c0.2-2.8,0.3-13,0.3-30.5
					c0-5.6-0.3-9.3-0.8-11.3c-0.6-2-1.8-3.5-3.6-4.4c-1.8-0.8-2.9-1.6-3.5-2.3c-0.6-0.7-0.9-1.6-0.9-2.7c0-1.5,0.6-2.8,1.7-3.9
					c1.1-1.1,2.7-1.9,4.8-2.4c1.7-0.4,4.1-0.7,7.1-0.7c1.3,0,4.6,0.2,9.9,0.6c1,0.1,2.6,0.1,4.7,0.1c3.6,0,8.4-0.2,14.4-0.7
					c3.8-0.3,6.5-0.4,8-0.4c8.6,0,15.6,2.1,21.2,6.2c5,3.7,7.6,8.9,7.6,15.5c0,3.7-0.9,7-2.6,10.1c-1.8,3-4.2,5.3-7.3,6.8
					c-1.3,0.6-1.9,1.4-1.9,2.3c0,1.2,1,2.1,2.9,2.8c4.2,1.5,7.3,3.8,9.2,6.9c2,3.1,3.4,7.8,4.2,14.2c0.4,2.6,0.9,4.4,1.6,5.1
					c0.7,0.8,2.3,1.5,4.7,2.3c0.8,0.2,1.4,0.8,1.9,1.5c0.5,0.8,0.8,1.7,0.8,2.6c0,1.2-0.5,2.5-1.4,3.8c-1,1.3-2.2,2.3-3.7,3
					c-3.4,1.6-8,2.3-13.8,2.3c-7.8,0-13.4-2.1-16.7-6.2c-1.5-1.8-2.8-4.2-3.9-7c-1.1-2.8-2.3-7.2-3.8-13.1c-0.9-3.8-2.1-6.5-3.5-8
					C350.4,131.2,348.3,130.4,345.7,130.3z M342.2,99.7l-0.7,14c0,0.1,0,0.3,0,0.5c0,1.4,0.2,2.4,0.6,2.9c0.4,0.5,1.3,0.7,2.6,0.7
					c3.5,0,6.1-0.9,7.7-2.7c1.6-1.8,2.4-4.7,2.4-8.7c0-7.7-2.7-11.6-8.2-11.6c-1.6,0-2.7,0.4-3.3,1.1
					C342.6,96.6,342.3,97.8,342.2,99.7z"/>
				<path class="st0" d="M445.8,95.2c-2.8,0-4.5,0.7-5.1,2.1c-0.5,1-0.9,3.1-1.4,6.1c-0.4,3-0.6,5.8-0.6,8.3c0,1.5,0.5,2.5,1.4,3.1
					c1,0.6,2.8,0.8,5.4,0.8c1.8,0,3.1-0.3,3.9-1c0.8-0.6,1.4-1.7,1.7-3.2c0.9-4.4,2.8-6.5,5.6-6.5c4.9,0,7.3,5.8,7.3,17.5
					c0,7.4-1.1,12.8-3.2,16.3c-1.3,2.1-3,3.2-5.3,3.2c-2.4,0-3.7-1.6-4.1-4.7c-0.2-2-0.5-3.5-0.8-4.3c-0.3-0.8-0.9-1.6-1.7-2.4
					c-1.3-1.2-3.2-1.9-5.8-1.9c-1.8,0-3,0.3-3.7,1c-0.6,0.6-0.9,1.9-0.8,3.7c0,0.3,0,2.2-0.1,5.6c0,6.9,0.7,11.1,2.2,12.7
					c0.5,0.6,1,1,1.5,1.2c0.5,0.2,1.8,0.4,3.9,0.8c1,0.2,1.9,0.7,2.6,1.6c0.7,0.9,1.1,2,1.1,3.2c0,3.1-1.8,5.1-5.4,5.9
					c-5.2,1.2-12.5,1.9-21.9,1.9c-8.2,0-13.9-0.5-17-1.4c-1.4-0.4-2.5-1.2-3.4-2.4c-0.9-1.2-1.3-2.4-1.3-3.8c0-1.8,0.6-3.2,1.9-4.3
					c0.3-0.2,1.4-0.7,3.3-1.5c2.2-0.9,3.6-2.9,4-6.1c0.7-4.9,1.1-16.1,1.1-33.7c0-7.6-0.3-12.5-0.8-14.7c-0.5-2.2-1.8-3.8-3.8-4.7
					c-2-0.9-3.3-1.7-3.9-2.3c-0.6-0.7-0.9-1.6-0.9-2.9c0-1.8,0.9-3.2,2.6-4.4c1.7-1.2,3.8-1.8,6.4-1.8c1.6,0,3.9,0.1,7,0.4
					c6.5,0.5,14.3,0.8,23.4,0.8c14.5,0,24.3-0.4,29.3-1.2c0.7-0.1,1.2-0.1,1.6-0.1c1.4,0,2.7,0.8,4,2.4c3.5,4.5,5.3,9.4,5.3,14.9
					c0,2.5-0.6,4.5-1.7,5.9c-1.2,1.5-2.7,2.2-4.6,2.2c-1.4,0-2.5-0.3-3.2-0.8c-0.7-0.6-2.6-2.5-5.5-5.9c-1.8-2.1-4-3.4-6.5-4.1
					C457.5,95.8,452.8,95.4,445.8,95.2z"/>
				<path class="st0" d="M508.8,81.6c4.6,0,8.9,0.4,12.9,1.2c5.4,1.1,8.2,3.4,8.2,6.9c0,1.2-0.3,2-0.8,2.6c-0.5,0.6-1.9,1.4-4.1,2.6
					c-1.8,0.9-3.1,2.9-3.6,6.1c-0.6,3.1-0.9,9.2-0.9,18.2c0,15.3,0.4,24.7,1.1,28.4c0.3,1.2,0.7,2.1,1.3,2.7c0.6,0.6,1.6,1.3,3,2
					c2.6,1.2,4,2.9,4,5.2c0,3.2-2.4,5.4-7.3,6.6c-5.3,1.3-11.7,1.9-19.4,1.9c-13,0-19.6-2.5-19.6-7.4c0-1.8,1.3-3.5,3.8-5
					c2-1.2,3.1-2.8,3.5-4.9c0.8-4.6,1.1-14.2,1.1-29c0-10.2-0.5-16.8-1.6-19.7c-0.6-1.6-1.9-3.1-4-4.4c-1.6-1.1-2.7-2-3.3-2.7
					c-0.6-0.7-0.8-1.6-0.8-2.8c0-1.7,0.8-3.1,2.5-4.1c1.7-1,4.6-1.9,8.8-2.7C498.6,82.1,503.7,81.6,508.8,81.6z"/>
				<path class="st0" d="M573.2,130.3c-1.5,0-2.5,0.5-2.9,1.4c-0.4,0.9-0.6,3.1-0.6,6.4c0,5.1,0.3,9,1,11.9c0.2,0.8,0.5,1.4,0.9,1.9
					c0.4,0.4,1.2,1,2.3,1.6c2.4,1.3,3.6,3.1,3.6,5.2c0,2.6-1.7,4.5-5,5.6c-3.3,1.1-9,1.7-17,1.7c-14.8,0-22.2-2.8-22.2-8.4
					c0-1,0.2-1.7,0.7-2.3c0.4-0.6,1.4-1.4,3-2.4c1.8-1.2,2.9-2.5,3.6-4.1c0.6-1.6,1.1-4.3,1.3-8.2c0.2-2.8,0.3-13,0.3-30.5
					c0-5.6-0.3-9.3-0.8-11.3c-0.6-2-1.8-3.5-3.6-4.4c-1.8-0.8-2.9-1.6-3.5-2.3c-0.6-0.7-0.9-1.6-0.9-2.7c0-1.5,0.6-2.8,1.7-3.9
					c1.1-1.1,2.7-1.9,4.8-2.4c1.7-0.4,4.1-0.7,7.1-0.7c1.3,0,4.6,0.2,9.9,0.6c1,0.1,2.6,0.1,4.7,0.1c3.6,0,8.4-0.2,14.4-0.7
					c3.8-0.3,6.5-0.4,8-0.4c8.6,0,15.6,2.1,21.2,6.2c5,3.7,7.6,8.9,7.6,15.5c0,3.7-0.9,7-2.6,10.1c-1.8,3-4.2,5.3-7.3,6.8
					c-1.3,0.6-1.9,1.4-1.9,2.3c0,1.2,1,2.1,2.9,2.8c4.2,1.5,7.3,3.8,9.2,6.9c2,3.1,3.4,7.8,4.2,14.2c0.4,2.6,0.9,4.4,1.6,5.1
					c0.7,0.8,2.3,1.5,4.7,2.3c0.8,0.2,1.4,0.8,1.9,1.5c0.5,0.8,0.8,1.7,0.8,2.6c0,1.2-0.5,2.5-1.4,3.8s-2.2,2.3-3.7,3
					c-3.4,1.6-8,2.3-13.8,2.3c-7.8,0-13.4-2.1-16.7-6.2c-1.5-1.8-2.8-4.2-3.9-7c-1.1-2.8-2.3-7.2-3.8-13.1c-0.9-3.8-2.1-6.5-3.5-8
					C577.8,131.2,575.8,130.4,573.2,130.3z M569.7,99.7l-0.7,14c0,0.1,0,0.3,0,0.5c0,1.4,0.2,2.4,0.6,2.9c0.4,0.5,1.3,0.7,2.6,0.7
					c3.5,0,6.1-0.9,7.7-2.7c1.6-1.8,2.4-4.7,2.4-8.7c0-7.7-2.7-11.6-8.2-11.6c-1.6,0-2.7,0.4-3.3,1.1
					C570.1,96.6,569.8,97.8,569.7,99.7z"/>
				<path class="st0" d="M641.8,82.8h30.8c6.2,0,10.8-0.1,13.7-0.4c2.9-0.3,5.7-0.8,8.4-1.6c0.8-0.2,1.5-0.4,2-0.4
					c2.1,0,3.9,1.1,5.5,3.4c2.6,3.6,4,8,4,13.2c0,2.6-0.6,4.7-1.7,6.2c-1.1,1.5-2.6,2.3-4.5,2.3c-1.3,0-2.4-0.3-3.1-0.8
					c-0.7-0.5-1.7-1.7-3-3.6c-1.8-2.7-4-4.5-6.7-5.4s-7.1-1.4-13.3-1.4c-4.6,0-7.4,0.8-8.4,2.5c-0.5,0.9-0.8,2.1-0.9,3.5
					c-0.1,1.5-0.2,5.3-0.2,11.3c0,2.4,0.4,3.9,1.2,4.5c0.8,0.6,2.9,0.9,6.3,0.9c1.7,0,2.9-0.3,3.7-1.1c0.8-0.7,1.2-2,1.4-3.8
					c0.3-2.3,0.6-3.9,0.9-4.8c0.3-0.9,0.8-1.6,1.7-2.3c0.8-0.7,1.8-1.1,2.9-1.1c1.6,0,3,0.8,4.2,2.3c0.8,1.2,1.5,3.2,2.1,6.2
					c0.6,2.9,0.9,6,0.9,9.2c0,6.3-1,11.5-2.9,15.5c-1.1,2.2-2.7,3.3-4.9,3.3c-1.4,0-2.3-0.3-2.8-1.1c-0.5-0.7-0.9-2.2-1.2-4.4
					c-0.6-4.5-3.2-6.8-7.9-6.8c-1.8,0-3,0.6-3.7,1.7c-0.7,1.1-1,3.3-1,6.3c0,1.9,0.1,4.3,0.4,7.3c0.3,3,0.5,5,0.8,5.9
					c0.3,1.2,1.3,2,3,2.5c1.7,0.5,4.4,0.7,8.3,0.7c6,0,10.5-0.8,13.6-2.3c3-1.5,5.5-4.3,7.4-8.4c1.1-2.3,2.1-3.9,3-4.7
					c0.9-0.8,2.1-1.2,3.5-1.2c1.7,0,3.1,0.7,4.2,2.2c1.1,1.5,1.7,3.3,1.7,5.5c0,2.4-0.6,5.4-1.9,9c-1.2,3.6-2.8,6.8-4.6,9.6
					c-0.9,1.4-1.7,2.3-2.3,2.7c-0.6,0.5-1.4,0.7-2.3,0.7c-0.8,0-1.9-0.1-3.3-0.4c-2.6-0.5-6-0.8-10.3-0.9h-50.9
					c-2,0-3.6-0.5-4.7-1.4c-1.1-0.9-1.7-2.2-1.7-3.8c0-1.2,0.2-2,0.7-2.5c0.5-0.5,1.6-1.2,3.3-2c1.2-0.5,2.1-1.2,2.7-1.9
					c0.6-0.8,1-1.9,1.4-3.4c1.3-6,2-14.2,2-24.4c0-15.4-1-25.2-2.9-29.2c-0.4-0.8-0.8-1.4-1.3-1.7c-0.5-0.3-1.5-0.7-3-1.1
					c-2.3-0.7-3.4-2.2-3.4-4.6c0-1.3,0.4-2.4,1.1-3.4c0.8-1,1.8-1.7,3-2C634.3,83,637.3,82.8,641.8,82.8z"/>
			</g>
		</g>
	</g>
	<g>
		
			<image style="overflow:visible;opacity:0.75;" width="470" height="470" xlink:href="5B8AFBC1.png"  transform="matrix(0.2949 0 0 0.2949 437.0449 -17.01)">
		</image>
		<g>
			<g>
				<circle class="st1" cx="506.2" cy="52.2" r="16.4"/>
			</g>
			<g>
				<path d="M506.2,69c-9.3,0-16.8-7.5-16.8-16.8s7.5-16.8,16.8-16.8c9.3,0,16.8,7.5,16.8,16.8S515.5,69,506.2,69z M506.2,36.2
					c-8.8,0-16,7.2-16,16s7.2,16,16,16c8.8,0,16-7.2,16-16S515,36.2,506.2,36.2z"/>
			</g>
		</g>
	</g>
</g>
</svg>
