{
	"asset":{
		"generator":"Khronos glTF Blender I/O v4.0.44",
		"version":"2.0"
	},
	"scene":0,
	"scenes":[
		{
			"name":"Scene",
			"nodes":[
				3
			]
		}
	],
	"nodes":[
		{
			"mesh":0,
			"name":"arms",
			"translation":[
				3.3252384662628174,
				32.742610931396484,
				-0.6249606013298035
			]
		},
		{
			"camera":0,
			"name":"Camera",
			"rotation":[
				0,
				-0.9975028038024902,
				-0.07062690705060959,
				1.625138281724503e-07
			],
			"scale":[
				3.683180332183838,
				3.683183431625366,
				3.6831841468811035
			],
			"translation":[
				0,
				30.0000057220459,
				0
			]
		},
		{
			"mesh":1,
			"name":"cape",
			"scale":[
				25.69332504272461,
				25.69332504272461,
				25.69332504272461
			],
			"translation":[
				-0.6896046996116638,
				27.750049591064453,
				-0.028697961941361427
			]
		},
		{
			"children":[
				0,
				1,
				2
			],
			"mesh":2,
			"name":"ghost",
			"scale":[
				0.07500000298023224,
				0.07500000298023224,
				0.07500000298023224
			]
		}
	],
	"cameras":[
		{
			"name":"Camera",
			"perspective":{
				"aspectRatio":1.7777777777777777,
				"yfov":0.39959652046304894,
				"zfar":1000,
				"znear":0.10000000149011612
			},
			"type":"perspective"
		}
	],
	"materials":[
		{
			"doubleSided":true,
			"name":"Material.002",
			"pbrMetallicRoughness":{
				"baseColorTexture":{
					"index":0
				},
				"metallicFactor":0,
				"roughnessFactor":0.5
			}
		},
		{
			"doubleSided":true,
			"name":"Material",
			"pbrMetallicRoughness":{
				"baseColorTexture":{
					"index":1
				},
				"metallicFactor":0,
				"roughnessFactor":0.5
			}
		}
	],
	"meshes":[
		{
			"name":"Sphere.001",
			"primitives":[
				{
					"attributes":{
						"POSITION":0,
						"NORMAL":1,
						"TEXCOORD_0":2
					},
					"indices":3,
					"material":0
				}
			]
		},
		{
			"name":"Plane",
			"primitives":[
				{
					"attributes":{
						"POSITION":4,
						"NORMAL":5,
						"TEXCOORD_0":6
					},
					"indices":7,
					"material":1
				}
			]
		},
		{
			"name":"Sphere",
			"primitives":[
				{
					"attributes":{
						"POSITION":8,
						"NORMAL":9,
						"TEXCOORD_0":10
					},
					"indices":11,
					"material":0
				}
			]
		}
	],
	"textures":[
		{
			"sampler":0,
			"source":0
		},
		{
			"sampler":0,
			"source":1
		}
	],
	"images":[
		{
			"mimeType":"image/png",
			"name":"ghost_body",
			"uri":"ghost_body.png"
		},
		{
			"mimeType":"image/png",
			"name":"ghost_body",
			"uri":"ghost_body-1.png"
		}
	],
	"accessors":[
		{
			"bufferView":0,
			"componentType":5126,
			"count":226,
			"max":[
				9.214157104492188,
				-0.7587051391601562,
				1.3347434997558594
			],
			"min":[
				-15.864627838134766,
				-13.590814590454102,
				-2.081294059753418
			],
			"type":"VEC3"
		},
		{
			"bufferView":1,
			"componentType":5126,
			"count":226,
			"type":"VEC3"
		},
		{
			"bufferView":2,
			"componentType":5126,
			"count":226,
			"type":"VEC2"
		},
		{
			"bufferView":3,
			"componentType":5123,
			"count":366,
			"type":"SCALAR"
		},
		{
			"bufferView":4,
			"componentType":5126,
			"count":778,
			"max":[
				0.4035013020038605,
				0.4763554334640503,
				0.2417912483215332
			],
			"min":[
				-0.363335520029068,
				-0.7726365327835083,
				-0.30874156951904297
			],
			"type":"VEC3"
		},
		{
			"bufferView":5,
			"componentType":5126,
			"count":778,
			"type":"VEC3"
		},
		{
			"bufferView":6,
			"componentType":5126,
			"count":778,
			"type":"VEC2"
		},
		{
			"bufferView":7,
			"componentType":5123,
			"count":1164,
			"type":"SCALAR"
		},
		{
			"bufferView":8,
			"componentType":5126,
			"count":1324,
			"max":[
				5.239095211029053,
				38.989559173583984,
				2.9592955112457275
			],
			"min":[
				-5.23909330368042,
				0.6241683959960938,
				-2.7740230560302734
			],
			"type":"VEC3"
		},
		{
			"bufferView":9,
			"componentType":5126,
			"count":1324,
			"type":"VEC3"
		},
		{
			"bufferView":10,
			"componentType":5126,
			"count":1324,
			"type":"VEC2"
		},
		{
			"bufferView":11,
			"componentType":5123,
			"count":2610,
			"type":"SCALAR"
		}
	],
	"bufferViews":[
		{
			"buffer":0,
			"byteLength":2712,
			"byteOffset":0,
			"target":34962
		},
		{
			"buffer":0,
			"byteLength":2712,
			"byteOffset":2712,
			"target":34962
		},
		{
			"buffer":0,
			"byteLength":1808,
			"byteOffset":5424,
			"target":34962
		},
		{
			"buffer":0,
			"byteLength":732,
			"byteOffset":7232,
			"target":34963
		},
		{
			"buffer":0,
			"byteLength":9336,
			"byteOffset":7964,
			"target":34962
		},
		{
			"buffer":0,
			"byteLength":9336,
			"byteOffset":17300,
			"target":34962
		},
		{
			"buffer":0,
			"byteLength":6224,
			"byteOffset":26636,
			"target":34962
		},
		{
			"buffer":0,
			"byteLength":2328,
			"byteOffset":32860,
			"target":34963
		},
		{
			"buffer":0,
			"byteLength":15888,
			"byteOffset":35188,
			"target":34962
		},
		{
			"buffer":0,
			"byteLength":15888,
			"byteOffset":51076,
			"target":34962
		},
		{
			"buffer":0,
			"byteLength":10592,
			"byteOffset":66964,
			"target":34962
		},
		{
			"buffer":0,
			"byteLength":5220,
			"byteOffset":77556,
			"target":34963
		}
	],
	"samplers":[
		{
			"magFilter":9729,
			"minFilter":9987
		}
	],
	"buffers":[
		{
			"byteLength":82776,
			"uri":"ghost.bin"
		}
	]
}
